<svg width="84" height="10" viewBox="0 0 84 10" fill="none" xmlns="http://www.w3.org/2000/svg">
<path d="M0.0035899 9.9468C1.1027 9.05928 2.61488 9.30877 4.04445 8.8466C15.4451 6.9734 26.7271 5.39876 38.2032 4.37218L54.9665 2.86707L57.7178 2.62986L60.4584 2.409L63.0087 2.20859L66.1408 1.96319L69.0718 1.73415L71.4316 1.55829C74.9337 1.30062 78.2921 1.02659 81.8157 0.556242C79.0428 0.425363 76.2555 0.380379 73.4036 0.523528L70.214 0.68303C60.5051 1.16974 50.9759 2.39264 41.2922 3.37014L38.5372 3.64826C37.9913 3.70143 37.4561 3.92638 36.9029 3.56237C47.7001 2.04499 58.4901 0.826176 69.4238 0.233131L72.3942 0.0736289L82.9759 0C83.274 0 83.6907 0.372192 83.6009 0.695299C82.5305 0.952967 81.3811 1.14929 80.3071 1.23927L69.2406 2.15951L66.1336 2.40082L63.0051 2.64213L60.4548 2.84253L57.3371 3.08793L54.7761 3.29653L52.2402 3.5092L49.6972 3.72187L47.1254 3.93456L42.0249 4.43354C27.9879 5.80367 14.2382 7.50918 0 9.9468H0.0035899Z" fill="#2F4167"/>
</svg>
