<svg width="66" height="5" viewBox="0 0 66 5" fill="none" xmlns="http://www.w3.org/2000/svg">
<path d="M30.2579 1.83229L26.8457 2.08178L24.1051 2.29446L21.5584 2.51532L19.2058 2.73617L16.8567 2.95703L14.5076 3.17789L12.1621 3.40693L0 4.70754C0.951847 4.42533 1.9468 4.17993 2.97407 4.06541L14.7231 2.74436L17.2446 2.50305L19.3997 2.29855L21.9464 2.0736L24.493 1.84865L27.036 1.63597L30.3549 1.40285L33.6846 1.17789L37.0143 0.957043L40.0207 0.76072L44.0041 0.564397L48.8531 0.319009L54.1295 0.192208C54.2373 0.192208 67.987 -0.531704 65.1351 0.830255L53.9967 1.88955C52.3121 2.04906 50.8107 2.24129 49.0291 2.69528C50.0671 2.90796 50.9292 3.01429 51.9062 3.07564L55.0563 3.28014C56.4355 3.37012 57.8004 3.48055 59.0396 4.13904C58.0195 4.20039 57.1395 3.91817 56.1985 3.84046L53.4866 3.6196L50.1534 3.3783C49.338 3.32104 48.5729 3.43147 47.8545 2.59303C49.2159 2.03679 50.4515 1.79957 51.7948 1.66869L59.9448 0.858875L63.2817 0.535777C61.2846 0.425348 59.2911 0.376267 57.1898 0.458066L48.871 0.777083L43.8101 1.00612L39.8626 1.21879L36.6263 1.39875L32.9159 1.63188L30.2615 1.82411L30.2579 1.83229Z" fill="#2F4167"/>
</svg>
