<svg width="531" height="230" viewBox="0 0 531 230" fill="none" xmlns="http://www.w3.org/2000/svg">
<g clip-path="url(#clip0_497_169)">
<path d="M61.1586 83.4407C66.5982 88.8226 73.6377 91.5063 82.3352 91.5063C91.0327 91.5063 98.4504 88.8372 103.992 83.4407C104.195 83.2667 104.37 83.0636 104.559 82.875C109.722 77.5946 112.297 70.9942 112.297 63.1172C112.297 54.7179 109.548 47.8274 103.992 42.4455C98.4504 37.0781 91.2364 34.3799 82.3352 34.3799C73.4341 34.3799 66.5837 37.0781 61.1586 42.4455C55.7336 47.8274 53.0283 54.7179 53.0283 63.1172C53.0283 68.5571 54.2355 73.3878 56.6499 77.5946C57.8425 79.7126 59.3551 81.6419 61.1586 83.4262V83.4407Z" fill="#F7F2E9"/>
<path d="M331.801 85.167H307.832C298.523 85.167 290.975 92.7974 290.975 102.198V208.37C290.975 217.771 298.523 225.401 307.832 225.401H331.801C341.109 225.401 348.658 217.771 348.658 208.37V102.198C348.658 92.7974 341.109 85.167 331.801 85.167Z" fill="#F7F2E9"/>
<path d="M319.482 14.3906C310.799 14.3906 303.73 17.0743 298.305 22.4417C292.88 27.8236 290.16 34.6997 290.16 43.1134C290.16 51.5272 292.88 58.0696 298.305 63.437C303.73 68.8189 310.784 71.5026 319.482 71.5026C328.179 71.5026 335.611 68.8189 341.138 63.437C346.68 58.0696 349.443 51.2951 349.443 43.1134C349.443 34.9318 346.68 27.8236 341.138 22.4417C335.597 17.0743 328.383 14.3906 319.482 14.3906Z" fill="#F7F2E9"/>
<path d="M525.415 111.845C523.888 107.754 522.07 103.852 519.932 100.08C512.572 87.2422 502.435 76.9861 489.825 69.6458C487.425 68.2242 485.011 66.9622 482.48 65.8306C471.688 60.971 459.762 58.5049 446.861 58.5049C433.131 58.5049 420.405 61.4352 408.827 67.1797C407.286 67.9631 405.817 68.7464 404.304 69.5878C391.621 76.9716 381.455 87.1987 374.11 100.066C372.99 101.966 372.001 103.896 371.07 105.898C371.012 105.985 370.968 106.057 370.939 106.188C365.674 117.59 362.998 130.399 362.998 144.441C362.998 158.483 365.689 170.799 370.939 182.114C370.997 182.216 371.012 182.303 371.07 182.405C372.001 184.392 372.99 186.321 374.11 188.207C381.455 201.045 391.549 211.272 404.144 218.656C405.671 219.556 407.184 220.383 408.769 221.18C420.274 226.896 433.029 229.783 446.861 229.783C462.758 229.783 477.215 226.055 489.825 218.656C491.25 217.844 492.617 216.988 493.955 216.089C504.66 208.98 513.387 199.609 519.932 188.207C522.07 184.465 523.873 180.533 525.415 176.442C529.138 166.578 531 155.742 531 144.166C531 132.589 529.138 121.71 525.415 111.831V111.845ZM466.714 156.627C464.881 160.239 462.263 163.053 458.874 165.098C456.227 166.68 453.289 167.652 450.061 167.985C448.882 168.217 447.661 168.333 446.395 168.333H446.177C443.516 168.304 440.985 167.71 438.687 166.564C437.654 166.157 436.636 165.664 435.676 165.098C432.273 163.038 429.626 160.21 427.735 156.554C425.844 152.884 424.87 148.721 424.87 144.035C424.87 139.349 425.844 135.404 427.735 131.792C429.64 128.194 432.287 125.365 435.676 123.334C436.694 122.71 437.756 122.188 438.876 121.753C441.087 120.709 443.501 120.157 446.163 120.099H446.555C447.893 120.099 449.173 120.23 450.381 120.477C453.493 120.854 456.315 121.768 458.86 123.334C462.263 125.38 464.867 128.194 466.699 131.792C468.561 135.389 469.477 139.523 469.477 144.209C469.477 148.895 468.576 153.029 466.699 156.627H466.714Z" fill="#F7F2E9"/>
<path d="M256.679 0H232.71C223.401 0 215.853 8.89246 215.853 19.8593V49.322C215.853 55.7628 209.992 60.5935 203.636 59.433C185.979 56.1835 167.188 58.432 151.131 66.3816C141.095 71.3573 131.059 78.9152 123.598 88.4169C114.988 99.3838 109.039 112.237 107.032 126.061C105.723 135.055 106.305 145.587 102.989 153.087C101.243 157.032 98.829 159.847 95.2657 162.284C89.6661 166.128 79.1942 167.26 72.1547 163.676C65.3334 160.209 61.2319 153.493 60.1847 146.051C59.4138 140.611 60.5047 134.968 63.1081 130.152C65.7697 125.234 72.2274 121.84 70.5257 115.413C68.6495 108.32 61.6682 102.474 56.4904 97.7446C52.3307 93.9439 48.171 90.1287 44.0259 86.328C30.6015 74.041 18.7042 89.708 11.6502 101.676C-2.06517 124.959 -3.94139 156.844 7.40321 181.316C19.3005 206.949 40.928 224.807 68.8677 228.97C118.377 236.368 158.679 203.903 164.671 160.717C166.315 148.851 166.431 135.679 174.271 126.598C182.386 117.198 198.356 116.081 207.781 124.19C218.602 133.503 218.326 152.405 206.792 161.051C203.636 163.415 199.796 164.866 195.869 165.272C191.811 165.693 187.491 163.851 183.695 165.91C177.907 169.044 176.51 177.051 174.242 182.607C172.7 186.379 170.998 190.093 169.122 193.719C167.406 197.056 165.006 200.276 163.682 203.787C161.166 210.474 162.402 216.741 167.464 221.789C171.638 225.648 177.325 227.461 182.925 228.462C205.105 232.423 228.158 225.358 245.363 210.126C265.027 192.704 274.161 168.797 273.492 144.745C273.492 144.412 273.536 144.078 273.536 143.745V19.8593C273.536 8.89246 265.987 0 256.679 0Z" fill="#F7F2E9"/>
</g>
<defs>
<clipPath id="clip0_497_169">
<rect width="531" height="230" fill="white"/>
</clipPath>
</defs>
</svg>
