<svg width="102" height="194" viewBox="0 0 102 194" fill="none" xmlns="http://www.w3.org/2000/svg">
<g clip-path="url(#clip0_755_246)">
<path d="M47.8519 91.9498C51.8819 93.2798 54.8719 91.8898 57.3219 88.4698L50.3219 88.4898C49.8219 87.1198 49.6719 86.5298 49.2619 86.6498C48.6619 86.8098 47.3719 87.2998 47.3719 87.7398L47.3519 91.3598L45.3019 89.0498C44.8219 88.5098 43.7419 90.8498 43.3219 91.7198C42.6519 93.0998 39.1819 92.6498 37.5919 92.0398L34.6719 90.9298C33.2519 90.3898 31.2919 95.2798 30.4619 94.8098L28.1019 93.4698L21.6619 97.9198L20.2119 95.8598C19.9119 95.4398 19.0319 96.3498 18.5519 96.7198C18.2119 96.2698 16.0219 94.1098 15.6219 94.8198L13.6319 98.2798L10.9719 98.7598L9.5419 100.77C8.4019 99.5598 5.5119 98.9298 4.1019 99.6298L-1.1981 102.24C-1.92811 102.6 -4.41811 102.39 -4.62811 103.15L-5.6881 107C-5.9481 107.94 -8.49811 107.63 -9.2681 106.93C-10.1481 106.12 -11.5081 105.07 -11.9781 105.55L-14.7181 108.36L-18.1481 105.27L-23.0081 108.01C-23.5381 108.51 -24.9181 109.63 -25.5981 109.42L-29.0981 108.37L-41.4181 113.09C-43.6081 113.93 -45.2781 113.65 -47.8881 112.43L-47.1281 115.84L-55.4481 115.16C-63.0281 116.93 -69.3981 114.74 -72.5681 107L-67.0281 101.3L-57.1581 93.8298C-58.5881 93.3198 -59.8581 92.8098 -60.1281 93.1498L-61.4881 94.8698C-63.5581 92.2298 -66.5781 91.1498 -70.1581 93.1898L-75.9481 89.9898C-80.4081 92.7598 -86.3481 92.0398 -88.4481 86.9698C-95.4481 85.6898 -100.568 80.9198 -102.808 74.5898C-99.5581 67.1598 -93.6981 62.8098 -87.4781 58.3798L-78.2281 51.7898L-70.7781 47.1298L-63.4081 42.7098L-50.1981 36.0098L-42.4281 32.0698C-40.9981 31.3498 -39.1381 30.2298 -37.0881 29.3998L-22.9181 23.6798L-14.0881 20.3098L-7.5081 17.3198C-4.1981 15.8098 -1.4381 15.1398 1.44189 12.4798C4.04189 10.0798 8.2819 9.1498 11.3919 8.6998C13.1419 7.2498 15.5319 5.3398 17.9819 6.3798L16.8319 7.8798C16.5819 8.1998 17.7119 9.5698 17.8419 9.9398C16.4519 12.1698 11.3219 11.8598 11.6519 12.8198L10.7919 10.2598L9.8619 12.2498C9.6219 12.7598 8.6019 12.8998 7.8419 13.1298C3.36189 22.1198 -5.88811 18.6698 -8.6981 26.2498C-10.7981 26.3498 -11.0081 25.7598 -8.73811 24.5898L-12.1481 24.4798C-12.7881 24.4598 -13.1781 23.0198 -13.6681 22.0698L-17.2081 29.2198C-17.8081 27.2098 -18.4881 26.2698 -18.8081 26.9598C-24.2481 29.1098 -25.4981 34.6298 -26.4681 34.0698L-29.2681 32.4698L-37.8281 37.9798C-38.3481 38.3098 -41.0481 38.2298 -40.8981 38.8198L-40.0681 42.1898L-46.3681 41.1098C-47.2181 40.9598 -47.5381 42.9498 -47.4081 45.3698L-51.0981 42.6998L-58.0981 49.9498C-60.5781 48.4798 -61.9281 49.5998 -64.6781 51.4098L-64.1881 49.4198C-64.0981 49.0698 -64.1381 47.5898 -64.4181 47.8398L-66.6381 49.8498C-67.7381 50.8398 -69.2881 53.4898 -69.8081 54.7598C-69.0381 56.9798 -68.9581 56.7798 -69.2781 56.6798L-71.0781 56.1098C-71.5481 55.9598 -71.2481 56.0098 -69.5081 54.7198C-69.4281 54.5698 -71.9481 53.1198 -72.1781 53.8098L-73.2381 57.0598C-72.8381 57.0098 -75.7881 55.3398 -76.3281 55.7898C-78.5181 57.5798 -80.7381 62.7198 -81.4381 65.8498L-82.1981 63.6598C-82.3681 63.1698 -84.5481 62.6098 -84.7481 63.0798L-86.7381 67.8698L-89.8381 70.8798C-91.4381 72.4298 -86.1581 78.0898 -79.6781 78.4698L-67.5281 79.1698C-56.2481 79.8198 -45.4081 77.8398 -34.2681 75.2698C-27.5881 73.7298 -22.0781 70.6898 -16.3281 66.7798L1.8319 54.4198L0.241898 50.8198L-6.6381 56.2198L-6.1981 53.6998C-6.12811 53.2798 -7.1081 53.1198 -8.0081 52.8498C-8.4781 52.7098 -8.6381 52.3698 -8.4181 54.2898C-7.8681 54.3598 -9.7681 55.8698 -10.2781 55.5698L-13.0781 53.9298L-15.3881 55.8098C-15.9181 56.2398 -17.2381 55.8098 -18.5381 55.5998L-22.4081 60.9398L-23.8081 58.7798C-24.1881 58.1898 -26.0981 58.8198 -26.4181 59.4398C-26.7381 60.0598 -26.4881 60.7998 -25.8881 63.1598L-26.6481 64.0598L-29.6681 61.1698C-30.4681 60.3998 -33.1781 62.4098 -33.7981 63.2198L-36.4181 61.2898C-36.9681 60.8798 -38.4481 62.4998 -39.1281 62.5898L-45.2581 63.3798C-46.1581 63.4998 -47.8881 63.6798 -48.1381 64.3098L-49.1781 66.8898C-50.2881 65.0898 -52.3381 63.0298 -54.3581 61.7598L-61.1481 57.4698C-57.8581 53.3898 -54.3181 50.5098 -50.0881 49.1498L-38.9481 45.5798L-25.3681 41.0298L7.1819 30.6598L41.7219 19.8398L40.8719 8.7598C39.3919 6.2198 33.6619 5.4298 30.2519 5.9698C29.4719 5.8998 29.2219 2.5198 29.8919 1.7898C30.5619 1.0598 31.6219 0.649805 33.3619 0.0498047L39.7019 0.749805L38.5419 4.7798C38.8319 3.7698 45.9619 5.52981 46.4219 15.0998L50.0719 17.7798L73.6519 11.7698L81.5719 11.2098C86.7619 10.8398 91.4419 11.0598 97.3719 11.6598L101.812 21.6398L98.6319 25.2898C99.2819 25.7098 100.442 26.2598 100.612 26.6798L101.482 28.7898C97.6919 28.5998 96.0819 30.6298 95.2219 33.4498C93.9819 33.0898 91.2819 31.9798 90.8019 32.8298C90.2319 33.8398 89.8719 36.5398 89.7219 38.0398C86.5819 37.9198 83.6819 39.2898 82.4119 42.1698L78.5819 46.1298L73.5419 45.6498C71.1119 47.2998 68.8919 47.8998 66.3519 47.6498L66.7119 50.5598C66.7919 51.1798 65.4819 51.5898 64.3319 51.9998L65.2619 46.7298L58.8919 50.9698C58.5419 51.2098 58.5519 53.6798 58.1319 53.7598L55.8119 54.2198C50.8919 60.9498 44.0619 56.5898 40.1919 64.2298C38.2719 64.3098 37.9419 63.8198 39.9719 62.7298C35.8019 61.5598 30.2119 63.8998 27.3319 67.4398L22.4819 69.0298C21.6719 69.2898 18.8219 67.4698 18.6219 68.2898L17.6919 72.0298L15.6219 71.2598C15.0819 71.0598 14.0019 71.8198 13.3119 72.1698L10.0819 73.0098C7.8019 75.8898 6.2319 77.5098 3.4919 79.6398C3.0219 81.0398 2.5419 81.6098 2.5719 80.0098L1.7719 78.1398C1.5519 77.6398 0.881897 77.0698 0.451897 76.7298C0.0218964 76.3898 -1.0681 78.4198 -1.2281 78.9498L-1.8481 80.9998C-1.9881 81.4598 -3.1081 80.5198 -3.2481 80.0598L-4.0981 77.2698C-4.2981 76.6298 -6.84811 77.8698 -6.5481 78.4798L-5.1181 81.3898L-8.8481 81.5898C-9.7081 81.6398 -10.2781 83.0298 -11.0181 84.2798C-19.2081 78.8198 -22.2681 90.0198 -31.9981 89.0598L-35.5181 89.4998C-35.6481 95.6998 -39.8481 99.0398 -46.2481 101.3C-44.8181 103.52 -42.2581 103.47 -39.6681 102.84L-23.3581 98.9198L-12.4181 95.5098L-0.0581055 92.4398L6.8819 90.6698L27.6119 85.0898L36.3019 82.2898L44.6019 79.8598L84.9119 68.8598L93.0619 68.7898L93.7319 77.3598C91.9719 77.5798 90.6519 77.5798 90.5319 78.2198L89.7019 82.7798C88.3519 82.2698 86.7619 81.6598 85.5419 81.5298C83.7119 81.3298 81.8519 84.2398 81.4819 86.2498C81.1619 87.5698 77.9519 87.4798 75.6719 87.1298L71.2219 93.6998C71.7619 94.9298 71.4519 94.2698 70.5719 92.3198C69.1419 91.8698 66.3319 92.8798 64.4119 94.1898L62.2719 95.6498C61.7619 95.9998 60.9019 94.9298 59.6019 93.7698C56.9719 95.1698 54.6019 98.6698 53.5919 101.6C49.9919 101.09 46.0219 102.67 43.5619 105.8C42.5619 105.51 40.4519 104.98 40.0619 105.65L38.2519 108.76C37.6819 108.76 35.6219 108.28 35.0619 108.86L32.5919 111.43L26.3619 113.23C21.6819 110.78 21.9519 117.56 16.6419 119.6C9.8819 119.44 7.4819 123.26 3.19189 123.6C-0.418106 129.2 -8.0081 127.11 -5.6481 134.74C-5.5381 135.1 -4.1381 134.46 -4.1481 134.09L-4.1781 132.57L1.2319 134.11L2.4819 139.91C7.01189 146.18 2.7519 149.03 3.3519 149.57L5.5719 151.58L3.7319 156.09C1.62189 161.27 4.08189 165.67 8.1719 168.8L7.0219 170.81C6.8419 171.13 8.54189 172.09 8.7019 171.76L9.62189 169.86L18.0019 173.22L16.9719 174.92C16.6119 175.52 16.3319 176.48 16.8319 176.52C17.4219 176.56 19.2519 176.34 19.4619 175.91L20.7119 173.32C20.9419 172.85 22.3919 174.35 22.8319 174.65L24.7119 175.93C25.0819 176.18 25.4419 174.21 25.1119 173.91L23.2819 172.27L29.2719 174.51C43.6719 174.4 42.5819 182.75 43.1219 182.88L47.0819 183.8L44.6819 184.91C44.3119 185.08 45.4119 186.22 45.8219 186.25L48.4419 186.46L49.6419 190.71L46.0419 193.03L44.7219 194.02L38.6119 185.62L34.7619 185.37C33.9919 185.32 33.8119 183.26 33.7219 182.49C27.4519 183.68 24.0219 180.7 18.3019 181.61C15.9719 180.16 12.7519 179.29 9.9319 179.46L-0.0980988 174.46C-3.3681 171.39 -6.2181 164.94 -5.5481 161.03L-4.1781 153.05C-2.3681 150.48 -2.3681 148.41 -3.2781 145.43L-6.4181 140.02L-12.0281 140.34C-13.8281 140.44 -16.0481 141.51 -17.3481 142.78L-27.6881 134.65C-21.1181 127.88 -12.9381 124.48 -4.7081 120.46L28.6519 104.16L41.1719 97.7198C43.5219 96.5098 48.6719 96.5198 47.8619 92.0298L47.8519 91.9498ZM35.8619 45.6098C35.3119 45.3598 33.4019 44.8298 32.9819 45.2198L26.0419 51.6398C25.7719 51.8898 24.2219 52.7198 24.1719 52.7798C24.1319 52.8298 25.0119 53.8898 25.7819 54.8298L33.1019 51.0098C35.0219 50.0098 36.0319 49.7098 37.9519 48.8898L60.1619 39.4098L81.2019 28.2698C82.1319 27.7798 83.1219 25.4698 82.8219 24.4698C82.4819 23.3198 80.0519 22.2498 79.5219 23.1598C78.4619 24.9998 77.3619 26.8598 76.3719 27.6398C75.3819 28.4198 72.1619 27.0998 70.9819 26.9198L63.6019 27.8798C59.5719 33.7798 54.2319 30.6998 54.4819 31.6798L54.9319 33.4698L49.0919 35.6298C48.1819 35.9698 45.6919 35.3598 45.3319 36.1798L43.6519 40.0198L41.5319 36.7798L40.4019 42.8398C40.1119 42.7898 38.3619 42.4198 37.9019 43.0098L35.8819 45.5998L35.8619 45.6098ZM-47.0081 103.46L-48.0481 100.9L-47.8581 99.5298C-47.7981 99.0998 -49.3181 98.2998 -49.4281 98.7198L-50.0881 101.05L-56.5681 104.2C-52.6781 106.4 -46.4481 104.82 -47.0081 103.46Z" fill="#F7F2E9"/>
<path d="M11.7244 25.5234H7.98987" stroke="none" stroke-width="2" stroke-linecap="round"/>
</g>
<defs>
<clipPath id="clip0_755_246">
<rect width="204.62" height="193.94" fill="white" transform="translate(-102.828)"/>
</clipPath>
</defs>
</svg>
