<svg width="596" height="234" viewBox="0 0 596 234" fill="none" xmlns="http://www.w3.org/2000/svg">
<path d="M29.9559 79C27.6946 79 25.7106 78.6587 24.0039 77.976C22.3399 77.2507 21.0386 76.0773 20.0999 74.456C19.1613 72.792 18.6919 70.5307 18.6919 67.672V53.976H13.1879V46.744H18.6919L19.6519 37.976H27.3319V46.744H35.844V53.976H27.3319V67.8C27.3319 69.2507 27.6519 70.2533 28.292 70.808C28.9319 71.3627 30.0199 71.64 31.556 71.64H35.7799V79H29.9559ZM41.8354 79V32.92H50.4754V51.544C51.5421 49.88 52.9501 48.536 54.6994 47.512C56.4914 46.488 58.5608 45.976 60.9074 45.976C63.5954 45.976 65.8568 46.552 67.6915 47.704C69.5261 48.8133 70.9128 50.4347 71.8514 52.568C72.7901 54.7013 73.2595 57.3467 73.2595 60.504V79H64.6834V61.272C64.6834 58.712 64.1501 56.7493 63.0835 55.384C62.0168 53.976 60.3314 53.272 58.0274 53.272C56.6194 53.272 55.3394 53.6133 54.1874 54.296C53.0354 54.9787 52.1181 55.9813 51.4354 57.304C50.7954 58.584 50.4754 60.12 50.4754 61.912V79H41.8354ZM95.606 79.768C92.3633 79.768 89.4833 79.0853 86.966 77.72C84.4913 76.312 82.55 74.3707 81.142 71.896C79.7766 69.3787 79.094 66.4773 79.094 63.192C79.094 59.8213 79.7766 56.856 81.142 54.296C82.5073 51.6933 84.4273 49.6667 86.902 48.216C89.4193 46.7227 92.3206 45.976 95.606 45.976C98.806 45.976 101.601 46.68 103.99 48.088C106.379 49.496 108.235 51.3947 109.558 53.784C110.881 56.1733 111.542 58.8827 111.542 61.912C111.542 62.3387 111.542 62.8293 111.542 63.384C111.542 63.896 111.499 64.4293 111.414 64.984H85.238V59.736H102.838C102.71 57.6453 101.963 56.0027 100.598 54.808C99.2753 53.6133 97.6113 53.016 95.606 53.016C94.1553 53.016 92.8113 53.3573 91.574 54.04C90.3366 54.68 89.3553 55.6827 88.63 57.048C87.9473 58.4133 87.606 60.1413 87.606 62.232V64.088C87.606 65.8373 87.926 67.3733 88.566 68.696C89.2486 69.976 90.1873 70.9787 91.382 71.704C92.5766 72.3867 93.9633 72.728 95.542 72.728C97.1206 72.728 98.422 72.3867 99.446 71.704C100.513 71.0213 101.302 70.1467 101.814 69.08H110.646C110.049 71.0853 109.046 72.8987 107.638 74.52C106.23 76.1413 104.502 77.4213 102.454 78.36C100.406 79.2987 98.1233 79.768 95.606 79.768ZM146.736 79.768C143.494 79.768 140.614 79.0427 138.096 77.592C135.579 76.1413 133.616 74.1573 132.208 71.64C130.8 69.1227 130.096 66.2427 130.096 63C130.096 59.672 130.8 56.7493 132.208 54.232C133.616 51.672 135.579 49.6667 138.096 48.216C140.614 46.7227 143.494 45.976 146.736 45.976C150.875 45.976 154.352 47.064 157.168 49.24C159.984 51.416 161.776 54.4027 162.544 58.2H153.392C153.008 56.7067 152.198 55.5333 150.96 54.68C149.766 53.8267 148.336 53.4 146.672 53.4C145.179 53.4 143.835 53.784 142.64 54.552C141.488 55.2773 140.571 56.3653 139.888 57.816C139.248 59.224 138.928 60.9093 138.928 62.872C138.928 64.3653 139.12 65.7093 139.504 66.904C139.888 68.056 140.422 69.0587 141.104 69.912C141.787 70.7227 142.598 71.3413 143.536 71.768C144.518 72.1947 145.563 72.408 146.672 72.408C147.782 72.408 148.784 72.216 149.68 71.832C150.619 71.448 151.408 70.9147 152.048 70.232C152.688 69.5067 153.136 68.632 153.392 67.608H162.544C161.776 71.32 159.963 74.2853 157.104 76.504C154.288 78.68 150.832 79.768 146.736 79.768ZM168.715 79V46.744H176.395L177.227 52.696C177.995 51.288 178.955 50.0933 180.107 49.112C181.302 48.1307 182.646 47.3627 184.139 46.808C185.675 46.2533 187.361 45.976 189.195 45.976V55.128H186.251C184.971 55.128 183.777 55.2773 182.667 55.576C181.601 55.8747 180.662 56.3653 179.851 57.048C179.041 57.688 178.422 58.584 177.995 59.736C177.569 60.888 177.355 62.3387 177.355 64.088V79H168.715ZM208.611 79.768C205.368 79.768 202.488 79.0853 199.971 77.72C197.496 76.312 195.555 74.3707 194.147 71.896C192.782 69.3787 192.099 66.4773 192.099 63.192C192.099 59.8213 192.782 56.856 194.147 54.296C195.512 51.6933 197.432 49.6667 199.907 48.216C202.424 46.7227 205.326 45.976 208.611 45.976C211.811 45.976 214.606 46.68 216.995 48.088C219.384 49.496 221.24 51.3947 222.563 53.784C223.886 56.1733 224.547 58.8827 224.547 61.912C224.547 62.3387 224.547 62.8293 224.547 63.384C224.547 63.896 224.504 64.4293 224.419 64.984H198.243V59.736H215.843C215.715 57.6453 214.968 56.0027 213.603 54.808C212.28 53.6133 210.616 53.016 208.611 53.016C207.16 53.016 205.816 53.3573 204.579 54.04C203.342 54.68 202.36 55.6827 201.635 57.048C200.952 58.4133 200.611 60.1413 200.611 62.232V64.088C200.611 65.8373 200.931 67.3733 201.571 68.696C202.254 69.976 203.192 70.9787 204.387 71.704C205.582 72.3867 206.968 72.728 208.547 72.728C210.126 72.728 211.427 72.3867 212.451 71.704C213.518 71.0213 214.307 70.1467 214.819 69.08H223.651C223.054 71.0853 222.051 72.8987 220.643 74.52C219.235 76.1413 217.507 77.4213 215.459 78.36C213.411 79.2987 211.128 79.768 208.611 79.768ZM241.223 79.768C238.535 79.768 236.316 79.3413 234.567 78.488C232.818 77.592 231.516 76.4187 230.663 74.968C229.852 73.4747 229.447 71.832 229.447 70.04C229.447 68.0773 229.938 66.3493 230.919 64.856C231.943 63.3627 233.458 62.1893 235.463 61.336C237.511 60.4827 240.071 60.056 243.143 60.056H251.143C251.143 58.4773 250.93 57.176 250.503 56.152C250.076 55.0853 249.415 54.296 248.519 53.784C247.623 53.272 246.428 53.016 244.935 53.016C243.314 53.016 241.927 53.3787 240.775 54.104C239.666 54.7867 238.983 55.8533 238.727 57.304H230.343C230.556 55 231.303 53.016 232.583 51.352C233.906 49.6453 235.634 48.3227 237.767 47.384C239.943 46.4453 242.354 45.976 244.999 45.976C248.028 45.976 250.652 46.488 252.871 47.512C255.09 48.536 256.796 50.008 257.991 51.928C259.186 53.848 259.783 56.216 259.783 59.032V79H252.487L251.527 74.072C251.058 74.9253 250.503 75.6933 249.863 76.376C249.223 77.0587 248.476 77.656 247.623 78.168C246.77 78.68 245.81 79.064 244.743 79.32C243.676 79.6187 242.503 79.768 241.223 79.768ZM243.271 73.112C244.38 73.112 245.362 72.92 246.215 72.536C247.111 72.1093 247.879 71.5547 248.519 70.872C249.159 70.1467 249.65 69.336 249.991 68.44C250.375 67.5013 250.631 66.4987 250.759 65.432V65.368H244.167C242.844 65.368 241.756 65.5387 240.903 65.88C240.092 66.1787 239.495 66.6267 239.111 67.224C238.727 67.8213 238.535 68.504 238.535 69.272C238.535 70.1253 238.727 70.8293 239.111 71.384C239.495 71.9387 240.05 72.3653 240.775 72.664C241.5 72.9627 242.332 73.112 243.271 73.112ZM280.716 79C278.455 79 276.471 78.6587 274.764 77.976C273.1 77.2507 271.799 76.0773 270.86 74.456C269.921 72.792 269.452 70.5307 269.452 67.672V53.976H263.948V46.744H269.452L270.412 37.976H278.092V46.744H286.604V53.976H278.092V67.8C278.092 69.2507 278.412 70.2533 279.052 70.808C279.692 71.3627 280.78 71.64 282.316 71.64H286.54V79H280.716ZM292.787 79V46.744H301.427V79H292.787ZM297.139 42.328C295.603 42.328 294.323 41.88 293.299 40.984C292.318 40.0453 291.827 38.872 291.827 37.464C291.827 36.056 292.318 34.904 293.299 34.008C294.323 33.0693 295.603 32.6 297.139 32.6C298.718 32.6 299.998 33.0693 300.979 34.008C302.003 34.904 302.515 36.056 302.515 37.464C302.515 38.872 302.003 40.0453 300.979 40.984C299.998 41.88 298.718 42.328 297.139 42.328ZM317.518 79L305.678 46.744H314.766L322.766 70.872L330.766 46.744H339.79L328.014 79H317.518ZM357.773 79.768C354.531 79.768 351.651 79.0853 349.133 77.72C346.659 76.312 344.717 74.3707 343.309 71.896C341.944 69.3787 341.261 66.4773 341.261 63.192C341.261 59.8213 341.944 56.856 343.309 54.296C344.675 51.6933 346.595 49.6667 349.069 48.216C351.587 46.7227 354.488 45.976 357.773 45.976C360.973 45.976 363.768 46.68 366.157 48.088C368.547 49.496 370.403 51.3947 371.725 53.784C373.048 56.1733 373.709 58.8827 373.709 61.912C373.709 62.3387 373.709 62.8293 373.709 63.384C373.709 63.896 373.667 64.4293 373.581 64.984H347.405V59.736H365.005C364.877 57.6453 364.131 56.0027 362.765 54.808C361.443 53.6133 359.779 53.016 357.773 53.016C356.323 53.016 354.979 53.3573 353.741 54.04C352.504 54.68 351.523 55.6827 350.797 57.048C350.115 58.4133 349.773 60.1413 349.773 62.232V64.088C349.773 65.8373 350.093 67.3733 350.733 68.696C351.416 69.976 352.355 70.9787 353.549 71.704C354.744 72.3867 356.131 72.728 357.709 72.728C359.288 72.728 360.589 72.3867 361.613 71.704C362.68 71.0213 363.469 70.1467 363.981 69.08H372.813C372.216 71.0853 371.213 72.8987 369.805 74.52C368.397 76.1413 366.669 77.4213 364.621 78.36C362.573 79.2987 360.291 79.768 357.773 79.768ZM407.816 79C405.555 79 403.571 78.6587 401.864 77.976C400.2 77.2507 398.899 76.0773 397.96 74.456C397.021 72.792 396.552 70.5307 396.552 67.672V53.976H391.048V46.744H396.552L397.512 37.976H405.192V46.744H413.704V53.976H405.192V67.8C405.192 69.2507 405.512 70.2533 406.152 70.808C406.792 71.3627 407.88 71.64 409.416 71.64H413.64V79H407.816ZM434.115 79.768C431.043 79.768 428.27 79.064 425.795 77.656C423.363 76.2053 421.422 74.2213 419.971 71.704C418.563 69.144 417.859 66.2213 417.859 62.936C417.859 59.5653 418.563 56.6213 419.971 54.104C421.422 51.544 423.384 49.56 425.859 48.152C428.334 46.7013 431.107 45.976 434.179 45.976C437.294 45.976 440.067 46.7013 442.499 48.152C444.974 49.56 446.915 51.544 448.323 54.104C449.774 56.6213 450.499 59.544 450.499 62.872C450.499 66.2 449.774 69.144 448.323 71.704C446.915 74.2213 444.974 76.2053 442.499 77.656C440.024 79.064 437.23 79.768 434.115 79.768ZM434.115 72.28C435.566 72.28 436.846 71.9387 437.955 71.256C439.107 70.5733 440.003 69.528 440.643 68.12C441.326 66.712 441.667 64.9627 441.667 62.872C441.667 60.7813 441.326 59.0533 440.643 57.688C440.003 56.28 439.107 55.2347 437.955 54.552C436.846 53.8267 435.587 53.464 434.179 53.464C432.814 53.464 431.555 53.8267 430.403 54.552C429.251 55.2347 428.334 56.28 427.651 57.688C427.011 59.0533 426.691 60.7813 426.691 62.872C426.691 64.9627 427.011 66.712 427.651 68.12C428.334 69.528 429.23 70.5733 430.339 71.256C431.491 71.9387 432.75 72.28 434.115 72.28ZM471.897 79.768C468.825 79.768 466.052 79.064 463.577 77.656C461.145 76.2053 459.204 74.2213 457.753 71.704C456.345 69.144 455.641 66.2213 455.641 62.936C455.641 59.5653 456.345 56.6213 457.753 54.104C459.204 51.544 461.167 49.56 463.641 48.152C466.116 46.7013 468.889 45.976 471.961 45.976C475.076 45.976 477.849 46.7013 480.281 48.152C482.756 49.56 484.697 51.544 486.105 54.104C487.556 56.6213 488.281 59.544 488.281 62.872C488.281 66.2 487.556 69.144 486.105 71.704C484.697 74.2213 482.756 76.2053 480.281 77.656C477.807 79.064 475.012 79.768 471.897 79.768ZM471.897 72.28C473.348 72.28 474.628 71.9387 475.737 71.256C476.889 70.5733 477.785 69.528 478.425 68.12C479.108 66.712 479.449 64.9627 479.449 62.872C479.449 60.7813 479.108 59.0533 478.425 57.688C477.785 56.28 476.889 55.2347 475.737 54.552C474.628 53.8267 473.369 53.464 471.961 53.464C470.596 53.464 469.337 53.8267 468.185 54.552C467.033 55.2347 466.116 56.28 465.433 57.688C464.793 59.0533 464.473 60.7813 464.473 62.872C464.473 64.9627 464.793 66.712 465.433 68.12C466.116 69.528 467.012 70.5733 468.121 71.256C469.273 71.9387 470.532 72.28 471.897 72.28ZM494.448 79V32.92H503.088V79H494.448ZM531.35 79L517.59 61.336L529.942 46.744H540.118L524.182 64.984V58.136L542.102 79H531.35ZM510.23 79V32.92H518.87V79H510.23ZM546.142 79V46.744H554.782V79H546.142ZM550.494 42.328C548.958 42.328 547.678 41.88 546.654 40.984C545.673 40.0453 545.182 38.872 545.182 37.464C545.182 36.056 545.673 34.904 546.654 34.008C547.678 33.0693 548.958 32.6 550.494 32.6C552.073 32.6 553.353 33.0693 554.334 34.008C555.358 34.904 555.87 36.056 555.87 37.464C555.87 38.872 555.358 40.0453 554.334 40.984C553.353 41.88 552.073 42.328 550.494 42.328ZM576.761 79C574.5 79 572.516 78.6587 570.809 77.976C569.145 77.2507 567.844 76.0773 566.905 74.456C565.966 72.792 565.497 70.5307 565.497 67.672V53.976H559.993V46.744H565.497L566.457 37.976H574.137V46.744H582.649V53.976H574.137V67.8C574.137 69.2507 574.457 70.2533 575.097 70.808C575.737 71.3627 576.825 71.64 578.361 71.64H582.585V79H576.761Z" fill="#F7F2E9"/>
<path d="M22.0282 98.5618C32.2185 97.9193 45.2505 97.2468 56.0934 96.7411C57.4012 96.6806 58.708 96.6207 59.9978 96.5624C63.61 96.3988 61.7642 96.719 64.2507 96.6161C69.1231 96.4139 73.5718 96.0503 78.4132 95.8691C79.9792 95.8123 78.0486 96.2602 79.6952 96.1927C88.8098 95.8161 97.4307 95.2431 106.668 94.81C152.21 92.6833 196.907 90.7686 243.035 89.8184C258.239 89.5038 276.736 89.5205 292.439 89.3404C294.278 89.3185 293.18 89.0273 293.53 89.0019C298.494 88.6532 297.463 89.1142 299.875 89.2611C300.128 89.2765 300.418 89.2886 300.756 89.2964C314.961 89.6148 330.697 89.8478 344.362 90.0718C350.158 90.1688 344.342 89.4323 350.197 89.9167C350.603 89.9501 349.118 90.2224 350.713 90.2998C354.312 90.4715 361.176 90.6334 363.959 90.7581C369.369 90.9994 370.234 91.0298 375.344 91.2389C382.323 91.5303 390.565 92.0698 398.058 92.3971C399.648 92.4656 397.545 92.0317 400.107 92.1145C402.669 92.195 409.405 92.6079 411.653 92.8221C413.909 93.0343 412.939 93.2286 413.336 93.3105C416.624 93.9953 424.454 93.83 425.432 93.8828C443.722 94.8376 459.366 96.507 476.435 98.107C485.538 98.9621 495.071 99.8655 504.156 100.812C508.107 101.223 511.945 101.639 515.625 102.06C523.022 102.908 529.729 103.755 536.466 104.642C539.819 105.084 543.21 105.542 546.57 105.999C548.285 106.232 549.987 106.465 551.716 106.699C552.551 106.812 553.463 106.934 554.312 107.044C554.543 107.073 554.746 107.099 554.957 107.125C555.199 107.155 555.392 107.179 555.609 107.204C555.848 107.231 556.022 107.251 556.244 107.271C556.331 107.279 556.442 107.288 556.504 107.29C556.523 107.292 556.58 107.289 556.49 107.293C556.465 107.295 556.43 107.297 556.369 107.307C556.32 107.317 556.363 107.303 556.199 107.346C556.089 107.383 555.924 107.423 555.656 107.632C555.396 107.812 555.008 108.399 555.07 108.978C555.121 109.543 555.366 109.807 555.489 109.949C555.58 110.044 555.582 110.04 555.622 110.076C555.685 110.13 555.733 110.163 555.772 110.188C555.849 110.238 555.89 110.257 555.917 110.27C556.014 110.314 555.931 110.279 555.894 110.27C555.834 110.253 555.811 110.25 555.769 110.241C555.693 110.226 555.624 110.218 555.576 110.219C555.492 110.225 555.482 110.263 555.477 110.304C555.458 110.385 555.535 110.499 555.063 110.407C554.952 110.387 554.8 110.352 554.571 110.292C535.713 105.724 516.328 102.853 497.017 100.122C495.094 99.8565 497.622 99.837 495.696 99.552C491.612 98.9522 486.705 98.2389 481.723 97.6171C472.268 96.428 462.51 95.6001 457.782 96.1565C449.698 95.414 439.871 94.6588 432.64 93.9365C427.971 93.4733 432.518 93.3733 426.783 93.2037C425.483 93.1669 427.156 93.5743 425.204 93.4963C417 93.17 408.085 92.6921 399.974 92.607C398.327 92.5906 398.767 92.8878 398.298 92.9248C394.361 93.2167 387.855 92.392 386.426 92.3194C375.567 91.7544 367.663 91.8633 357.553 91.9196C355.207 91.9357 357.985 92.2935 355.725 92.324C344.022 92.4811 331.902 92.7555 320.453 93.065C317.908 93.1338 320.234 92.7111 319.016 92.7279C313.627 92.8148 312.486 93.4839 307.33 93.6246C306.246 93.6563 306.841 93.3463 306.641 93.3266C304.856 93.15 303.219 93.3498 301.995 93.5652C301.088 93.7256 300.411 93.8946 300.071 93.9218C290.019 94.752 283.532 94.5275 273.822 95.4367C272.661 95.5478 275.311 95.6749 272.046 95.967C250.294 97.9233 227.32 100.384 205.833 102.86C202.486 103.246 204.837 102.678 204.623 102.673C201.139 102.61 199.013 103.578 197.927 103.747C189.375 105.064 181.29 105.618 175.595 107.253C152.229 110.415 128.995 114.242 105.902 118.105C93.0525 120.272 80.2629 122.343 67.5675 124.681C67.1269 124.766 67.8674 124.266 66.9491 124.445C64.27 124.977 62.1346 125.441 61.1685 125.902C61.1735 125.895 61.2193 125.882 61.2828 125.752C61.3681 125.633 61.2833 125.296 61.2158 125.257C61.0657 125.098 61.0328 125.136 61.0532 125.13C61.0825 125.134 61.1372 125.14 61.217 125.143C61.4095 125.151 61.4925 125.144 61.6649 125.138C62.0158 125.123 62.2174 125.099 62.5299 125.068C63.0214 125.01 63.5699 124.93 63.9497 124.853C65.6838 124.522 66.9564 124.11 70.5442 123.38C71.2738 123.234 72.4574 123.17 73.8382 123.121C75.9153 123.06 78.2203 123.074 78.5409 123.068C80.3759 123.042 78.5802 123.775 79.1849 123.738C84.2253 123.405 83.156 121.882 89.8871 120.987C90.0974 120.962 89.2562 121.38 89.823 121.335C91.6235 121.191 93.285 120.847 95.0578 120.715C98.9769 120.433 100.536 121.031 106.451 119.769C107.221 119.605 105.895 118.837 111.931 118.076C114.32 117.774 124.939 116.354 127.897 116.033C130.893 115.703 128.88 116.269 129.094 116.255C137.132 115.614 134.13 116.17 138.208 116.241C142.307 116.31 140.993 115.065 142.613 114.701C144.246 114.336 150.151 113.926 151.596 113.863C153.047 113.798 151.277 114.211 152.564 114.117C161.12 113.488 156.205 112.967 158.983 112.402C165.518 111.076 170.803 111.497 176.856 110.899C178.502 110.737 177.135 110.656 178.587 110.467C184.354 109.722 187.856 109.654 194.4 108.644C195.464 108.479 200.721 107.287 204.205 107.389C204.7 107.404 203.34 107.805 205.812 107.608C209.497 107.314 216.138 106.709 220.088 106.247C223.005 105.905 219.613 105.797 223.307 105.582C224.782 105.497 222.504 105.918 224.259 105.861C224.457 105.855 224.708 105.843 225.022 105.823C228.086 105.624 235.898 104.919 238.875 104.662C241.844 104.402 240.191 104.217 240.43 104.175C241.869 103.925 247.563 103.304 248.065 103.267C273.49 101.204 297.002 100.347 321.794 99.1221C323.735 99.0278 322.427 98.7403 322.723 98.7224C329.39 98.3102 324.172 99.427 328.829 99.5498C328.128 98.8839 330.891 98.8991 335.579 98.6603C337.844 98.5454 336.601 98.3197 336.807 98.2851C340.14 97.7642 342.508 98.2191 343.109 98.3083C345.331 98.6363 347.755 98.099 349.267 98.3227C350.784 98.5448 347.316 99.0269 351.821 98.9024C353.08 98.6217 349.712 98.0599 353.136 97.8669C366.032 97.1012 390.142 97.3547 400.515 97.4897C400.641 97.4908 400.767 97.4919 400.891 97.493C410.975 97.5924 414.298 97.6128 420.26 97.8079C431.159 98.2066 427.17 97.6398 433.952 97.618C440.75 97.6258 437.406 98.7008 438.372 98.9877C439.311 99.2764 440.374 99.0545 441.56 99.2416C442.738 99.4288 440.171 99.4982 442.949 99.6634C445.743 99.8216 453.389 99.7451 454.388 99.5404C456.502 99.0957 453.111 98.2984 460.485 98.9427C460.908 98.9811 459.512 99.207 461.135 99.3385C474.038 100.374 487.431 101.552 500.243 103.245C502.002 103.479 500.387 103.64 501.408 103.78C512.07 105.287 508.315 104.255 514.257 104.376C513.397 104.784 514.202 105.288 516.709 105.871C518.397 106.263 520.837 106.691 524.076 107.171C528.93 107.898 528.154 107.404 531.328 107.629C532.288 107.696 535.679 108.503 536.323 108.431C538.472 108.203 535.337 107.001 543.62 108.675C543.981 108.75 542.769 108.862 544.022 109.098C552.138 110.657 553.22 110.231 562.006 111.878C568.69 113.138 580.314 115.97 588.012 118.123C588.255 118.191 588.49 118.256 588.715 118.319C588.499 118.772 590.234 119.395 592.387 120.098C592.911 120.274 593.491 120.465 594.047 120.705C594.201 120.775 594.301 120.817 594.472 120.915C594.616 121 594.757 121.082 594.905 121.247C594.96 121.308 595.064 121.46 595.077 121.63C595.095 121.804 595.021 121.98 594.921 122.096C594.78 122.27 594.572 122.378 594.451 122.443C593.257 122.968 592.231 123.134 591.487 123.392C586.252 123.794 580.645 123.797 575.682 123.726C573.924 123.694 575.079 123.413 574.858 123.383C571.567 122.903 569.264 123.535 568.18 123.553C564.861 123.594 561.881 123.573 558.8 123.525C550.694 123.398 543.118 123.096 534.695 123.31C534.29 123.32 533.577 123.982 530.535 123.44C530.333 123.403 534.158 123.159 528.715 123.046C523.298 122.933 513.046 122.412 505.518 122.627C503.708 122.678 499.09 123.167 495.375 122.699C494.878 122.636 495.423 122.448 494.709 122.333C492.433 121.966 491.162 122.634 488.45 122.029C485.778 121.425 480.122 120.939 472.53 121.297C472.292 121.307 470.462 121.837 468.093 121.819C464.275 121.788 458.852 121.663 454.876 121.667C452.97 121.669 454.19 122.004 453.859 122.01C441.022 122.207 431.906 121.955 418.159 121.997C415.633 122.003 408.411 122.568 403.526 122.303C398.163 122.019 403.636 120.241 391.329 120.922C386.36 121.204 380.145 123.457 371.192 122.688C369.702 122.764 368.222 122.835 366.75 122.902C351.134 123.623 336.41 123.943 320.593 125.273C319.815 125.338 317.399 126.074 315.559 126.185C312.835 126.348 311.348 126.174 309.392 126.287C301.261 126.753 293.842 127.527 286.002 128.098C283.049 128.314 284.038 127.954 280.496 128.219C276.975 128.485 274.615 129.048 269.803 129.271C266.168 129.44 262.473 128.996 257.657 129.334C257.53 130.096 254.242 130.368 248.382 131.106C247.265 131.247 248.49 131.395 247.963 131.476C245.806 131.809 243.753 131.785 241.729 132.123C241.236 132.204 241.229 132.462 240.821 132.544C237.357 133.248 231.555 133.237 230.58 133.234C226.727 133.232 225.044 133.735 222.101 133.882C219.203 134.026 223.489 133.403 220.121 133.654C213.117 134.177 204.069 135.175 196.972 135.939C194.171 136.242 196.119 136.372 195.719 136.423C189.863 137.15 183.898 137.456 180.696 138.501C180.287 138.376 179.927 138.28 179.603 138.21C176.445 137.573 176.396 139.122 168.758 139.685C168.095 139.734 167.136 139.009 169.697 138.589C172.17 138.181 176.003 137.999 179.514 137.418C179.539 137.414 179.564 137.409 179.589 137.405C180.374 137.271 185.088 135.957 185.73 135.838C190.778 134.903 191.682 136.054 191.938 136.094C195.067 136.487 200.844 135.017 202.345 134.798C209.351 133.779 215.341 133.331 221.211 132.544C225.058 132.031 225.339 131.187 228.372 130.911C238.454 130.001 242.041 130.8 251.439 128.952C253.472 128.558 251.336 127.853 258.709 127.899C259.156 127.903 264.654 128.064 267.718 127.4C268.105 127.316 268.071 127.059 268.587 126.994C272.074 126.559 274.364 126.576 278.162 126.17C281.921 125.768 286.459 125.265 290.803 125.026C293.391 124.882 296.79 125.117 298.039 125.146C301.568 125.231 305.321 124.411 307.522 124.675C309.751 124.939 305.488 125.855 311.282 125.735C311.45 125.049 311.893 124.328 312.191 123.631C324.833 122.821 337.3 122.323 349.997 121.694C351.573 121.616 349.944 121.33 351.634 121.237C356.85 120.954 361.594 120.882 366.668 120.72C368.514 120.662 370.405 120.592 372.377 120.496C378.096 120.217 384.359 119.647 390.342 119.4C394.013 120.073 402.893 119.614 409.336 119.581C411.601 119.568 411.452 119.777 413.06 119.819C419.112 119.979 416.274 119.341 417.934 119.211C425.056 118.667 425.682 120.197 434.09 120.095C434.53 120.089 439.973 119.237 440.723 119.184C445.476 118.831 441.505 119.465 444.488 119.515C449.943 119.61 453.708 119.801 460.104 119.571C461.955 119.502 466.45 119.003 470.036 119.416C470.514 119.47 470.249 119.74 470.634 119.758C477.569 120.059 477.764 119.212 481.713 118.952C485.688 118.693 491.796 119.342 493.036 119.525C496.269 119.998 490.55 119.687 490.361 119.729C488.278 120.22 492.745 120.175 496.152 120.257C496.65 121.098 501.389 121.104 499.682 120.34C499.491 120.256 496.843 120.303 496.152 120.257C499.167 119.471 504.368 119.428 510.17 120.275C512.845 120.673 510.324 121.052 518.528 121.022C522.287 121.011 520.802 120.412 524.127 120.308C531.678 120.069 541.4 120.774 549.187 120.813C551.973 120.826 549.265 120.469 551.168 120.466C553.87 120.464 556.378 120.544 558.838 120.61C561.183 120.672 563.482 120.723 565.887 120.687C566.362 120.68 565.209 120.34 566.832 120.351C572.858 120.38 578.49 120.452 584.166 120.389C586.978 120.342 589.936 120.309 592.499 119.977C592.831 119.928 593.112 119.873 593.282 119.826C593.35 119.813 593.424 119.763 593.231 119.87C593.175 119.904 593.096 119.955 592.997 120.042C592.943 120.089 592.903 120.125 592.823 120.213C592.738 120.308 592.646 120.428 592.561 120.579C592.152 121.18 592.262 122.334 592.55 122.722C592.754 123.066 592.88 123.145 592.942 123.202C592.987 123.238 592.998 123.242 592.983 123.232C592.948 123.209 592.863 123.161 592.734 123.101C592.628 123.051 592.495 122.992 592.337 122.928C592.201 122.873 592.053 122.816 591.887 122.755C590.604 122.288 589.136 121.872 587.642 121.464C587.485 121.421 587.322 121.377 587.153 121.332C581.276 119.742 571.033 117.648 565.036 116.398C554.369 114.131 541.223 111.323 531.988 109.993C525.962 109.125 527.235 109.666 524.622 109.498C522.288 109.355 519.172 108.845 516.371 108.325C513.14 107.723 510.329 107.103 509.706 106.958C509.665 106.945 514.869 107.554 512.123 107.02C510.556 106.458 509.764 106.964 509.706 106.958C508.932 106.762 498.569 105.432 496.496 105.288C495.368 105.199 495.963 105.579 495.375 105.527C481.461 104.295 467.51 103.28 453.362 102.385C453.114 102.366 453.507 102.037 452.922 101.995C444.71 101.416 439.464 101.646 432.68 101.685C425.898 101.73 420.541 101.542 416.545 100.877C411.819 100.867 405.204 100.584 400.879 100.41C400.529 100.395 400.193 100.381 399.875 100.368C395.654 100.196 395.061 100.881 394.693 100.894C383.095 101.341 376.411 101.02 364.387 101.176C358.672 101.247 347.335 101.632 341.153 101.911C336.267 102.127 333.322 102.072 328.811 102.344C328.204 102.381 328.829 102.66 328.644 102.679C323.643 103.236 326.022 102.404 324.979 102.312C321.194 101.985 318.862 101.822 312.43 102.345C310.954 102.465 306.668 103.738 303.977 103.939C300.464 104.199 301.767 103.748 298.096 104.037C297.781 104.061 297.861 104.292 295.585 104.407C285.042 104.942 273.535 105.533 262.593 106.35C261.097 106.461 263.042 106.694 260.881 106.861C250.75 107.645 239.649 108.538 229.775 109.257C227.345 109.433 228.842 109.034 228.308 109.005C227.145 108.943 225.824 109.043 224.57 109.202C222.291 109.492 220.239 109.978 219.752 110.033C201.745 112.106 187.878 113.002 169.544 115.457C168.552 115.59 160.95 117.238 157.437 117.038C157.21 117.024 153.707 116.806 150.784 117.613C150.595 117.665 152.766 117.727 149.054 118.156C145.378 118.582 139.436 119.558 134.335 119.85C132.704 119.946 128.831 119.8 124.111 120.936C123.786 121.013 116.6 123.128 113.817 122.695C113.37 122.622 113.719 121.723 108.061 122.916C106.989 123.144 109.004 123.064 106.115 123.569C101.74 124.338 95.8599 124.902 90.4839 125.998C89.5809 126.185 85.5787 127.296 82.3186 127.282C81.7933 127.282 82.7275 126.877 80.9978 127.069C78.8743 127.303 76.5754 127.58 74.4146 127.838C71.3827 128.199 68.2235 128.584 65.1427 128.857C64.7133 128.895 64.3131 128.927 63.943 128.954C63.5049 128.985 63.125 129.009 62.6984 129.029C62.4652 129.04 62.2475 129.047 62.0418 129.051C61.8331 129.056 61.5225 129.058 61.277 129.049C61.1864 129.046 60.9233 129.034 60.7017 129.008C60.5829 128.994 60.4542 128.976 60.2977 128.944C60.0374 128.846 59.5623 128.943 58.4777 128.007C58.3449 127.878 58.206 127.723 58.0721 127.535C57.9344 127.334 57.8264 127.177 57.6682 126.784C57.3806 126.077 57.3889 125.182 57.5866 124.577C58.0156 123.343 58.5557 123.052 58.8373 122.802C59.1571 122.569 59.2682 122.521 59.4311 122.434C59.5796 122.358 59.7058 122.303 59.8263 122.254C59.9389 122.208 59.9795 122.193 60.0544 122.165C62.1186 121.489 63.3649 121.301 64.9797 120.963C67.9293 120.399 66.5101 121.163 69.5532 120.667C72.655 120.162 78.6916 119.146 81.8331 118.364C85.0204 117.572 81.3361 117.501 86.128 116.578C92.3914 115.375 98.745 114.258 105.064 113.198C119.259 110.82 133.533 108.702 147.842 106.529C150.904 106.065 148.361 106.193 152.842 105.501C169.483 102.893 198.265 98.6509 212.844 97.4462C224.513 96.46 209.931 98.5825 218.836 97.678C223.126 97.2446 227.678 95.8679 228.705 95.7236C238.794 94.2968 245.876 93.9208 254.989 92.9064C256.871 92.6987 254.99 92.5384 256.592 92.366C262.068 91.7752 267.847 91.4038 273.088 90.9332C275.438 90.7224 274.986 90.4979 277.153 90.3409C282.338 89.9657 286.93 89.731 292.01 89.6277C292.472 89.6186 289.389 90.155 293.225 89.9054C295.842 89.7369 298.755 89.5984 301.752 89.4547C305.874 89.2564 310.186 89.0468 314.305 88.7084C316.416 88.536 316.493 87.9286 321.064 88.1509C322.02 88.2003 320.833 88.9565 326.128 88.1398C327.002 87.9978 335.935 86.8716 340.33 87.3207C341.478 87.4356 344.469 87.9584 347.007 87.8243C347.353 87.8039 345.962 87.5058 348.075 87.4401C355.536 87.2164 363.364 87.2062 371.033 87.1439C373.075 87.1276 370.035 86.778 373.08 86.7662C381.48 86.7322 391.968 87.0169 400.167 87.381C403.181 87.515 401.088 87.724 401.307 87.7607C404.83 88.3608 406.948 87.7848 408.114 87.7903C415.428 87.8423 420.985 88.4161 427.715 88.7058C429.568 88.788 428.273 88.4017 428.643 88.3945C432.482 88.3415 429.603 88.7385 432.029 88.9432C438.813 89.5216 446.385 90.0202 453.25 90.5263C455.76 90.7117 452.973 90.1238 455.219 90.2953C464.16 90.9785 473.309 91.8394 482.237 92.8709C486.743 93.391 491.189 93.9523 495.529 94.5521C497.975 94.8925 496.398 94.9798 496.9 95.1062C500.381 95.9849 505.564 96.0604 506.793 96.1725C512.222 96.6522 514.275 97.2023 519.039 97.8806C530.735 99.5951 543.653 101.708 556.541 105.017C556.79 105.086 556.93 105.125 557.218 105.211C557.35 105.252 557.438 105.277 557.659 105.354C557.709 105.371 557.761 105.39 557.818 105.412C557.88 105.436 557.913 105.446 558.107 105.533C558.289 105.63 558.483 105.669 559.052 106.143C559.088 106.175 559.126 106.209 559.166 106.248C559.186 106.267 559.207 106.287 559.227 106.308C559.281 106.361 559.362 106.448 559.436 106.537C559.722 106.892 560.21 107.538 560.281 108.703C560.374 109.878 559.663 111.094 559.096 111.554C558.519 112.061 558.113 112.196 557.832 112.302C557.692 112.35 557.564 112.384 557.482 112.403C557.457 112.41 557.432 112.415 557.409 112.42C557.362 112.43 557.318 112.439 557.278 112.446C557.198 112.461 557.129 112.47 557.068 112.478C556.618 112.529 556.413 112.505 556.348 112.506C556.25 112.503 556.162 112.497 556.074 112.491C555.88 112.477 555.815 112.47 555.678 112.457C555.39 112.428 555.249 112.412 555.001 112.382C554.154 112.281 553.392 112.177 552.56 112.066C550.989 111.853 549.383 111.631 547.835 111.419C544.717 110.992 541.611 110.574 538.567 110.173C532.5 109.374 526.615 108.635 521.183 107.978C515.1 107.242 509.248 106.557 503.607 105.915C482.971 103.57 464.684 101.696 443.216 100.087C441.496 99.959 443.203 100.463 441.718 100.358C422.419 98.9767 403.366 97.668 383.998 96.8911C382.416 96.8275 384.683 97.2827 382.139 97.1933C376.877 97.0106 370.269 96.7266 364.979 96.4278C362.386 96.2824 365.879 96.1019 363.266 95.9623C357.246 95.6403 350.718 95.4215 344.515 95.3267C341.867 95.2876 345.855 95.7439 342.41 95.666C328.138 95.3548 314.086 95.2192 299.873 95.1302C290.736 95.0733 281.547 95.0342 272.25 94.9687C270.627 94.9575 269.19 94.2423 265.732 94.4353C265.475 94.6427 265.493 94.8818 265.383 95.1009C231.241 95.753 197.445 96.6739 163.202 98.1644C161.752 98.2279 164.273 98.5033 161.47 98.6284C145.302 99.354 129.639 100.246 113.041 100.751C111.404 100.801 112.229 100.071 107.367 100.439C106.537 100.503 99.2098 100.998 97.384 101.249C97.1233 101.286 98.4938 101.529 96.1184 101.671C83.0993 102.446 69.5379 103.177 56.5027 103.763C55.8378 103.794 55.1827 103.823 54.5373 103.851C52.3404 103.947 54.652 103.472 53.0967 103.537C41.9808 104.001 29.9032 104.954 19.2924 105.208C12.1581 105.371 14.7691 104.648 10.9571 104.253C10.4203 104.202 6.00866 104.373 5.77538 104.034C5.17855 103.207 7.23973 102.213 6.36111 101.341C6.24392 101.246 4.75428 101.309 3.77223 101.27C3.54953 101.261 3.34207 101.241 3.27518 101.22C3.21215 101.199 3.22496 101.18 3.17946 101.147C3.14514 101.114 3.25366 101.105 3.2576 101.064C3.2662 101.027 3.46012 100.998 3.85414 100.941C3.99432 100.941 8.26389 100.635 9.27981 100.423C9.99436 100.28 8.65739 99.9984 10.1617 99.7894C11.6298 99.5811 13.2762 99.7885 15.7398 99.4968C18.2162 99.2007 17.0973 98.872 22.0282 98.5618ZM380.851 99.7096C376.942 99.4218 376.376 100.625 380.599 100.295C380.803 100.278 381.052 99.7238 380.851 99.7096ZM337.279 123.27C342.418 123.523 345.885 122.577 342.251 122.352C338.624 122.13 335.709 123.195 337.279 123.27ZM284.312 127.176C290.292 127.13 291.11 125.366 284.752 126.201C284.385 126.249 283.96 127.179 284.312 127.176ZM28.4636 103.171C28.3834 103.159 25.2669 103.316 25.1642 103.337C23.5003 103.809 29.8274 103.491 28.4636 103.171ZM231.848 132.232C233.726 132.277 239.058 131.498 236.724 131.436C234.844 131.385 229.508 132.175 231.848 132.232ZM177.087 111.46C177.022 111.45 174.76 111.696 174.818 111.791C175.007 112.095 178.145 111.64 177.087 111.46ZM142.866 142.325C156 140.498 164.111 141.053 149.829 142.661C147.24 142.967 155.344 141.499 152.023 141.799C146.013 142.442 141.991 143.432 136.139 144.786C135.615 144.954 136.965 144.107 138.722 143.508C140.478 142.892 142.527 142.377 142.889 142.32C142.881 142.322 142.873 142.324 142.866 142.325ZM378.586 98.2951C378.508 98.2794 375.358 98.3012 375.288 98.3185C373.591 98.7183 379.923 98.6742 378.586 98.2951ZM75.7388 122.727C75.8949 122.725 83.0598 121.427 83.3176 121.354C86.9523 120.048 72.4123 122.678 75.7388 122.727ZM588.828 118.377C590.541 118.662 592.382 119.022 594.207 119.813C594.314 119.861 594.458 119.931 594.573 119.993C594.691 120.056 594.802 120.119 594.952 120.218C595.098 120.319 595.193 120.379 595.398 120.582C595.489 120.677 595.573 120.777 595.661 120.926C595.775 121.117 595.874 121.39 595.864 121.699C595.858 122.006 595.732 122.299 595.583 122.493C595.407 122.715 595.342 122.748 595.225 122.838C595.12 122.912 595.007 122.974 594.915 123.017C594.843 123.051 594.771 123.081 594.698 123.108C594.374 123.224 594.176 123.259 593.918 123.307C593.001 123.454 592.197 123.442 591.504 123.391C592.336 123.313 593.246 123.232 594.178 122.983C594.277 122.955 594.431 122.907 594.564 122.855C594.697 122.8 594.819 122.753 595.015 122.622C595.108 122.555 595.176 122.506 595.291 122.374C595.411 122.234 595.521 122.028 595.549 121.794C595.579 121.56 595.521 121.33 595.437 121.165C595.344 120.99 595.294 120.938 595.216 120.849C594.664 120.314 594.228 120.19 593.828 119.998C592.146 119.301 590.482 118.851 588.828 118.377Z" fill="#F7F2E9"/>
<path d="M156.154 101.988C134.607 100.344 103.965 95.7348 88.7132 85.8345C80.8281 80.7073 80.2314 73.8343 84.9506 67.994C90.5536 61.0842 100.424 57.1709 109.92 52.4985C120.193 47.4637 129.875 42.5936 142.208 39.307C190.409 26.4603 236.176 24.8333 287.993 24.9027L261.349 22.4566C248.039 21.242 235.16 22.4337 221.593 19.516C265.515 18.87 367.007 26.9672 396.942 48.1984C406.411 54.9111 406.213 63.743 397.627 70.3202C381.636 82.5603 350.096 90.1063 325.28 94.2377C270.48 103.388 213.302 106.316 156.13 101.971L156.154 101.988ZM148.991 89.4425C202.433 100.888 271.887 100.174 324.8 90.5958C346.278 86.7019 375.749 78.8307 386.991 66.5626C392.931 60.0783 390.492 52.3362 381.663 46.6945C369.62 38.9866 353.898 34.1744 336.545 31.8548C284.032 24.8607 230.409 25.4419 179.264 33.4506C163.307 35.9505 148.577 38.8663 135.008 44.346C168.15 37.3584 200.848 33.0562 236.177 33.1675C249.765 33.2079 262.228 32.8366 274.912 35.6218L240.681 34.7824C198.583 33.7348 157.653 39.2998 120.733 50.8868C112.108 53.6037 106.754 58.2468 105.709 63.6899C103.167 76.8659 131.042 85.611 148.966 89.4414L148.991 89.4425ZM366.894 82.1704C382.408 78.1493 403.111 68.5926 399.98 57.3893C398.968 53.7247 395.178 48.4713 387.238 46.4255C404.636 63.7866 385.089 72.4595 366.895 82.1546L366.894 82.1704ZM248.262 100.782C240.781 99.3093 235.278 100.277 229.162 100.144C203.276 99.5642 178.092 97.4333 153.326 92.6317C129.946 88.0947 90.6887 77.0151 104.753 57.4975C96.5432 60.6115 90.3803 65.1569 87.0085 70.3746C78.9885 82.7482 102.289 90.9507 118.021 94.3401C158.118 102.988 208.694 102.989 248.263 100.766L248.262 100.782Z" fill="#F7F2E9"/>
<path d="M148.21 102.773C143.601 102.354 137.58 101.558 133.03 100.795C131.605 100.557 132.34 100.591 131.356 100.419C129.435 100.081 127.635 99.8139 125.743 99.4308C125.117 99.303 125.922 99.3231 125.265 99.1914C121.665 98.4664 118.258 97.7887 114.64 96.8886C105.469 94.5381 96.323 91.781 88.2049 86.6176C85.1995 84.6464 82.3234 81.8503 81.3753 78.0543C80.3851 74.2476 81.9309 70.2703 84.2792 67.4514C85.4428 66.0247 86.767 64.7425 88.178 63.5825C93.0132 59.5766 99.8816 56.5221 105.515 53.7748C106.174 53.4537 105.732 53.5421 105.854 53.4739C107.766 52.405 107.207 52.9206 108.504 52.3266C108.863 52.1613 109.224 51.9934 109.587 51.8229C114.434 49.5505 119.661 46.9798 124.323 44.913C126.459 43.9726 124.22 44.6899 126.434 43.8867C126.587 43.8314 126.086 44.1681 126.682 43.9329C128.03 43.3939 130.585 42.3689 131.647 41.9925C133.69 41.2632 134.029 41.1449 135.977 40.4985C137.832 39.8914 139.948 39.2851 142.055 38.7335C142.978 38.4912 143.894 38.2509 144.778 38.0142C145.396 37.8488 144.546 37.943 145.528 37.6696C146.506 37.3956 149.144 36.7494 150.032 36.5658C150.923 36.3794 150.569 36.5627 150.73 36.5459C152.063 36.4094 155.051 35.4583 155.441 35.3666C162.575 33.6451 168.781 32.577 175.564 31.4112C180.715 30.5274 186.234 29.6527 191.165 29.0106C197.041 28.2472 202.038 27.7543 207.763 27.193C208.367 27.1345 207.645 27.0608 208.384 26.9894C216.23 26.2344 224.037 25.7012 231.877 25.3869C232.662 25.3558 231.658 25.5323 232.442 25.5088C237.254 25.3533 244.862 25.3159 247.699 24.695C250.962 24.6148 254.913 24.5411 257.828 24.594C259.71 24.6284 257.889 24.7972 260.194 24.6981C260.713 24.6763 260.035 24.5693 260.814 24.5457C264.101 24.4469 267.696 24.4421 270.941 24.3539C271.603 24.3357 271.421 24.231 271.609 24.2104C273.188 24.0424 275.804 24.2839 276.377 24.3002C280.734 24.4193 283.901 24.3624 287.964 24.3704C287.974 24.3704 287.984 24.3704 287.994 24.3704L287.944 25.4327C287.06 25.3537 288.122 25.5914 287.23 25.5138C282.554 25.1051 277.714 24.6484 273.143 24.1652C272.126 24.0574 273.074 24.0223 272.588 23.9646C270.449 23.7116 269.952 23.8965 267.9 23.6583C267.467 23.6084 267.721 23.5272 267.643 23.5086C266.421 23.2163 265.322 23.3706 265.003 23.347C263.635 23.2474 262.437 23.1241 261.3 22.9921C259.093 22.7391 257.105 22.5032 254.528 22.4128C254.062 22.3975 255.106 22.5735 253.797 22.5237C245.078 22.2102 235.753 22.3008 227.133 20.943C225.794 20.7315 226.766 20.7734 226.683 20.7493C225.342 20.3582 224.419 20.45 223.98 20.3811C223.136 20.2455 222.311 20.0817 221.509 19.9039L221.587 19.1193C223.992 19.0997 226.386 19.1614 228.112 18.9388C242.832 19.1189 257.44 19.662 271.959 20.9854C272.144 21.0021 271.804 21.1032 272.171 21.1359C276.614 21.5388 275.772 21.2822 278.72 21.2795C279.463 21.279 281.696 21.7572 281.896 21.7963C282.614 21.9364 281.848 22.058 282.088 22.0939C284.075 22.386 283.802 21.7393 286.512 21.9862C286.597 21.995 286.23 22.0756 286.457 22.1078C287.161 22.2082 287.868 22.2288 288.557 22.3335C290.124 22.574 290.655 22.9255 293.086 22.9938C293.394 23.0027 292.963 22.6037 295.38 22.87C296.338 22.9733 300.6 23.4282 301.792 23.5896C302.98 23.7473 302.15 23.7668 302.234 23.7813C305.425 24.2984 304.202 24.2209 305.782 24.63C307.362 25.041 306.979 24.4662 307.641 24.4873C308.304 24.508 310.642 24.9239 311.213 25.041C311.784 25.1572 311.056 25.1366 311.566 25.2262C314.943 25.823 313.091 25.1607 314.221 25.2245C316.894 25.3796 318.897 26.0512 321.3 26.4363C321.954 26.5415 321.432 26.3759 322.016 26.4526C324.334 26.76 325.685 27.0858 328.323 27.3873C328.756 27.4364 330.915 27.5438 332.248 27.9404C332.436 27.997 331.873 28.0016 332.843 28.1853C334.288 28.4581 336.945 28.9392 338.503 29.1886C339.658 29.3729 338.369 28.9762 339.806 29.2883C340.45 29.4291 339.226 29.2994 340.446 29.5583C341.664 29.8144 344.749 30.4016 345.905 30.6316C347.086 30.8641 346.464 30.6162 346.561 30.6271C347.152 30.6958 349.415 31.1022 349.61 31.1449C359.574 33.2347 368.774 35.7375 378.136 38.9132C378.882 39.1698 378.429 38.8749 378.543 38.9128C381.124 39.7814 379 39.375 380.718 40.129C380.565 39.7971 381.548 40.2 383.323 40.8776C384.187 41.2104 383.757 40.929 383.839 40.9509C385.166 41.3246 385.931 41.8754 386.132 42.0064C386.847 42.4783 387.866 42.7493 388.368 43.0958C388.874 43.4453 387.557 42.9777 389.18 43.7525C389.671 43.8884 388.585 43.0876 389.821 43.6483C391.855 44.5788 394.666 46.0936 397.158 47.8933C400.562 50.2349 403.109 53.7665 403.766 56.1037C404.897 60.2133 404.161 61.7565 403.278 63.9811C401.074 67.8213 401.965 66.4863 400.218 68.6303C398.259 70.5988 398.934 69.3185 398.584 69.5193C398.234 69.6949 397.987 70.0138 397.585 70.2661C397.576 70.2719 397.566 70.2776 397.557 70.2834C397.152 70.525 397.922 69.8612 397.03 70.5098C396.135 71.1848 393.691 73.0019 393.394 73.284C392.786 73.8997 394.094 73.397 391.491 74.837C391.339 74.9188 391.767 74.5393 391.188 74.8573C386.633 77.3496 381.689 79.5325 376.826 81.3118C376.154 81.5565 376.704 81.208 376.315 81.3473C372.244 82.7719 373.77 82.4317 371.613 83.4467C372.009 82.963 370.712 83.2269 367.604 84.222C365.73 84.814 366.097 84.8438 364.906 85.3128C364.549 85.4536 363.19 85.7573 362.965 85.8914C362.225 86.3306 363.559 86.2106 360.28 87.0395C360.136 87.0751 360.559 86.8332 360.063 86.9644C356.862 87.7979 356.536 88.1206 353.073 89.0246C350.356 89.7339 345.465 90.7228 342.337 91.3573C342.324 90.9905 339.397 91.6901 338.244 92.1734C336.212 92.5713 334.014 93.0071 332.041 93.3336C331.359 93.4466 331.787 93.2611 331.699 93.2656C330.357 93.3295 329.516 93.7252 329.075 93.8127C327.776 94.0671 326.52 94.2863 325.321 94.4828C322.122 95.0082 319.152 95.4221 315.856 96.0601C315.695 96.0911 315.469 96.3822 314.22 96.3841C314.139 96.3833 315.631 96.0426 313.48 96.3571C311.328 96.6725 307.253 97.1243 304.276 97.6458C303.556 97.7728 301.752 98.2229 300.259 98.2555C300.06 98.2595 300.265 98.1597 299.977 98.1566C299.046 98.148 298.58 98.4656 297.478 98.3866C296.376 98.3072 294.12 98.4277 291.116 98.9315C291.021 98.9471 290.329 99.2325 289.377 99.3387C287.858 99.5085 285.698 99.7066 284.111 99.8779C283.351 99.9601 283.851 100.033 283.719 100.049C278.619 100.661 274.965 100.906 269.481 101.336C268.474 101.415 265.601 101.829 263.642 101.845C261.491 101.86 263.643 101.086 258.742 101.591C256.765 101.791 254.306 102.746 250.714 102.556C243.804 103.07 237.394 103.155 230.456 103.518C230.144 103.534 229.164 103.783 228.429 103.801C227.339 103.827 226.737 103.74 225.958 103.753C222.697 103.803 219.712 103.944 216.566 103.967C215.372 103.976 215.788 103.866 214.364 103.873C212.941 103.879 211.992 104.024 210.062 103.962C208.605 103.914 207.149 103.63 205.216 103.588C205.141 103.867 203.814 103.858 201.452 103.909C200.998 103.919 201.484 104.021 201.269 104.031C200.395 104.072 199.587 103.981 198.757 104.025C198.555 104.035 198.544 104.131 198.379 104.144C196.974 104.266 194.665 104.007 194.269 103.961C192.751 103.787 192.038 103.895 190.872 103.81C189.709 103.724 191.452 103.699 190.093 103.629C187.275 103.486 183.653 103.382 180.792 103.262C179.65 103.215 180.424 103.374 180.26 103.37C177.897 103.307 175.517 103.059 174.195 103.249C172.591 102.508 172.767 103.245 169.401 102.927C169.135 102.901 168.815 102.572 169.838 102.583C170.86 102.595 172.4 102.775 173.82 102.774C174.156 102.775 176.089 102.576 176.352 102.57C178.408 102.526 178.68 103 178.787 103.031C180.007 103.361 182.367 103.138 182.986 103.138C185.818 103.142 188.217 103.279 190.585 103.269C192.134 103.262 192.292 102.961 193.505 102.997C197.542 103.11 198.946 103.554 202.756 103.221C203.573 103.148 202.763 102.813 205.685 103.089C205.869 103.107 208.039 103.353 209.293 103.198C209.45 103.179 209.445 103.082 209.653 103.074C211.045 103.018 211.974 103.092 213.49 103.044C215.004 102.996 216.828 102.922 218.559 102.93C219.601 102.935 220.943 103.092 221.443 103.127C222.857 103.229 224.364 102.986 225.241 103.119C226.126 103.253 224.408 103.532 226.723 103.574C226.802 103.32 226.991 103.056 227.122 102.798C232.181 102.672 237.165 102.568 242.237 102.313C242.867 102.281 242.217 102.177 242.891 102.139C245.734 101.977 248.224 101.938 251.169 101.721C253.449 101.553 255.941 101.245 258.322 101.04C259.8 101.226 263.33 100.865 265.901 100.679C266.801 100.615 266.747 100.696 267.389 100.668C269.81 100.557 268.658 100.398 269.316 100.301C272.138 99.8817 272.431 100.437 275.777 100.106C275.954 100.089 278.089 99.572 278.385 99.5224C280.267 99.2084 278.709 99.598 279.897 99.5009C282.066 99.3215 283.576 99.2369 286.104 98.868C286.842 98.7601 288.591 98.371 290.045 98.3511C290.236 98.3484 290.144 98.4616 290.296 98.4498C293.06 98.2258 293.093 97.897 294.651 97.5983C296.209 97.2992 298.661 97.2089 299.162 97.2075C300.474 97.2035 298.182 97.405 298.114 97.4292C297.317 97.7242 299.08 97.4673 300.435 97.3057C300.672 97.5913 302.56 97.3218 301.838 97.1362C301.757 97.1165 300.709 97.2845 300.435 97.3057C301.583 96.8455 303.649 96.5314 305.982 96.497C307.073 96.4797 306.082 96.7817 309.33 96.26C310.804 96.021 310.203 95.8902 311.498 95.6412C314.455 95.0723 318.351 94.6758 321.41 94.1483C322.52 93.957 321.418 94.0159 322.176 93.8808C323.202 93.6973 324.171 93.5528 325.141 93.4037C326.061 93.2628 327.006 93.1124 327.985 92.9199C328.166 92.884 327.7 92.8398 328.325 92.7292C333.084 91.8804 337.223 91.17 342.16 90.1235C344.543 89.6231 348.775 88.5919 351.225 88.0009C355.477 86.9961 360.717 85.7567 364.274 84.629C366.598 83.8928 366.045 83.9269 367.014 83.5352C368.885 82.7811 372.333 81.9055 372.803 81.7791C372.82 81.7776 370.847 82.4947 371.926 82.1871C372.585 82.0974 372.781 81.7874 372.803 81.7791C373.11 81.7154 377.042 80.2902 377.798 79.9483C378.21 79.7712 377.934 79.7546 378.149 79.6642C383.288 77.4963 388.341 75.1159 393.113 72.1789C393.197 72.1283 393.142 72.3185 393.34 72.1977C394.851 71.2735 396.008 70.4134 397.042 69.5568C397.895 68.8465 398.659 68.1064 399.428 67.2349C401.125 65.3068 402.042 63.5722 402.687 62.2365C403.303 60.4487 403.223 57.7154 402.664 56.2252C402.146 54.7253 401.727 54.6875 401.675 54.567C400.055 52.066 398.399 50.609 396.336 49.0529C395.44 48.3949 394.365 47.6713 393.1 46.9222C391.236 45.7707 387.099 43.7922 384.861 42.9045C383.072 42.1728 381.965 41.675 380.305 41.0924C380.077 41.0127 380.266 41.2044 380.195 41.1828C378.267 40.6169 379.263 40.6901 378.889 40.5005C377.474 39.8052 376.732 39.4364 374.218 38.7086C373.62 38.5344 371.888 38.4088 370.849 38.1227C369.495 37.749 370.048 37.7622 368.607 37.3798C368.488 37.349 368.466 37.4331 367.612 37.1867C363.605 36.0336 359.097 34.8483 354.85 33.8926C354.266 33.7609 354.984 34.0672 354.139 33.8798C350.145 32.995 345.799 32.1023 341.93 31.3056C340.972 31.1081 341.592 31.1252 341.389 31.0573C340.13 30.6405 338.281 30.5667 337.982 30.5187C330.805 29.3672 325.374 28.2843 318.024 27.3648C317.627 27.3144 314.508 27.1662 313.173 26.7562C313.082 26.7283 311.757 26.312 310.535 26.3237C310.459 26.3246 311.29 26.5544 309.814 26.3556C308.338 26.1569 305.952 25.9492 303.935 25.5776C303.297 25.46 301.806 25.0448 299.86 25.0226C299.733 25.0206 296.721 25.1291 295.696 24.723C295.528 24.6566 295.748 24.3585 293.429 24.2847C292.987 24.2716 293.777 24.4222 292.616 24.3494C290.834 24.2384 288.514 23.9284 286.311 23.8677C285.928 23.8572 284.291 23.9238 283.014 23.6486C282.814 23.6055 283.208 23.5338 282.527 23.4625C279.255 23.1209 275.872 22.9192 272.541 22.5994C271.371 22.4876 271.982 22.3608 270.767 22.2273C269.571 22.0947 267.07 21.879 265.793 21.875C264.512 21.8705 265.885 22.2309 263.979 22.1316C255.638 21.7034 247.39 21.1548 239.028 20.9116C237.784 20.8767 238.804 20.9983 236.99 20.958C232.851 20.8675 226.939 20.83 221.613 20.891L221.882 18.1716C225.111 18.8816 228.153 19.329 230.36 19.6495C234.951 20.2722 229.134 19.836 232.658 20.236C234.363 20.4194 236.236 20.2132 236.648 20.2261C240.688 20.3481 243.502 20.5412 247.166 20.5923C247.923 20.6022 247.184 20.4555 247.829 20.4654C250.03 20.4982 252.348 20.6204 254.461 20.7023C255.409 20.7396 255.239 20.6335 256.112 20.6854C257.989 20.7989 259.671 20.9488 261.465 21.1855C261.667 21.2123 261.869 21.2398 262.074 21.268C262.256 21.2931 261.007 21.3008 262.536 21.4457C265.011 21.6799 268.075 22.0522 270.932 22.2206C271.779 22.2701 271.833 22.0502 273.635 22.3709C274.013 22.4381 273.503 22.6612 275.64 22.6241C275.999 22.6183 279.582 22.6326 281.308 22.9939C281.764 23.0891 282.918 23.416 283.937 23.4748C284.076 23.482 283.535 23.3116 284.378 23.3772C285.601 23.4733 286.848 23.5804 288.104 23.69L287.991 26.1204C286.182 26.1261 284.368 26.1304 282.567 26.1547C281.748 26.1661 282.968 26.2888 281.748 26.302C278.4 26.3382 274.227 26.3256 270.945 26.315C269.739 26.3108 270.572 26.2005 270.484 26.19C269.073 26.02 268.24 26.2754 267.77 26.2947C264.856 26.4127 262.633 26.3287 259.951 26.406C259.212 26.4273 259.738 26.5354 259.591 26.5485C258.061 26.6789 259.198 26.4469 258.228 26.442C255.514 26.4281 252.487 26.5084 249.749 26.6014C248.74 26.636 249.877 26.7395 248.972 26.7692C243.624 26.9484 238.066 27.1521 232.846 27.3438C231.865 27.3797 232.477 27.2434 232.271 27.23C230.851 27.1349 228.795 27.4798 228.322 27.5297C226.168 27.7555 225.32 27.7162 223.415 27.8585C214.099 28.5442 202.617 29.5589 193.873 30.6446C182.481 32.0548 173.665 33.408 162.946 35.6241C162.265 35.7665 162.98 35.7608 162.394 35.8857C155.71 37.3068 149.14 38.8216 142.551 40.5961C141.682 40.8303 140.82 41.075 139.957 41.333C139.352 41.5145 140.26 41.383 139.295 41.6801C137.311 42.2926 134.817 43.1189 132.833 43.8056C131.863 44.1417 133.114 43.5579 132.14 43.8998C129.871 44.6991 127.476 45.6643 125.213 46.6729C124.251 47.1032 125.761 46.5897 124.507 47.1412C119.791 49.2277 115.201 51.5153 110.544 53.7731C106.759 55.6172 102.922 57.3079 99.1507 59.1647C98.5735 59.4512 97.941 59.4649 96.7661 60.1702C96.7129 60.2867 96.7613 60.3625 96.7617 60.4555C92.6892 62.7349 88.7969 65.3402 85.9626 68.8145C81.2176 73.8544 83.3861 81.4417 89.3903 84.7932C90.8984 85.7769 92.493 86.6638 94.1435 87.4804C94.6483 87.7279 93.8371 87.1718 94.8187 87.6477C100.57 90.3782 106.532 92.2252 112.865 94.0199C113.496 94.1945 113.106 94.3675 114.987 94.789C115.32 94.8689 118.159 95.4939 118.902 95.5933C119.004 95.6068 118.512 95.3774 119.427 95.5731C124.746 96.708 130.363 97.7114 135.738 98.5596C136.605 98.696 135.662 98.6897 136.279 98.7876C140.667 99.4822 145.478 99.9499 149.686 100.473C152.516 100.821 151.43 100.937 152.929 101.289C153.14 101.339 154.891 101.489 154.976 101.622C155.185 101.957 154.301 102.233 154.625 102.599C154.701 102.68 157.047 102.782 155.648 102.851C155.557 102.857 153.822 102.775 153.406 102.799C153.11 102.815 153.627 102.988 153.025 102.989C152.42 102.99 151.767 102.825 150.772 102.795C149.771 102.763 150.193 102.953 148.21 102.773ZM398.653 50.2378C397.561 49.1479 397.11 49.3675 398.433 50.3357C398.496 50.3835 398.708 50.2944 398.653 50.2378ZM237.149 102.889C239.205 103.003 240.592 102.647 239.142 102.559C237.692 102.47 236.522 102.855 237.149 102.889ZM215.913 103.581C218.31 103.709 218.678 103.068 216.116 103.227C215.967 103.236 215.773 103.573 215.913 103.581ZM145.942 100.666C145.964 100.675 147.223 100.816 147.252 100.812C147.937 100.742 145.422 100.462 145.942 100.666ZM194.824 103.645C195.571 103.746 197.725 103.683 196.798 103.56C196.052 103.463 193.895 103.519 194.824 103.645ZM321.334 26.6625C321.309 26.6519 320.411 26.5168 320.424 26.557C320.466 26.6856 321.726 26.8327 321.334 26.6625ZM159.018 102.022C164.298 102.419 167.475 103.135 161.718 102.702C160.676 102.621 163.977 102.684 162.653 102.549C160.231 102.301 158.596 102.515 156.132 102.152C156.126 102.151 156.121 102.15 156.116 102.149L156.231 101.823C156.262 101.85 156.255 101.855 156.217 101.842L156.118 102.126C156.415 102.067 158.757 102.002 159.028 102.022C159.025 102.022 159.022 102.022 159.018 102.022ZM398.321 49.2496C398.306 49.2195 397.312 48.4457 397.28 48.4384C396.658 48.1406 398.651 49.685 398.321 49.2496ZM268.596 20.8698C268.524 20.8508 265.601 20.6438 265.51 20.6508C263.971 20.7817 269.874 21.1996 268.596 20.8698ZM342.286 91.3583C340.967 91.786 339.361 92.1333 338.25 92.1723C339.593 91.9125 340.936 91.6364 342.286 91.3583ZM157.577 89.6428C162.464 90.5201 168.917 91.5937 173.805 92.3171C175.345 92.5459 174.558 92.5187 175.617 92.6768C177.681 92.9825 179.641 93.1883 181.69 93.4664C182.369 93.5587 181.506 93.5847 182.22 93.6783C186.139 94.189 189.864 94.537 193.844 94.9183C213.484 96.7811 232.9 97.331 252.871 96.8536C259.456 96.698 267.463 96.4393 274.249 95.9246C275.041 95.8649 274.561 95.7866 274.711 95.7673C277.063 95.4639 276.288 95.7414 277.839 95.6575C283.965 95.3225 290.781 94.6963 296.65 93.9879C299.141 93.6847 296.615 93.7553 299.14 93.5849C299.316 93.5725 298.693 93.7643 299.383 93.6954C300.953 93.5399 303.872 93.1517 305.086 92.9992C307.413 92.7093 307.784 92.6567 309.973 92.3481C312.972 91.924 316.539 91.4341 319.712 90.8746C320.398 90.7532 319.47 90.7878 320.56 90.5828C321.425 90.4206 323.41 90.0784 324.668 89.8656C324.997 89.8102 325.28 89.7634 325.482 89.7322C326.455 89.581 326.061 89.7498 326.237 89.7393C327.678 89.6622 330.95 88.7505 331.369 88.6533C339.101 86.9403 345.732 85.4479 352.847 83.303C358.244 81.6693 363.92 79.6157 368.821 77.4699C374.627 74.8923 379.518 72.4085 384.186 68.4403C384.671 68.0133 384.011 68.4096 384.6 67.8815C385.24 67.3008 385.866 66.6821 386.438 66.0563C392.287 60.6121 388.57 51.7685 382.32 47.9156C381.637 47.4339 382.593 47.9367 381.916 47.4564C381.75 47.3411 381.579 47.2238 381.401 47.1049C377.139 44.1419 370.174 40.7272 367.217 40.1809C363.969 38.8616 359.925 37.5104 356.929 36.5563C354.995 35.945 356.931 36.3315 354.508 35.742C353.961 35.6126 354.639 35.9109 353.819 35.7098C350.376 34.8672 346.588 34.024 343.12 33.4787C342.414 33.368 342.589 33.507 342.386 33.4914C340.689 33.3507 337.929 32.6844 337.32 32.5858C337.031 32.537 336.747 32.4903 336.466 32.4455C332.241 31.7758 328.976 31.4261 324.887 30.9638C323.875 30.8504 325.055 31.1249 324.081 31.0214C319.028 30.4841 313.789 29.9692 308.835 29.4986C307.732 29.3939 308.757 29.3557 308.231 29.2996C305.91 29.0567 305.376 29.2464 303.149 29.0343C302.679 28.9904 302.952 28.9056 302.867 28.8881C301.536 28.613 300.351 28.7887 300.005 28.7715C295.63 28.562 292.848 28.1419 288.617 27.9819C288.111 27.9637 289.245 28.1466 287.823 28.088C278.349 27.7002 268.323 27.4816 258.935 27.451C257.475 27.4467 258.516 27.3393 258.424 27.3278C256.926 27.1502 255.958 27.4188 255.483 27.4349C251.731 27.555 248.218 27.4312 245.677 27.8159C229.781 28.2116 214.002 29.5643 198.314 31.1639C198.115 31.1846 198.457 31.017 198.059 31.0589C193.266 31.573 194.21 31.6584 191.081 32.3094C190.294 32.4734 187.836 32.5209 187.619 32.5314C186.828 32.5638 187.611 32.2649 187.348 32.2867C185.169 32.4767 185.611 33.0346 182.699 33.4673C182.608 33.48 182.973 33.3101 182.727 33.3355C181.963 33.4141 181.218 33.5733 180.47 33.649C180.029 33.6934 179.659 33.7134 179.308 33.7283C178.294 33.7726 177.444 33.7712 175.54 34.2134C175.216 34.2907 175.773 34.5494 173.18 34.9676C172.146 35.1281 167.584 35.9438 166.307 36.1724C165.028 36.3932 165.882 36.1153 165.79 36.1277C162.33 36.6485 163.619 36.3368 161.857 36.4687C160.093 36.6112 160.681 37.0276 159.994 37.234C159.308 37.4375 156.779 37.8802 156.158 37.9865C155.534 38.0893 156.283 37.8388 155.732 37.9441C152.083 38.6635 154.211 38.5821 153.044 38.9571C150.304 39.8575 148.041 40.0837 145.503 40.8162C144.817 41.0162 145.4 40.9292 144.795 41.1254C142.405 41.9111 140.927 42.2731 138.276 43.3649C137.922 43.5109 136.464 44.2289 135.159 44.7191L134.925 43.9523C135.231 43.896 135.529 43.8518 135.802 43.8264C136.016 43.8072 135.444 44.0258 136.501 43.8273C138.078 43.5304 140.917 42.9737 142.606 42.6072C143.851 42.3364 142.387 42.4618 143.971 42.201C144.674 42.086 143.396 42.4313 144.717 42.2078C146.031 41.9838 149.377 41.3453 150.651 41.1098C151.923 40.8726 151.205 40.8813 151.306 40.8543C151.92 40.6926 154.354 40.1962 154.571 40.1593C165.474 38.2187 175.611 36.9376 186.313 35.6635C187.153 35.5644 186.579 35.4997 186.707 35.4833C189.581 35.1141 187.347 35.6996 189.37 35.5977C189.051 35.3707 190.245 35.2881 192.271 35.0585C193.248 34.9483 192.705 34.9007 192.794 34.8816C194.231 34.5875 195.26 34.6921 195.524 34.7084C196.499 34.7681 197.531 34.5013 198.193 34.5444C198.856 34.5872 197.363 34.8596 199.311 34.6938C199.85 34.5558 198.382 34.4333 199.86 34.2717C205.433 33.6338 215.899 33.2447 220.403 33.1421C224.9 33.0158 226.35 32.9811 228.972 32.9734C233.704 32.9819 231.971 32.8215 234.909 32.7308C235.482 32.7149 235.89 32.7198 236.178 32.7379C237.374 32.8125 236.508 33.1135 236.849 33.1912C237.264 33.2874 237.719 33.1898 238.236 33.2426C238.751 33.2952 237.636 33.3597 238.848 33.3797C240.06 33.3996 243.378 33.2276 243.807 33.1293C244.717 32.92 243.221 32.6918 246.433 32.7812C246.618 32.7867 246.018 32.9004 246.725 32.9158C252.339 33.0347 258.185 33.177 263.764 33.8059C264.531 33.8933 263.832 33.9538 264.277 34.0068C268.909 34.6135 267.272 34.2165 269.851 34.3457C269.23 34.589 270.611 34.9403 274.075 35.6518C274.391 35.7182 274.651 35.7713 274.87 35.8136L274.917 35.4256C273.669 35.427 273.752 35.5436 272.581 35.5994C272.166 35.6193 270.661 35.4853 270.386 35.545C269.479 35.7401 270.894 36.0181 267.24 35.8317C267.08 35.8231 267.594 35.7167 267.04 35.696C263.458 35.561 263.024 35.7777 259.151 35.7102C256.115 35.6573 250.72 35.3864 247.264 35.2791C247.346 34.9172 244.079 34.9204 242.749 35.1387C242.069 35.119 241.374 35.101 240.673 35.0832C239.06 35.0414 237.429 35.0106 235.917 34.9668C235.171 34.9455 235.663 34.8464 235.569 34.8338C234.127 34.6378 233.151 34.8769 232.668 34.8839C227.423 34.9547 223.144 34.83 218.145 35.1642C217.967 35.1766 217.69 35.4365 216.345 35.2996C216.258 35.2903 217.907 35.115 215.552 35.1923C213.201 35.2681 208.753 35.3459 205.499 35.6761C204.709 35.7538 202.729 36.092 201.115 36.0536C200.9 36.048 201.128 35.9581 200.817 35.9412C199.81 35.8891 199.287 36.1863 198.1 36.0665C196.911 35.9478 194.461 35.9905 191.19 36.4714C191.085 36.4865 190.331 36.7658 189.297 36.8723C187.648 37.0409 185.307 37.2643 183.591 37.4755C182.769 37.5765 183.31 37.6371 183.168 37.6568C177.654 38.4138 173.715 38.8581 167.821 39.7731C166.738 39.9401 163.673 40.6382 161.567 40.8901C159.257 41.172 161.486 40.1055 156.263 41.2729C154.152 41.7534 151.643 43.0625 147.777 43.5128C140.473 45.26 133.686 46.7936 126.493 49.0501C126.17 49.1515 125.205 49.6646 124.443 49.8911C123.31 50.2275 122.659 50.3209 121.851 50.5638C121.476 50.6764 121.106 50.79 120.739 50.9043C117.79 51.834 115.134 53.0481 112.596 54.6904C111.529 55.415 111.824 55.0517 110.606 56.0103C109.428 57.0126 108.749 57.8034 107.501 59.4735C106.69 60.6163 105.815 61.821 105.382 63.6271C105.332 63.841 105.291 64.0606 105.261 64.2854C105.571 64.3841 105.156 65.9129 106.07 68.3402C106.254 68.7943 106.163 68.2703 106.254 68.4808C106.631 69.3289 106.986 70.1337 107.534 70.8382C107.667 71.0076 107.751 70.9603 107.867 71.0931C108.82 72.2358 110.491 74.064 110.812 74.3599C111.978 75.523 112.687 75.8617 113.707 76.6196C114.723 77.3517 113.111 76.3867 114.328 77.2143C116.885 78.9408 120.429 80.6574 123.3 81.8607C124.441 82.3387 123.711 81.8952 123.876 81.9609C126.253 82.9139 128.654 83.9168 130.079 84.1352C131.553 85.3241 131.555 84.5942 135.013 85.7944C135.286 85.8873 135.55 86.2934 134.473 86.0147C133.397 85.7356 131.821 85.1346 130.341 84.7058C129.988 84.6086 127.92 84.1886 127.643 84.1012C125.494 83.4558 125.368 82.8854 125.269 82.8232C124.121 82.0853 121.655 81.3644 121.037 81.096C118.186 79.9003 115.895 78.5974 113.684 77.243C112.244 76.337 111.94 76.4824 110.871 75.638C107.5 72.6458 106.512 71.2556 105.011 67.1153C104.888 66.6517 104.791 66.663 104.694 66.3542C104.623 66.0553 104.441 65.3747 104.846 63.6734C104.851 63.6506 104.864 63.6017 104.884 63.5307C105.007 62.9306 105.824 60.9467 106.399 59.7941C106.474 59.6288 106.387 59.5836 106.507 59.3736C107.334 57.9865 108.097 57.2137 109.331 56.0113C110.575 54.8149 112.249 53.5832 113.974 52.6888C115.009 52.1386 116.445 51.6894 116.97 51.5207C118.261 51.0923 119.571 50.4832 120.532 50.2481C120.674 50.2134 120.807 50.1863 120.931 50.1687C121.89 50.0329 120.174 50.8107 122.6 50.1659C122.615 49.8976 122.743 49.5874 122.812 49.3011C128.085 47.6998 133.332 46.3242 138.686 44.9603C139.349 44.7915 138.637 44.8308 139.348 44.647C142.353 43.8741 145.008 43.3446 148.136 42.6065C150.558 42.0354 153.198 41.33 155.745 40.7848C157.359 40.7527 161.13 39.9297 163.9 39.4738C164.868 39.3132 164.816 39.4009 165.509 39.3072C168.123 38.9578 166.864 38.914 167.57 38.7549C170.601 38.0869 170.954 38.6117 174.564 38.0619C174.756 38.0314 177.052 37.3937 177.374 37.3319C179.41 36.9273 177.729 37.3904 179.016 37.2397C181.365 36.9695 183.005 36.8359 185.752 36.4258C186.554 36.3056 188.46 35.8989 190.042 35.8847C190.25 35.8826 190.147 35.9956 190.313 35.9844C193.316 35.7788 193.369 35.4593 195.072 35.193C196.779 34.9272 199.449 34.9321 199.994 34.9553C201.418 35.01 198.917 35.1093 198.843 35.1332C197.961 35.3978 199.889 35.2055 201.369 35.1131C201.607 35.4082 203.668 35.2433 202.901 35.0179C202.814 34.9932 201.668 35.1048 201.369 35.1131C202.641 34.71 204.918 34.5097 207.443 34.6501C208.625 34.719 207.525 34.9284 211.089 34.6879C212.708 34.584 212.072 34.3978 213.501 34.2757C216.764 33.9975 221.023 34.0725 224.394 33.9912C225.619 33.9614 224.424 33.8608 225.26 33.837C227.48 33.7756 229.44 33.8534 231.671 33.8131C231.873 33.8094 231.379 33.6842 232.073 33.6848C235.073 33.6875 237.851 33.7508 240.704 33.8425C242.847 33.9109 245.033 33.9796 247.386 34.0383C250.033 34.1042 254.766 34.1521 257.507 34.233C262.258 34.3726 268.099 34.6956 272.16 34.7515C274.389 34.7826 274.332 34.6898 274.937 34.6261L274.699 36.5948C274.586 36.5851 274.451 36.5703 274.275 36.5462C272.136 36.23 268.4 35.3522 267.887 35.2497C267.872 35.2406 270.11 35.5473 268.928 35.3048C268.253 35.0704 267.912 35.253 267.887 35.2497C267.559 35.1501 263.073 34.6102 262.173 34.5831C261.685 34.5552 261.948 34.6947 261.694 34.6785C255.664 34.2952 249.594 34.2737 243.426 34.2148C243.317 34.2123 243.481 34.0814 243.226 34.0773C240.391 34.0306 238.367 34.1265 236.174 34.2071C235.603 34.2281 235.022 34.2498 234.414 34.2701C231.476 34.3685 229.145 34.3682 227.401 34.1736C225.184 34.2383 221.997 34.2256 220.165 34.231C218.331 34.2354 218.085 34.5037 217.925 34.5145C212.91 34.8848 210.002 34.8972 204.797 35.2334C202.322 35.3905 197.424 35.828 194.754 36.1127C192.643 36.3341 191.367 36.4023 189.426 36.6446C189.163 36.6775 189.441 36.7624 189.361 36.7752C187.208 37.1421 188.22 36.7553 187.766 36.7542C186.122 36.7542 185.108 36.7683 182.342 37.1866C181.704 37.2826 179.889 37.9103 178.728 38.0847C177.218 38.311 177.77 38.0935 176.19 38.3395C176.055 38.3607 176.095 38.4437 175.116 38.5732C170.576 39.1757 165.628 39.8716 160.932 40.6588C160.29 40.7661 161.136 40.7677 160.21 40.9255C155.863 41.6662 151.107 42.5177 146.875 43.2628C145.833 43.4458 146.466 43.2244 146.235 43.2391C144.816 43.3318 142.905 43.9709 142.582 44.0405C139.989 44.5987 137.599 45.0917 135.266 45.5706L134.539 43.1854C138.948 41.4392 143.227 40.0675 148.371 38.538C148.791 38.4051 151.999 37.2553 153.528 37.1295C153.632 37.1192 155.14 36.9955 156.39 36.5379C156.468 36.5098 155.531 36.5974 157.119 36.2453C158.706 35.894 161.248 35.2617 163.463 34.962C164.166 34.8658 165.847 34.7792 167.882 34.2116C168.014 34.1705 171.139 33.1712 172.333 33.2753C172.527 33.2934 172.386 33.6329 174.835 33.0626C175.302 32.954 174.432 33.0248 175.672 32.7775C176.668 32.5791 177.84 32.3981 179.068 32.1994C180.181 32.0194 181.339 31.8258 182.449 31.5917C182.856 31.505 184.573 31.0329 185.999 30.9945C186.222 30.9885 185.82 31.1524 186.562 31.0588C190.094 30.6148 193.778 30.0594 197.374 29.6986C198.648 29.5714 198.019 29.8182 199.347 29.7076C200.676 29.5964 203.352 29.3404 204.73 29.1163C206.109 28.8916 204.564 28.7798 206.642 28.5411C215.681 27.5132 224.678 26.9733 233.744 26.5151C235.089 26.4485 233.969 26.4074 235.951 26.3065C243.258 25.9061 255.891 25.5214 262.24 25.7509C267.325 25.9189 260.927 26.0389 264.811 26.1122C266.685 26.1492 268.716 25.8528 269.169 25.8481C273.593 25.7978 276.663 26.0071 280.642 26.0861C281.464 26.1032 280.662 25.9492 281.362 25.9656C283.752 26.0211 286.26 26.1771 288.541 26.2707C289.565 26.3128 289.381 26.2062 290.323 26.2591C292.576 26.3862 294.565 26.5361 296.755 26.7597C296.955 26.7801 295.598 26.8203 297.264 26.9256C299.959 27.0966 303.296 27.4157 306.4 27.5639C307.321 27.6081 307.375 27.3855 309.338 27.7021C309.75 27.7695 309.199 27.99 311.518 27.9564C311.908 27.9489 315.8 27.9845 317.675 28.3755C318.17 28.4772 319.423 28.8229 320.529 28.9028C320.679 28.9128 320.092 28.731 321.007 28.8142C324.231 29.1105 327.602 29.5045 330.908 29.8715C331.791 29.9697 330.493 29.6843 331.809 29.8353C333.339 30.0116 335.027 30.2258 336.731 30.458C339.073 30.7771 341.441 31.1679 343.473 31.5497C344.772 31.7961 343.854 31.7371 343.947 31.7649C345.433 32.2178 346.373 32.1552 346.882 32.2414C350.028 32.7869 352.374 33.4515 355.229 34.1704C356.015 34.3713 355.489 34.1098 355.648 34.1413C357.299 34.4837 356.035 34.357 357.052 34.663C359.903 35.5285 363.067 36.5336 365.898 37.5708C366.939 37.954 365.82 37.3882 366.752 37.7363C372.174 39.7664 377.638 42.4129 382.395 45.5513C382.481 45.6076 382.567 45.6646 382.652 45.7218C383.571 46.35 382.928 46.0492 383.107 46.1976C384.347 47.2102 386.264 48.575 386.668 48.9682C388.499 50.6767 389.056 51.5382 390.167 53.5224C392.639 57.5711 391.638 63.9427 387.994 67.4814C383.26 72.5413 377.191 75.7294 372.087 78.148C360.552 83.36 351.089 85.8934 339.485 88.7461C338.744 88.9219 339.523 88.8823 338.885 89.0349C334.278 90.1294 329.657 91.0717 325.038 91.9053C321.427 92.5555 317.772 93.1615 314.09 93.7397C313.407 93.8464 314.413 93.828 313.315 94.0031C311.057 94.364 308.187 94.762 305.887 95.0232C304.762 95.1511 306.253 94.8403 305.121 94.9709C302.505 95.2709 299.669 95.6071 296.992 95.9304C295.846 96.0685 297.593 96.0089 296.101 96.1772C285.924 97.3181 275.926 98.1358 265.59 98.489C264.884 98.5126 264.251 98.2699 262.751 98.3916C262.641 98.4729 262.651 98.5623 262.605 98.646C247.741 99.3598 232.998 99.3372 218.087 98.7608C217.458 98.7361 218.54 98.9237 217.322 98.876C210.276 98.5944 203.434 98.2274 196.257 97.4881C195.544 97.4136 195.93 97.1923 193.826 97.0472C193.455 97.0242 190.294 96.7661 189.467 96.7375C189.355 96.7348 189.921 96.9111 188.901 96.8135C182.978 96.2431 176.797 95.4707 170.92 94.5447C169.976 94.3953 171.001 94.4159 170.33 94.3081C165.535 93.5402 160.349 92.7703 155.806 91.7867C152.792 91.1275 153.951 91.1249 152.378 90.5908C152.154 90.516 150.281 90.125 150.212 89.9802C150.029 89.6182 151.003 89.467 150.702 89.0589C150.636 88.9731 148.137 88.5209 149.643 88.6621C149.747 88.6735 151.565 88.9942 152.026 89.0257C152.345 89.0486 151.81 88.8089 152.456 88.8863C153.099 88.9627 153.789 89.2109 154.846 89.3537C155.907 89.4941 155.469 89.2657 157.577 89.6428ZM211.907 34.3272C210.205 34.2983 209.982 34.7606 211.807 34.5518C211.895 34.5412 211.995 34.3285 211.907 34.3272ZM133.399 46.7025C135.601 46.3137 136.999 45.6554 135.442 45.9035C133.885 46.1551 132.728 46.8225 133.399 46.7025ZM111.79 54.762C114.06 53.4517 114.125 52.6915 111.777 54.343C111.643 54.4437 111.659 54.8427 111.79 54.762ZM159.881 91.9487C159.86 91.9397 158.508 91.6911 158.472 91.6899C157.725 91.7003 160.433 92.1988 159.881 91.9487ZM110.147 74.2143C109.575 73.6403 107.92 71.9522 108.528 72.7828C108.991 73.4753 110.84 74.9743 110.147 74.2143ZM145.371 40.6277C145.398 40.6255 146.343 40.3461 146.314 40.3163C146.214 40.2174 144.911 40.6503 145.371 40.6277ZM145.874 88.9192C140.279 87.5753 137.069 86.1166 143.101 87.7502C144.197 88.0365 140.69 87.3147 142.078 87.7148C144.613 88.4437 146.395 88.5218 148.98 89.2602C148.989 89.2627 148.997 89.2651 149.003 89.2672L148.973 89.2635C149.008 89.2693 149.005 89.2763 148.972 89.2842L148.999 89.2875C148.718 89.3143 146.155 88.9913 145.864 88.9176C145.868 88.9182 145.871 88.9187 145.874 88.9192ZM210.901 33.843C210.867 33.8385 209.505 33.9118 209.472 33.9201C208.743 34.1052 211.487 33.9571 210.901 33.843ZM201.924 30.6216C202.001 30.6235 205.148 30.2911 205.249 30.2709C206.867 29.8599 200.501 30.53 201.924 30.6216ZM247.21 35.2681C245.718 35.3748 243.937 35.348 242.755 35.1391C244.234 35.1849 245.723 35.2228 247.21 35.2681ZM367.552 80.4599C368.157 80.2559 368.951 80.0746 369.575 79.9504C369.768 79.9122 369.695 80.0165 369.829 79.9933C370.092 79.9476 370.318 79.8389 370.581 79.7972C370.669 79.7837 370.601 79.936 370.692 79.9191C371.193 79.8239 371.628 79.6539 372.123 79.5229C374.549 78.8804 376.885 78.0866 379.255 77.1802C380.036 76.882 381.019 76.587 381.786 76.1893C381.876 76.1425 381.776 76.0662 381.79 76.0501C382.008 75.7995 382.008 76.0441 382.199 75.99C382.958 75.7753 383.75 75.4124 384.403 75.0433C384.68 74.886 384.297 74.8304 384.638 74.799C384.662 74.7965 384.642 74.9376 384.726 74.9099C384.917 74.8461 385.245 74.6569 385.386 74.595C385.659 74.4762 385.702 74.4526 385.95 74.3246C386.288 74.1507 386.724 73.984 387.07 73.7636C387.144 73.7162 386.984 73.6665 387.096 73.5814C387.209 73.4965 387.534 73.3264 387.659 73.2883C387.782 73.2512 387.782 73.3598 387.812 73.3677C388.062 73.4365 388.308 73.0019 388.351 72.9689C389.161 72.3714 389.962 72.0444 390.753 71.5203C391.341 71.1305 391.95 70.6454 392.489 70.2525C393.147 69.7721 393.716 69.4022 394.303 68.8838C394.364 68.8297 394.2 68.7849 394.274 68.7188C395.07 68.0071 395.831 67.291 396.596 66.5636C396.673 66.4901 396.677 66.675 396.759 66.606C397.261 66.1976 398.095 65.4916 397.849 64.8715C398.11 64.52 398.388 64.0957 398.665 63.798C398.842 63.6087 398.853 63.8861 398.939 63.5848C398.958 63.5171 398.812 63.5455 398.848 63.4488C398.996 63.0423 399.211 62.6139 399.283 62.1934C399.297 62.107 399.189 62.0975 399.178 62.0686C399.092 61.832 399.422 61.5803 399.457 61.5098C399.72 60.9915 399.725 60.5628 399.756 60.0412C399.762 59.9195 399.614 60.0564 399.614 59.9407C399.616 59.3412 399.575 58.7241 399.52 58.1387C399.508 58.007 399.651 58.101 399.651 58.0361C399.646 57.7801 399.458 57.7444 399.398 57.552C399.39 57.5257 399.384 57.4981 399.381 57.4667C399.375 57.4097 399.484 57.4112 399.492 57.3981C399.618 57.1882 399.33 57.125 399.312 57.0891C399.071 56.6138 399.186 56.1954 398.928 55.7316C398.897 55.6778 398.838 55.8598 398.758 55.706C398.22 54.6738 397.562 53.6274 396.883 52.6684C396.778 52.5203 396.937 52.554 396.939 52.5376C396.961 52.2704 396.685 52.3457 396.639 52.3088C396.279 52.0101 396.115 51.5425 395.676 51.5436C394.31 50.0946 392.561 49.1461 390.887 48.073C390.865 48.0595 390.959 47.9644 390.916 47.938C390.384 47.6202 390.415 47.8502 389.954 47.9166C389.838 47.9332 389.663 47.5544 389.643 47.5247C389.578 47.4163 389.742 47.2788 389.716 47.2527C389.497 47.0432 389.318 47.6352 388.977 47.5139C388.967 47.5091 389.05 47.4178 389.025 47.3969C388.946 47.3315 388.841 47.343 388.763 47.2755C388.586 47.1205 388.605 46.8096 388.233 46.8775C388.186 46.8872 388.146 47.2398 387.832 47.13C387.732 47.094 387.339 46.9866 387.111 46.9174L387.596 46.066C387.634 46.1068 387.664 46.1415 387.683 46.1666C387.79 46.306 387.625 46.3009 387.631 46.3132C387.851 46.7489 387.683 46.6668 387.684 46.9851C387.683 47.3012 388.018 46.891 388.124 46.9174C388.232 46.9442 388.369 47.2685 388.391 47.3559C388.414 47.4435 388.294 47.4198 388.325 47.4881C388.526 47.9381 388.656 47.4615 388.822 47.5185C389.205 47.6449 389.127 48.1437 389.321 48.4258C389.374 48.5031 389.392 48.3874 389.452 48.4449C389.69 48.6737 389.722 48.9002 390.037 49.1094C390.09 49.1464 390.446 49.2136 390.441 49.4863C390.439 49.524 390.313 49.5205 390.384 49.6467C390.49 49.8355 390.701 50.149 390.857 50.3082C390.973 50.4258 390.992 50.1802 391.073 50.376C391.108 50.4627 390.934 50.3811 391.005 50.539C391.079 50.6986 391.317 51.0331 391.421 51.1853C391.519 51.3261 391.568 51.1809 391.583 51.1878C391.669 51.232 391.897 51.4752 391.911 51.4995C392.678 52.6763 393.13 54.0097 393.629 55.281C393.67 55.3871 393.767 55.275 393.775 55.2907C393.946 55.6454 393.529 55.4587 393.498 55.7446C393.735 55.6323 393.739 55.7966 393.835 56.0444C393.882 56.1639 393.961 56.0712 393.974 56.0797C394.171 56.2263 394.009 56.4026 393.977 56.4434C393.86 56.595 394.061 56.6919 393.981 56.7989C393.901 56.9028 393.72 56.739 393.771 56.9873C393.875 57.0407 394.079 56.8064 394.154 56.9931C394.457 57.6966 394.333 59.1061 394.249 59.6897C394.182 60.2775 394.163 60.464 394.071 60.798C393.891 61.3931 394.112 61.2069 394.098 61.6076C394.075 62.0097 393.697 61.7027 393.591 61.7304C393.485 61.7545 393.563 61.8374 393.494 61.8851C393.424 61.9318 393.404 61.779 393.34 61.9182C393.279 62.0561 393.299 62.5066 393.37 62.5954C393.524 62.7805 393.805 62.6797 393.574 63.0449C393.56 63.0654 393.482 62.9489 393.436 63.0291C393.073 63.6688 392.712 64.3331 392.255 64.905C392.192 64.9837 392.13 64.8384 392.092 64.883C391.697 65.3355 391.998 65.2739 392.007 65.6872C391.784 65.4402 391.524 65.475 391.25 65.8345C391.082 66.0518 391.224 66.0981 391.194 66.2975C391.185 66.3575 390.989 66.4453 391.018 66.5142C391.111 66.7413 391.419 66.7556 391.035 67.059C391.018 67.0719 390.971 66.9439 390.919 66.9942C390.575 67.318 390.71 67.5086 390.386 67.8953C390.131 68.1998 389.528 68.6038 389.19 68.8867C388.948 68.6156 388.7 68.9597 388.737 69.2623C388.508 69.4549 388.291 69.6628 388.055 69.8186C387.974 69.8718 387.954 69.7506 387.937 69.7498C387.681 69.733 387.741 70.0002 387.699 70.0479C387.222 70.5626 386.697 70.7396 386.281 71.2795C386.267 71.2984 386.388 71.5238 386.137 71.4806C386.121 71.4768 386.222 71.2582 385.975 71.4307C385.73 71.6023 385.191 71.8254 384.91 72.1648C384.841 72.2474 384.746 72.5639 384.487 72.5472C384.452 72.5447 384.435 72.468 384.38 72.457C384.203 72.4227 384.289 72.6731 384.043 72.5778C383.796 72.4824 383.449 72.5206 383.175 72.8795C383.166 72.8905 383.192 73.1156 383.081 73.1843C382.902 73.2944 382.628 73.421 382.441 73.5409C382.352 73.5984 382.477 73.6681 382.463 73.68C381.892 74.125 381.406 74.2935 380.725 74.6476C380.602 74.7114 380.336 75.0704 380.038 75.0887C379.708 75.1111 379.658 74.4256 379.146 74.8954C378.94 75.0833 379.024 75.9402 378.393 75.833C377.613 76.3939 376.73 76.6482 375.957 77.2356C375.922 77.262 375.906 77.5197 375.815 77.5662C375.679 77.6348 375.557 77.5851 375.458 77.6311C375.047 77.8201 374.725 78.0929 374.334 78.2882C374.185 78.3624 374.186 78.2419 374.009 78.3304C373.832 78.4187 373.779 78.6045 373.513 78.6706C373.311 78.7204 372.999 78.5644 372.747 78.661C372.87 78.9134 372.705 78.9948 372.449 79.2139C372.4 79.2562 372.506 79.3107 372.485 79.3351C372.401 79.4365 372.264 79.4177 372.188 79.5202C372.169 79.5449 372.213 79.6302 372.2 79.6552C372.094 79.8711 371.71 79.8302 371.644 79.8228C371.391 79.7954 371.362 79.9516 371.192 79.9776C371.023 80.0035 371.204 79.8286 371.021 79.8867C370.643 80.0072 370.204 80.2561 369.851 80.4372C369.71 80.5101 369.865 80.5727 369.846 80.5858C369.572 80.7674 369.215 80.8019 369.173 81.112C368.664 80.6361 369.027 81.2608 368.551 81.3634C368.514 81.3712 368.327 81.118 368.431 81.0113C368.535 80.9046 368.771 80.8902 368.911 80.7353C368.945 80.6987 369.045 80.3161 369.069 80.2835C369.257 80.0282 369.509 80.4209 369.535 80.4364C369.815 80.6005 369.956 80.1706 370.022 80.1113C370.323 79.8402 370.649 79.7418 370.907 79.5257C371.075 79.3848 370.951 79.1056 371.105 79.0351C371.614 78.8011 371.986 79.0848 372.281 78.5113C372.344 78.3887 372.088 78.1474 372.569 78.1883C372.599 78.191 372.977 78.2611 373.059 78.0457C373.069 78.0186 373.023 77.9333 373.044 77.9126C373.189 77.7755 373.339 77.7833 373.507 77.6509C373.676 77.5186 373.873 77.3503 374.099 77.2656C374.236 77.2145 374.484 77.2856 374.566 77.2917C374.799 77.3111 374.882 77.0279 375.062 77.1061C375.243 77.184 375.145 77.5058 375.476 77.4398C375.366 77.2126 375.266 76.9722 375.162 76.7404C375.786 76.4103 376.418 76.1546 377.032 75.7984C377.107 75.7543 376.963 75.6797 377.042 75.6293C377.375 75.4176 377.721 75.333 378.054 75.0988C378.311 74.9167 378.544 74.6171 378.809 74.4207C379.129 74.5685 379.497 74.2388 379.816 74.0797C379.928 74.0233 379.96 74.0938 380.05 74.0696C380.385 73.9767 380.119 73.839 380.177 73.7574C380.424 73.4081 380.753 73.8842 381.138 73.6307C381.159 73.617 381.248 73.2006 381.274 73.1612C381.432 72.9155 381.368 73.229 381.52 73.1607C381.798 73.036 382.014 72.9863 382.26 72.7218C382.331 72.6441 382.431 72.3515 382.676 72.3688C382.708 72.371 382.752 72.4639 382.772 72.4575C383.149 72.3293 382.981 72.0567 383.102 71.8464C383.222 71.6362 383.62 71.6325 383.712 71.6466C383.951 71.6825 383.64 71.7812 383.64 71.7999C383.654 72.0224 383.838 71.8581 384 71.7665C384.2 72.0096 384.403 71.8461 384.167 71.6703C384.141 71.6513 384.039 71.7572 384 71.7665C383.959 71.4219 384.172 71.2268 384.598 71.2765C384.797 71.2998 384.775 71.5098 385.109 71.1989C385.26 71.0578 385.069 70.9296 385.179 70.7767C385.422 70.4331 385.983 70.2617 386.293 69.9779C386.406 69.8746 386.216 69.8735 386.29 69.7998C386.486 69.6047 386.73 69.5221 386.92 69.307C386.937 69.2875 386.811 69.2315 386.877 69.175C387.373 68.7451 387.847 68.4375 388.348 67.9716C388.587 67.751 388.956 67.2932 389.2 67.0576C389.616 66.661 390.233 66.2308 390.505 65.8177C390.682 65.5503 390.54 65.5285 390.558 65.3676C390.591 65.0587 391.094 64.8537 391.167 64.8251C391.17 64.8242 391.036 65.0664 391.173 64.9824C391.33 64.9874 391.166 64.8277 391.167 64.8251C391.215 64.8106 391.541 64.365 391.577 64.2566C391.597 64.1991 391.48 64.1663 391.492 64.1377C391.778 63.4657 392.069 62.8182 392.37 62.1692C392.377 62.1581 392.493 62.222 392.507 62.1951C392.707 61.8179 392.631 61.5118 392.624 61.163C392.614 60.8132 392.692 60.5684 392.947 60.4042C392.961 60.1468 393.1 59.7943 393.174 59.5804C393.248 59.3667 392.992 59.3251 392.988 59.3067C392.844 58.733 392.975 58.3927 392.928 57.7912C392.909 57.5126 392.763 56.927 392.661 56.6462C392.581 56.4149 392.598 56.2543 392.494 56.042C392.48 56.0134 392.381 56.0769 392.374 56.069C392.168 55.8632 392.469 55.8977 392.5 55.8309C392.608 55.5825 392.664 55.4424 392.467 55.1581C392.421 55.0913 391.968 55.0301 391.893 54.9118C391.795 54.7554 391.954 54.7627 391.844 54.5983C391.835 54.5841 391.756 54.6232 391.71 54.5118C391.512 54.0318 391.272 53.4588 390.975 52.9705C390.936 52.9053 390.864 53.0602 390.805 52.9677C390.535 52.5405 390.197 52.0128 389.963 51.567C389.904 51.4549 390.03 51.4625 390.038 51.4234C390.085 51.1833 389.733 51.1358 389.705 51.1069C389.017 50.386 388.761 49.7077 387.996 49.0065C387.949 48.9627 387.475 48.8464 387.526 48.5553C387.53 48.5359 387.584 48.2391 387.353 48.2336C387.338 48.2334 387.326 48.4011 387.199 48.2479C387.072 48.0944 386.789 47.9185 386.688 47.6212C386.661 47.5416 386.672 47.2983 386.474 47.1908L383.686 44.3554L387.507 45.3787C387.549 45.3776 387.594 45.3696 387.643 45.3524C387.663 45.343 388.203 45.0403 388.269 45.3719C388.28 45.4266 388.165 45.721 388.535 45.6627C388.605 45.6514 388.514 45.5495 388.689 45.5573C388.957 45.5688 389.26 45.7569 389.609 45.7306C389.67 45.7251 389.969 45.6038 390.095 45.8255C390.114 45.8601 390.023 45.9387 390.114 45.9857C390.54 46.2079 391.034 46.3364 391.452 46.6078C391.598 46.7034 391.447 46.8214 391.588 46.9382C391.728 47.0541 392.035 47.2538 392.233 47.2693C392.435 47.2857 392.377 46.9483 392.641 47.0626C393.786 47.5627 394.745 48.3768 395.695 49.1672C395.836 49.2852 395.779 49.113 395.992 49.2853C396.782 49.9017 398.084 51.1016 398.459 51.9298C398.761 52.5799 398.12 51.969 398.393 52.4278C398.522 52.6462 398.938 52.6828 398.984 52.7295C399.42 53.1693 399.531 53.6055 399.843 54.0603C399.907 54.1546 399.963 53.9942 400.017 54.0757C400.201 54.3568 400.313 54.6976 400.46 54.9806C400.526 55.1085 400.604 55.0443 400.653 55.1692C400.768 55.4654 400.84 55.7445 400.864 56.0716C400.866 56.1007 400.686 55.9661 400.763 56.1868C400.856 56.4524 400.913 56.7886 401.013 57.1041C401.048 57.2139 401.089 57.3247 401.139 57.4311C401.197 57.5534 401.42 57.5122 401.326 57.8264C401.305 57.8925 401.03 57.865 401.314 58.1494C401.363 58.1865 401.753 58.7326 401.566 59.0302C401.518 59.1089 401.309 59.3035 401.346 59.4598C401.352 59.4817 401.471 59.3906 401.485 59.5252C401.532 60.0006 401.489 60.4963 401.459 60.9823C401.451 61.1127 401.602 60.9371 401.585 61.1328C401.538 61.6756 401.348 62.3198 401.147 62.8026C401.073 62.9807 401.017 62.8216 401.002 62.8316C400.759 62.9815 400.947 63.1807 400.934 63.256C400.854 63.7119 400.602 63.9946 400.451 64.3716C400.407 64.4772 400.548 64.4573 400.548 64.4823C400.531 64.741 400.424 64.4877 400.335 64.61C400.082 64.9544 399.862 65.3514 399.649 65.71C399.571 65.8422 399.779 65.7706 399.707 65.889C399.28 66.5895 398.75 67.2534 398.189 67.7864C398.082 67.8879 398.063 67.7492 398.025 67.7566C397.763 67.8033 397.723 68.1862 397.694 68.2497C397.552 68.5491 397.398 68.5752 397.214 68.7889C396.318 69.8342 394.977 70.8901 393.95 71.615C392.602 72.5708 391.473 73.1973 390.166 74.029C390.082 74.082 390.24 74.149 390.168 74.1963C389.239 74.7992 388.269 75.2856 387.313 75.8405C387.235 75.886 387.413 75.941 387.288 76.018C387.031 76.1773 386.697 76.3433 386.409 76.4435C386.269 76.4923 386.392 76.3016 386.253 76.3527C385.928 76.4709 385.59 76.6295 385.286 76.8027C385.156 76.8771 385.418 76.8989 385.244 76.9861C384.055 77.5838 382.874 78.1498 381.576 78.518C381.487 78.5433 381.305 78.3225 381.146 78.4472C381.163 78.5232 381.198 78.6055 381.224 78.683C379.467 79.4779 377.652 80.0792 375.831 80.712C375.754 80.7387 375.935 80.8288 375.787 80.8812C374.928 81.1834 374.097 81.5087 373.168 81.6587C373.076 81.6739 373.042 81.4158 372.794 81.5364C372.75 81.5581 372.37 81.7154 372.286 81.8C372.275 81.8124 372.382 81.9039 372.257 81.947C371.535 82.1938 370.748 82.4038 369.994 82.5466C369.871 82.5697 369.963 82.4105 369.875 82.4259C369.252 82.5362 368.634 82.8092 368.021 82.8546C367.615 82.8829 367.701 82.6318 367.442 82.4763C367.405 82.4544 367.168 82.5117 367.124 82.3928C367.013 82.0942 367.038 81.7287 366.906 81.4139C366.878 81.3462 366.587 81.5028 366.727 81.2848C366.736 81.2701 366.947 81.1547 366.988 81.0822C367.016 81.0321 366.914 80.9265 366.979 80.8546C367.045 80.7828 367.159 80.8637 367.275 80.7686C367.39 80.6727 367.294 80.5476 367.552 80.4599ZM393.457 58.6002C393.571 58.3867 393.121 58.3831 393.238 58.5951C393.244 58.6053 393.452 58.611 393.457 58.6002ZM376.583 76.4484C376.925 76.4852 376.956 76.1345 376.705 76.0993C376.457 76.0628 376.479 76.4375 376.583 76.4484ZM374.068 77.9839C374.435 77.9638 374.179 77.3789 373.927 77.6606C373.912 77.6768 374.046 77.9851 374.068 77.9839ZM368.373 82.1614C368.368 82.1565 368.195 82.198 368.192 82.2047C368.138 82.3673 368.485 82.2842 368.373 82.1614ZM371.558 79.4978C371.69 79.5255 371.907 79.2982 371.743 79.2638C371.612 79.2361 371.394 79.4635 371.558 79.4978ZM389.161 48.5761C389.164 48.5691 389.085 48.4684 389.058 48.4951C388.972 48.5818 389.114 48.6932 389.161 48.5761ZM367.162 81.8293C367.822 81.5054 368.462 81.7615 367.727 82.0839C367.594 82.1423 367.925 81.7895 367.74 81.834C367.404 81.9153 367.359 82.3052 366.982 82.318L367.08 82.1625C367.078 82.1656 367.076 82.1687 367.075 82.1718C367.068 82.1831 367.053 82.1774 367.032 82.1605L366.959 82.2757C366.977 82.1593 367.131 81.8433 367.163 81.8281C367.162 81.8285 367.162 81.8289 367.162 81.8293ZM393.99 58.4546C393.996 58.4501 393.992 58.2741 393.985 58.2702C393.838 58.1861 393.847 58.5354 393.99 58.4546ZM391.356 48.1604C391.36 48.1754 391.711 48.3657 391.727 48.3619C392.022 48.2501 391.304 47.8596 391.356 48.1604ZM389.179 68.8844C389.136 69.1205 388.974 69.2917 388.738 69.2618C388.889 69.1394 389.032 69.0094 389.179 68.8844ZM244.672 101.726C242.713 101.53 240.131 101.405 238.131 101.386C237.505 101.379 237.821 101.294 237.387 101.287C236.538 101.275 235.744 101.342 234.895 101.334C234.614 101.332 234.959 101.193 234.664 101.193C233.046 101.194 231.501 101.279 229.832 101.238C229.601 101.232 229.371 101.225 229.138 101.216C221.296 100.916 213.579 100.558 205.649 99.9962C202.959 99.8067 199.698 99.4563 196.918 99.2776C196.593 99.2569 196.778 99.3829 196.715 99.3869C195.736 99.4458 196.076 99.25 195.448 99.1672C192.952 98.8381 190.17 98.5671 187.759 98.3626C186.733 98.2755 187.737 98.6002 186.718 98.3703C186.648 98.3545 186.92 98.265 186.64 98.2231C186.007 98.1288 184.796 98.0191 184.304 97.955C183.356 97.8312 183.199 97.8145 182.3 97.7101C181.073 97.5659 179.619 97.333 178.3 97.1945C178.018 97.1653 178.375 97.3314 177.924 97.2954C177.473 97.2596 176.288 97.0969 175.892 97.0158C175.496 96.9352 175.678 96.8637 175.61 96.8329C175.052 96.5755 173.648 96.6409 173.471 96.6223C170.241 96.2853 167.509 95.7298 164.502 95.246C162.218 94.8786 159.773 94.5078 157.608 94.109C156.046 93.8213 154.635 93.5297 153.209 93.2359C152.307 93.0495 151.334 92.8476 150.367 92.6528C150.105 92.5998 150.384 92.8019 150.063 92.7371C146.639 92.0436 143.256 91.252 139.908 90.2962C139.572 90.2 140.039 90.1916 139.706 90.0882C137.66 89.4643 134.487 88.3166 133.119 88.466C131.738 88.0346 130.064 87.4856 128.873 86.9757C128.103 86.6456 128.915 86.7748 127.924 86.5021C127.701 86.4399 127.947 86.6491 127.615 86.5469C126.223 86.1182 124.729 85.5381 123.36 85.0765C123.08 84.9821 123.117 85.1101 123.032 85.0977C122.315 84.9877 121.341 84.3171 121.106 84.1988C119.364 83.3263 118.054 82.7997 116.431 82.0062C116.052 81.819 116.438 82.1678 116.071 81.9916C114.204 81.091 112.262 79.9995 110.587 78.8266C110.206 78.5586 110.63 78.6925 110.452 78.5593C109.672 77.9683 109.39 78.051 108.656 77.4477C108.503 77.3204 108.655 77.3044 108.633 77.2735C108.292 76.7925 107.765 76.6924 107.65 76.6062C106.181 75.4894 105.52 74.4936 104.368 73.1591C104.231 72.9954 104.428 73.4554 104.051 72.9873C101.441 69.9711 100.45 65.0791 102.106 61.4359C102.344 60.8544 102.277 61.3098 102.302 61.2767C102.714 60.7437 102.639 60.3226 102.72 60.1283C103.225 58.9659 103.904 58.1285 104.422 57.2586L104.898 57.8796C104.655 57.9988 104.435 58.1295 104.245 58.2781C98.2404 60.5582 92.6789 64.0608 88.5076 68.8599C88.4551 68.9216 88.4461 68.7296 88.3416 68.8534C87.4981 69.8732 87.4366 70.1477 87.3082 70.5682C87.2462 70.776 87.1746 71.0224 87.0501 71.4041C86.9521 71.6764 86.2861 72.4478 86.248 72.5189C86.0665 72.7756 86.0044 72.4133 85.9538 72.504C85.5514 73.3182 86.1548 73.3419 85.9699 74.445C85.9642 74.4799 85.8711 74.3181 85.8472 74.4105C85.7731 74.6986 85.7975 74.9942 85.7564 75.2853C85.6793 75.9361 85.3737 76.2533 85.7993 77.2363C85.8663 77.3524 86.1065 77.0898 86.4474 78.0267C86.5531 78.4251 87.4771 79.9572 87.8182 80.3595C88.1185 80.769 87.8129 80.5695 87.8315 80.6008C88.6207 81.7527 88.2461 81.3977 88.5773 82.0613C88.9414 82.7232 89.168 82.2044 89.4149 82.3533C89.652 82.4993 90.3821 83.2684 90.5533 83.4478C90.7278 83.6373 90.4327 83.4998 90.5975 83.6577C91.7291 84.6991 91.2866 83.8434 91.7348 84.0642C92.7985 84.5641 93.366 85.3693 94.2765 85.934C94.5245 86.0863 94.3613 85.8923 94.5914 86.012C95.503 86.4809 96.0016 86.878 97.0908 87.2841C97.2711 87.3528 98.2206 87.5423 98.7052 87.9445C98.7744 88.0023 98.5091 87.9912 98.9016 88.1888C99.487 88.4851 100.568 88.96 101.231 89.1863C101.722 89.3542 101.227 88.9881 101.817 89.272C102.08 89.3977 101.543 89.2906 102.041 89.5192C102.534 89.7484 103.841 90.2229 104.34 90.3915C104.838 90.5623 104.606 90.3523 104.649 90.3587C104.907 90.4004 105.883 90.6683 105.968 90.6952C110.094 92.0411 113.939 93.2491 118.073 94.0977C118.224 94.1285 118.375 94.1588 118.527 94.1887C118.863 94.2553 118.666 94.0823 118.718 94.0912C119.879 94.2821 118.901 94.4238 119.684 94.7043C119.621 94.4254 120.086 94.5716 120.909 94.7099C121.306 94.7762 121.111 94.634 121.149 94.6312C121.765 94.5997 122.131 94.8732 122.227 94.9333C122.582 95.1551 123.035 95.0645 123.279 95.2127C123.523 95.3601 122.89 95.3872 123.674 95.536C123.911 95.4866 123.375 95.1366 123.978 95.2116C126.256 95.5027 130.412 96.4137 132.226 96.7164C134.042 97.0253 134.619 97.0927 135.673 97.2842C137.575 97.6249 136.907 97.3443 138.099 97.4307C139.297 97.5149 138.66 97.8736 138.817 97.992C138.972 98.1097 139.169 98.0377 139.371 98.1182C139.572 98.1985 139.112 98.2013 139.6 98.2876C140.088 98.3745 141.458 98.3842 141.644 98.3071C142.038 98.1448 141.463 97.8481 142.748 98.0907C142.822 98.1047 142.565 98.1898 142.849 98.2377C145.112 98.6144 147.469 98.8946 149.743 99.2185C150.053 99.263 149.761 99.3622 149.941 99.3895C151.826 99.6721 151.173 99.3825 152.237 99.247C151.97 99.5448 152.525 99.8023 153.97 99.9443C154.835 100.029 154.699 99.8734 155.268 99.8269C155.439 99.8128 156.043 99.966 156.16 99.9099C156.547 99.7265 155.99 99.4333 157.469 99.6623C157.534 99.6726 157.316 99.7727 157.541 99.7998C158.994 99.974 159.184 99.7622 160.762 99.8632C162 99.9426 164.181 100.247 165.589 100.367C165.534 100.728 166.871 100.737 167.425 100.521C168.337 100.592 169.325 100.64 170.207 100.728C170.51 100.758 170.304 100.851 170.342 100.865C170.919 101.079 171.33 100.858 171.528 100.86C173.67 100.89 175.405 101.165 177.454 101.079C177.527 101.076 177.656 100.829 178.193 101.038C178.228 101.052 177.548 101.137 178.509 101.189C179.469 101.241 181.275 101.451 182.613 101.382C182.937 101.366 183.761 101.191 184.411 101.373C184.498 101.397 184.4 101.467 184.524 101.511C184.928 101.653 185.159 101.405 185.631 101.637C186.103 101.869 187.094 102.063 188.447 101.949C188.49 101.946 188.814 101.752 189.237 101.766C189.913 101.789 190.871 101.853 191.577 101.867C191.914 101.874 191.701 101.743 191.759 101.742C194.036 101.719 195.646 101.858 198.083 101.934C198.53 101.949 199.811 101.79 200.675 101.931C201.624 102.086 200.645 102.698 202.829 102.562C203.709 102.506 204.823 101.726 206.406 102.13C209.466 102.024 212.306 102.209 215.382 102.022C215.52 102.014 215.953 101.789 216.277 101.787C216.758 101.785 217.025 101.882 217.371 101.883C218.821 101.889 220.131 101.776 221.526 101.758C222.056 101.751 221.873 101.861 222.504 101.852C223.135 101.843 223.551 101.693 224.404 101.738C225.044 101.773 225.704 102.039 226.561 102.047C226.585 101.766 227.175 101.755 228.213 101.648C228.413 101.628 228.195 101.537 228.29 101.522C228.673 101.46 229.03 101.529 229.398 101.462C229.488 101.446 229.489 101.35 229.561 101.332C230.18 101.171 231.209 101.35 231.385 101.382C232.062 101.5 232.37 101.364 232.885 101.401C233.404 101.438 232.633 101.537 233.239 101.548C234.499 101.571 236.09 101.492 237.359 101.442C237.867 101.421 237.515 101.308 237.588 101.302C238.636 101.225 239.696 101.313 240.26 101.031C241.008 101.655 240.89 100.939 242.39 100.998C242.509 101.003 242.674 101.306 242.224 101.374C241.775 101.442 241.077 101.378 240.456 101.478C240.31 101.502 239.476 101.832 239.361 101.855C238.459 102.034 238.308 101.574 238.259 101.551C237.702 101.3 236.668 101.658 236.4 101.691C235.158 101.842 234.09 101.818 233.038 101.929C232.357 102 232.302 102.307 231.765 102.317C229.979 102.349 229.327 101.945 227.662 102.366C227.303 102.455 227.673 102.778 226.368 102.554C226.287 102.54 225.313 102.328 224.763 102.494C224.694 102.515 224.698 102.612 224.607 102.622C223.993 102.691 223.581 102.625 222.909 102.678C222.239 102.732 221.425 102.805 220.659 102.789C220.197 102.779 219.601 102.61 219.379 102.57C218.752 102.455 218.085 102.676 217.694 102.528C217.299 102.38 218.061 102.131 217.032 102.048C216.998 102.301 216.915 102.561 216.858 102.816C214.621 102.843 212.402 102.788 210.153 102.814C209.873 102.818 210.16 102.951 209.861 102.959C208.592 102.988 207.494 102.896 206.183 102.936C205.168 102.967 204.054 103.11 202.995 103.142C202.349 102.852 200.771 102.941 199.629 102.904C199.229 102.892 199.257 102.815 198.972 102.787C197.9 102.683 198.4 102.943 198.105 102.98C196.839 103.137 196.735 102.559 195.248 102.551C195.169 102.55 194.2 102.842 194.067 102.859C193.22 102.968 193.929 102.749 193.401 102.717C192.436 102.657 191.766 102.57 190.634 102.634C190.304 102.654 189.507 102.826 188.87 102.661C188.786 102.64 188.835 102.539 188.767 102.532C187.541 102.4 187.5 102.717 186.795 102.805C186.09 102.893 185.012 102.638 184.794 102.567C184.222 102.383 185.238 102.511 185.27 102.496C185.643 102.316 184.852 102.324 184.248 102.287C184.171 101.971 183.326 101.96 183.623 102.25C183.656 102.281 184.127 102.268 184.248 102.287C183.708 102.576 182.777 102.583 181.763 102.257C181.288 102.103 181.748 101.965 180.288 101.964C179.626 101.962 179.873 102.189 179.286 102.223C177.946 102.3 176.222 102.018 174.847 101.979C174.347 101.965 174.827 102.108 174.486 102.102C173.578 102.087 172.785 101.955 171.874 101.949C171.792 101.948 171.986 102.083 171.703 102.069C169.56 101.96 167.7 101.763 165.464 101.604C164.382 101.528 162.452 101.453 161.332 101.35C159.393 101.174 157.028 100.789 155.37 100.677C154.29 100.604 154.515 100.749 154.046 100.789C153.138 100.867 151.585 100.415 151.379 100.348C151.373 100.346 152.303 100.412 151.814 100.298C151.54 100.137 151.39 100.349 151.379 100.348C151.241 100.306 149.399 100.083 149.025 100.065C148.823 100.056 148.923 100.184 148.818 100.178C146.33 100.01 143.841 99.7437 141.35 99.3638C141.306 99.3557 141.389 99.2345 141.286 99.217C139.838 98.9687 138.889 99.0003 137.684 98.9266C136.476 98.8518 135.528 98.6791 134.857 98.3506C133.955 98.2442 132.679 97.9446 131.944 97.7651C131.211 97.5862 131.067 97.8204 131.001 97.8149C128.95 97.641 127.777 97.2912 125.687 96.888C124.685 96.695 122.689 96.3525 121.611 96.1642C120.747 96.0147 120.243 95.8507 119.449 95.7247C119.342 95.7076 119.426 95.8411 119.392 95.8387C118.488 95.7881 118.967 95.6044 118.796 95.518C118.465 95.3492 118.202 95.2189 117.855 95.11C117.557 95.0161 117.193 94.9376 116.66 94.8577C116.388 94.8167 115.559 95.0364 115.075 94.9445C114.447 94.8245 114.719 94.7431 114.07 94.6196C114.015 94.6087 114.005 94.6981 113.609 94.595C111.777 94.1188 109.798 93.5222 107.911 92.9561C107.654 92.8784 107.943 93.1135 107.57 93.0028C105.817 92.4824 103.918 91.8375 102.267 91.15C101.863 90.9807 102.155 90.9852 102.076 90.9245C101.592 90.5552 100.726 90.489 100.597 90.4422C97.5131 89.3234 95.3252 88.0733 92.368 86.4057C92.2123 86.3244 90.8429 85.7671 90.4726 85.1981C90.4436 85.1584 90.0673 84.5891 89.5343 84.3739C89.4997 84.3585 89.7342 84.7076 89.1996 84.2606C88.661 83.8087 87.7545 83.1121 87.1946 82.2932C87.0096 82.0253 86.7139 81.3486 86.0237 80.6872C85.9774 80.6766 84.808 79.6123 84.8759 78.9548C84.8951 78.8459 85.1764 78.8392 84.6598 77.795C84.5677 77.5889 84.6079 78.0038 84.4096 77.4412C84.108 76.5696 84.0754 75.3222 84.0957 74.1859C84.0896 73.9897 84.0271 73.0952 84.4 72.4985C84.4577 72.4055 84.4931 72.6286 84.6191 72.295C84.9696 71.3947 85.4039 70.5222 85.9462 69.6861C86.2938 69.1489 86.6697 68.6289 87.0775 68.1463C87.4331 67.7311 87.3955 68.0529 87.7858 67.6439C88.1764 67.2311 88.9635 66.4191 89.322 65.9471C89.68 65.4738 89.0278 65.738 89.6477 65.0964C92.3754 62.3257 95.6768 60.337 99.0596 58.6346C99.5629 58.3847 99.1004 58.5048 99.8461 58.136C101.034 57.5524 102.618 56.8322 104.264 56.2064L108.57 54.59L105.874 58.3048C104.601 60.0445 103.736 61.9421 103.33 63.1707C102.785 64.975 103.119 62.6266 102.788 64.0365C102.644 64.7144 102.954 65.4994 102.97 65.6457C103.119 67.2161 103.306 68.3352 103.97 69.6395C104.114 69.9086 104.094 69.5842 104.217 69.8113C104.63 70.5649 105.114 71.3825 105.658 72.0412C105.908 72.34 105.939 72.2239 106.167 72.5002C106.698 73.1342 107.233 73.7274 107.787 74.3517C107.84 74.4101 107.368 74.1492 107.847 74.5862C108.643 75.3055 109.626 76.185 110.682 76.8C110.999 76.9832 111.128 76.8063 111.709 77.3712C111.834 77.4885 111.504 77.6039 112.399 77.8904C112.546 77.9422 114.034 78.468 114.592 78.9982C114.739 79.141 115.087 79.5811 115.503 79.7601C115.558 79.7827 115.404 79.5663 115.729 79.7237C116.882 80.2814 118.108 80.8869 119.342 81.4003C119.673 81.5378 119.236 81.2059 119.729 81.4137C121.064 81.9755 122.744 82.6991 124.069 83.2481C124.56 83.4518 124.181 83.4168 124.213 83.4411C124.727 83.833 125.153 83.7275 125.351 83.7855C126.579 84.147 127.457 84.5775 128.584 84.9273C128.896 85.0238 128.714 84.8386 128.779 84.8494C129.449 84.9663 128.907 85.0072 129.304 85.164C130.41 85.6006 131.685 85.9949 132.842 86.33C133.268 86.453 132.831 86.1785 133.212 86.29C135.472 86.9467 137.827 87.612 140.035 88.2594C140.452 88.3816 140.161 88.415 140.243 88.4607C140.807 88.7791 141.74 88.7768 141.952 88.8066C142.908 88.9403 143.246 89.1169 144.065 89.2939C147.009 89.9291 150.451 90.6862 153.581 91.32C154.739 91.5549 155.853 91.777 156.884 91.9771C161.868 92.9391 165.744 93.6715 170.54 94.3491C170.845 94.3919 170.558 94.2092 170.821 94.2443C174.215 94.7025 177.552 95.1967 180.965 95.5628C181.245 95.593 180.858 95.4138 181.308 95.4578C182.23 95.5469 183.396 95.6877 184.323 95.8328C184.775 95.9034 184.153 95.9487 184.609 96.0173C185.67 96.1771 186.812 96.3081 187.909 96.3992C188.377 96.4375 187.687 96.2312 188.293 96.2914C192.422 96.697 196.481 97.0284 200.651 97.5143C200.937 97.5475 201.168 97.8404 201.782 97.8318C201.834 97.7591 201.838 97.6694 201.864 97.5895C207.893 97.9782 213.862 98.3917 219.92 98.6347C220.175 98.6449 219.74 98.4829 220.234 98.5017C223.096 98.6098 225.876 98.6525 228.802 98.8648C228.985 98.8779 228.991 98.9835 229.186 99.0547C229.298 99.096 229.474 99.1257 229.784 99.1148C229.933 99.1126 231.204 99.0759 231.534 99.0118C231.578 99.0026 231.344 98.8871 231.754 98.8765C234.139 98.8147 236.688 98.6955 239.149 98.769C239.546 98.7813 239.123 98.9081 239.406 98.9183C241.404 98.9871 243.606 99.0125 245.504 99.375C246.771 99.6233 246.265 99.7793 246.903 100.097C246.991 100.14 247.771 100.281 247.785 100.413C247.828 100.743 247.399 101.018 247.489 101.378C247.505 101.452 248.533 101.571 247.899 101.628C247.855 101.63 247.116 101.554 246.926 101.584C246.795 101.604 246.997 101.768 246.736 101.778C246.472 101.788 246.212 101.638 245.778 101.639C245.348 101.645 245.513 101.809 244.672 101.726ZM128.653 96.945C127.987 96.7056 127.809 97.1299 128.571 97.1528C128.608 97.1534 128.688 96.957 128.653 96.945ZM212.413 102.445C211.506 102.257 210.887 102.552 211.528 102.7C212.169 102.847 212.689 102.503 212.413 102.445ZM221.823 102.145C220.756 102.013 220.601 102.653 221.739 102.499C221.805 102.49 221.885 102.153 221.823 102.145ZM243.784 99.7698C243.792 99.7756 244.358 99.8353 244.37 99.8315C244.686 99.7186 243.556 99.5987 243.784 99.7698ZM231.154 101.717C230.821 101.643 229.87 101.775 230.285 101.868C230.62 101.943 231.57 101.81 231.154 101.717ZM94.1935 86.1388C94.1867 86.1278 93.8422 85.9228 93.8307 85.9592C93.7918 86.0785 94.2966 86.327 94.1935 86.1388ZM247.007 100.998C244.667 101.101 243.202 100.648 245.77 100.574C246.234 100.56 244.78 100.794 245.372 100.81C246.456 100.839 247.151 100.471 248.249 100.587C248.25 100.587 248.252 100.587 248.253 100.587L248.449 100.574L248.442 100.774C248.437 100.796 248.428 100.793 248.417 100.773L248.423 100.602L248.254 100.613C248.122 100.704 247.123 100.994 247.003 100.999C247.004 100.999 247.006 100.998 247.007 100.998ZM128.35 96.3457C128.337 96.3376 127.789 96.2361 127.775 96.2395C127.452 96.3278 128.557 96.5324 128.35 96.3457ZM89.3608 67.6516C89.3839 67.6333 90.2695 66.7052 90.2955 66.6727C90.5913 66.0176 88.7824 67.9051 89.3608 67.6516ZM165.61 100.378C166.227 100.278 166.952 100.31 167.422 100.521C166.821 100.472 166.216 100.429 165.61 100.378Z" fill="#F7F2E9"/>
</svg>
