<svg preserveAspectRatio="none" overflow="visible" style="display: block;" width="70.505" height="10" viewBox="0 0 70.505 10" fill="none" xmlns="http://www.w3.org/2000/svg">
<path id="Vector 119" d="M0.671564 0.050849C1.06665 -0.0794148 1.58455 0.0598688 1.97815 0.251044C2.1015 0.310336 2.03904 0.575377 2.12419 0.62824C2.29073 0.731291 2.44589 0.601305 2.61047 0.724065C2.66501 0.766045 2.59712 1.18587 2.65431 1.22028C2.9677 1.40582 3.26419 1.29888 3.58167 1.38812C5.14545 1.82843 6.68261 1.98602 8.26553 2.17731C8.78746 2.24002 9.42193 2.62103 9.96103 2.45441C10.024 2.43458 9.98644 2.06608 9.99841 2.03571C10.1862 1.57075 10.1238 2.31467 10.2464 2.41351C10.7331 2.80377 11.2742 2.83771 11.7426 2.69549C11.9418 2.63391 11.7421 1.90198 11.9427 2.3128C11.9566 2.34056 11.9061 2.73188 11.9607 2.77362C12.0846 2.86749 12.3197 2.79755 12.4158 2.82855C12.6009 2.89028 12.6315 2.88635 12.8066 2.89081C13.0459 2.90031 13.3306 3.09483 13.5874 3.00616C13.6422 2.98607 13.5696 2.58493 13.657 2.51666C13.7445 2.44851 13.976 2.48252 14.054 2.57709C14.132 2.6717 14.0988 2.98699 14.1126 3.05926C14.2263 3.66925 14.494 2.82442 14.5284 2.80353C15.1565 2.44753 15.6951 2.9288 16.2847 2.92743C16.7323 2.92536 17.2109 2.76648 17.6368 2.78827C18.1441 2.81578 18.5742 3.03315 19.0671 2.99579C19.1191 2.9923 19.0581 2.52065 19.1217 2.51544C19.7967 2.46056 20.467 2.51197 21.1391 2.83038C21.2065 2.86273 21.1196 3.27684 21.187 3.33392C21.5993 3.67424 22.2516 4.49179 22.4965 2.68878C22.7758 2.75918 23.1149 2.83193 23.3647 3.19537C23.5258 3.42929 23.3693 3.88042 23.5672 3.68792C23.6119 3.64503 23.5538 3.24995 23.6208 3.21551C23.9026 3.07088 24.2104 3.1993 24.4892 2.99518C24.5459 2.95273 24.5304 2.59872 24.5465 2.53497C24.6815 2.01871 24.9063 2.87213 24.9553 2.93414C25.3285 3.39658 25.601 3.2146 25.9486 3.22589C26.0292 3.22871 25.9339 2.7532 26.0115 2.73883C26.4141 2.67068 26.8311 2.71155 27.2253 2.92254C27.313 2.97062 27.2323 3.37567 27.2742 3.41937C27.459 3.60712 27.5 2.84209 27.6771 3.00738C27.7145 3.04125 27.6935 3.388 27.7003 3.42608C27.8069 4.02389 27.8996 3.17684 27.927 3.15814C28.274 2.90261 28.4958 3.78689 28.831 3.66168C28.8711 3.6458 28.7806 3.20706 28.8934 3.18927C29.6443 3.06815 30.4386 3.18867 31.1819 3.53961C31.2975 3.59358 31.215 3.92317 31.2222 3.9638C31.3408 4.59864 31.4175 3.74803 31.4552 3.716C31.7525 3.48541 32.0302 4.19874 32.2322 3.1856C33.4913 3.5372 34.7446 2.96827 35.9933 3.87591C36.0091 3.88642 35.9807 4.30535 36.0124 4.32452C36.3938 4.55974 36.3205 3.90865 36.5729 3.11236C36.6364 2.91241 36.8298 3.8738 36.8469 3.94427C36.9093 4.20396 36.8446 4.8272 36.8655 4.87749C37.0382 5.27241 37.0101 3.21129 37.2431 3.21063C37.2504 3.21407 37.2198 3.59344 37.2393 3.63116C37.3001 3.74958 37.3603 3.59883 37.4198 3.72943C37.5559 4.03161 37.6044 5.03313 37.8122 4.45025C37.8385 4.3746 37.7983 3.20545 38.0064 3.26068C38.0893 3.28369 38.4565 3.26365 38.5594 3.33941C38.6621 3.41509 38.5916 3.79185 38.5989 3.80816C38.8758 4.30636 38.7708 4.51284 38.9095 5.25042C39.0483 5.98522 39.0098 4.23265 39.0663 4.03704C39.123 3.84199 39.326 4.25303 39.3759 4.39593C39.4258 4.53888 39.3636 4.77829 39.4079 4.85918C39.7019 5.38773 39.537 3.98928 39.6338 3.71112C39.8622 3.05249 40.0401 4.35219 40.2492 4.47955C40.3058 4.51394 40.2596 4.21792 40.31 4.19024C40.5095 4.08452 40.6295 4.49006 40.8565 4.11822C40.8937 4.05762 41.0772 3.27621 41.1959 3.84967C41.2128 3.93236 41.165 4.25624 41.25 4.32879C41.377 4.43767 41.6059 4.50846 41.7425 4.4002C41.8433 4.3201 41.7277 3.78642 41.8546 3.9522C41.911 4.02623 41.8065 4.33844 41.9124 4.45147C42.0178 4.56447 42.2873 4.55075 42.3898 4.53997C42.4922 4.52895 42.4362 4.12413 42.4444 4.09686C42.4945 3.94063 42.6909 3.74542 42.7083 3.74591C43.5838 3.69649 44.3912 4.37886 45.2437 4.15301C45.3106 4.13587 45.2661 3.70898 45.2763 3.70196C45.5053 3.5231 45.3247 4.65811 45.4847 5.03802C45.4616 4.17173 45.556 4.32858 45.7174 4.23358C45.7951 4.18709 45.7528 3.85165 45.7598 3.81732C45.8751 3.30783 45.9554 3.9659 45.9761 4.10052C46.0524 4.59572 46.1355 4.01061 46.1875 4.34161C46.2394 4.67013 46.1199 5.15717 46.2746 5.15093C46.318 4.84083 46.2031 4.03044 46.3206 3.8991C46.7638 3.40231 47.5912 4.03813 47.9475 4.10418C48.3032 4.17017 48.4181 4.11296 48.6253 4.22503C48.9996 4.42767 48.8625 3.82641 49.0949 3.5512C49.328 3.27603 49.2147 4.75539 49.2482 5.07342C49.2811 5.3913 49.317 5.06407 49.3579 5.23882C49.3987 5.41353 49.3104 5.62976 49.4064 5.69536C49.5023 5.7609 49.7647 5.19537 49.7988 4.86285C49.8707 4.15836 49.7524 3.41897 50.0064 3.67877C50.021 3.69419 49.9736 4.08318 50.0295 4.12249C50.4737 4.42195 50.9352 4.44052 51.3789 4.70538C51.4399 4.7424 51.3853 5.17514 51.4208 5.20159C51.7906 5.47838 51.6584 4.74872 51.8611 3.93817C51.8156 5.01684 51.9277 5.67679 52.2083 5.68316C52.3771 5.68736 52.348 5.21625 52.4571 4.88421C52.4899 4.78411 52.6092 5.1076 52.6309 4.88604C52.7022 4.1618 52.5897 3.35106 52.8791 3.67388C52.8918 3.68923 52.8514 4.08567 52.8952 4.10967C53.1788 4.26682 53.2127 3.50928 53.5192 3.41754C53.7595 3.34555 54.1867 3.80749 54.4603 3.88262C54.4545 5.09537 54.7129 4.81767 54.8177 3.9815C54.9953 4.01573 55.187 3.96846 55.3586 4.08404C55.4177 4.12344 55.3789 4.47457 55.3863 4.5125C55.5005 5.10765 55.5777 4.29415 55.616 4.26226C56.0313 3.95224 56.3697 4.56881 56.7661 3.96624C56.7801 3.94454 56.8029 3.10213 56.9089 3.71722C56.9157 3.75962 56.7848 4.1429 56.9713 4.17254C57.1578 4.20225 57.5093 4.65384 57.7682 4.26348C57.8308 4.16951 57.9893 3.48564 58.1165 4.01995C58.1334 4.09251 58.1149 4.33411 58.1393 4.46856C58.2184 4.89695 58.2616 4.04549 58.3545 4.76885C58.4474 5.49219 58.6407 6.03391 58.9018 5.53484C58.9102 5.52033 58.972 4.84546 59.0541 4.85613C59.1851 4.87375 59.3712 5.01434 59.5081 5.00994C59.5736 5.00759 59.5316 4.58853 59.543 4.58086C59.9836 4.34604 60.2972 4.71963 60.7692 4.88177C60.8557 4.91232 61.1044 4.34086 61.2719 4.79266C61.4558 5.28723 61.2668 7.34456 61.6896 6.85442C61.8601 6.65837 62.076 4.04826 62.3824 5.40056C62.9767 5.06547 63.5263 5.75757 64.1223 5.2791C64.1491 5.25791 64.2338 4.52945 64.2968 4.53936C64.3904 4.55549 64.4417 4.89596 64.5085 4.91839C64.7884 5.02094 65.0444 4.72965 65.3143 4.77496C65.4167 4.79142 65.3809 5.14346 65.5031 5.16314C65.6252 5.18249 65.7066 4.71891 65.8721 4.9428C65.9971 5.11346 66.122 6.06099 66.2879 6.17144C66.2942 5.2368 66.4082 5.25605 66.6106 5.00933C66.6496 4.96146 66.6078 4.63616 66.6262 4.59673C66.7012 4.42907 66.7705 4.69868 66.8417 4.51617C66.859 4.47233 66.8598 4.15315 66.874 4.0993C66.9943 3.62924 67.1925 4.34721 67.2266 4.47222C67.357 4.94698 67.418 4.53185 67.5181 4.7188C67.618 4.90574 67.4686 5.13942 67.5853 5.25286C67.8273 5.48749 68.1382 5.43594 68.3839 5.45061C68.4819 5.45449 68.415 5.02843 68.4291 5.0191C68.6318 4.91103 68.8368 5.36424 68.9492 4.51556C69.0898 6.70994 69.0715 4.30271 69.3613 4.742C69.3841 4.77753 69.4131 5.81523 69.3255 5.96758C69.2378 6.11978 69.105 5.79541 68.9834 6.03289C68.9546 6.08862 68.7896 7.06101 68.7671 7.11992C68.5909 7.58027 68.5658 6.02956 68.5565 5.94439C68.4508 5.02523 68.2492 6.0728 68.1961 6.14519C67.9533 6.47687 67.747 6.25878 67.5439 6.49553C67.4111 6.64854 67.3981 7.66432 67.2938 7.63322C66.9471 7.53046 66.826 6.11344 66.4993 7.34209C66.4292 7.60413 66.4989 8.71434 66.2478 7.84135C66.232 7.78632 66.0457 6.98769 65.938 7.49284C65.9245 7.55653 65.9249 7.88009 65.9071 7.90727C65.7875 8.08308 65.7078 7.82532 65.5776 7.94877C65.4474 8.07223 65.2908 8.25627 65.1421 8.14653C65.0526 8.0809 64.9376 7.47808 64.8947 7.33049C64.7736 6.90533 64.6438 7.60241 64.5687 7.08757C64.4931 6.57014 64.641 5.78433 64.4426 5.45C64.4353 6.29062 64.4184 7.15343 64.4065 7.99882C63.9718 7.96922 63.544 7.6974 63.1078 7.73454C63.0537 7.73999 63.109 8.19191 63.051 8.20939C62.8064 8.28119 62.5928 7.95903 62.3391 8.08732C62.1427 8.18836 61.9274 8.66685 61.7221 8.78739C61.5967 7.82549 61.292 8.15203 61.0707 8.06413C60.9932 8.03376 60.9983 7.77685 60.9432 7.69304C60.7352 7.38306 60.8327 8.23309 60.7757 8.36686C60.531 8.93778 60.51 7.01379 60.2216 7.06132C60.2063 7.06319 60.0195 8.08876 59.9938 8.15263C59.8303 8.56909 59.9667 7.79567 59.8644 7.71989C59.6776 7.58142 59.5478 7.33649 59.3287 7.63688C59.2648 7.72586 59.1115 8.36509 58.9874 7.87065C58.971 7.8059 58.9801 7.46692 58.9669 7.44707C58.7291 7.11615 58.7228 8.18129 58.5869 8.54203C58.4509 8.90269 58.241 8.16741 58.1982 7.95549C58.0865 7.40727 58.2839 7.7212 58.29 7.6674C58.3611 7.02717 58.2079 7.1374 58.0909 7.0833C58.074 6.03891 57.9104 6.1016 57.9696 7.03142C57.9764 7.13298 58.0674 7.03558 58.0909 7.0833C57.9882 8.10799 57.8084 8.23922 57.6098 7.28166C57.5168 6.83287 57.6047 6.3096 57.3223 6.50102C57.1941 6.58744 57.2436 7.30655 57.1305 7.50261C56.8721 7.94993 56.5363 7.27912 56.2698 7.38481C56.1731 7.42318 56.2673 7.81682 56.2012 7.85661C56.0259 7.96343 55.8712 7.66808 55.6951 7.81938C55.6791 7.83359 55.7181 8.24565 55.6633 8.2509C55.2481 8.29875 54.8866 8.03482 54.453 8.02751C54.2436 8.02416 53.8691 8.25142 53.6521 8.20573C53.276 8.12897 52.8133 7.52977 52.4921 7.67534C52.2825 7.76851 52.3285 8.18066 52.2387 8.46147C52.0655 9.00579 51.7588 8.03078 51.7175 7.8798C51.7162 7.87481 51.8965 7.77765 51.8003 7.56608C51.7444 7.12525 51.7195 7.87789 51.7175 7.8798C51.6904 7.78227 51.3302 7.68871 51.2587 7.7675C51.2198 7.81055 51.2415 8.20104 51.2213 8.21611C50.7396 8.56555 50.2571 8.6648 49.7686 8.48222C49.76 8.47433 49.773 8.03755 49.7528 8.02446C49.47 7.83025 49.2889 8.36457 49.0556 8.6818C48.8224 8.99889 48.6375 8.89269 48.4994 8.14286C48.3235 8.23727 48.071 7.90578 47.9258 7.70463C47.7805 7.50349 47.7602 8.35372 47.7474 8.37052C47.3488 8.9085 47.1183 8.42185 46.7047 8.34611C46.508 8.30865 46.118 8.43197 45.9051 8.52494C45.7368 8.59984 45.6354 8.40059 45.4804 8.528C45.4594 8.54501 45.4806 8.92357 45.4742 8.93815C45.3012 9.39108 45.3843 8.46562 45.3486 8.30033C45.2191 7.69927 45.1391 7.37915 44.9175 7.66191C44.8664 7.72666 44.7175 9.0592 44.6243 9.13712C44.5032 9.236 44.5489 8.75837 44.4221 8.87406C44.4112 8.88353 44.4135 9.17819 44.3352 9.1652C43.9718 9.10877 43.5756 8.93731 43.198 8.96684C43.1465 8.96974 43.2126 9.43712 43.1381 9.44901C42.7884 9.50442 42.4051 9.48712 42.0644 9.26835C41.9805 9.21303 42.0331 8.88578 42.0149 8.78861C41.9032 8.20069 41.7447 9.05493 41.7185 9.07121C41.0947 9.48171 40.6174 8.70864 39.9816 9.0767C39.947 9.09831 39.6806 10.0141 39.5618 9.22868C39.5536 9.17642 39.436 8.37289 39.3321 8.92228C39.3256 8.95665 39.3989 9.37033 39.271 9.32816C39.1432 9.28609 38.9374 9.56234 38.7616 9.10783C38.706 8.96465 38.5745 8.16309 38.4085 8.80204C38.3977 8.84665 38.1414 10.2914 38.05 9.29459C38.0351 9.13051 38.0507 8.07566 37.8526 8.6165C37.8147 8.72135 37.8834 8.95663 37.7837 9.10355C37.6309 9.32999 37.4285 9.04747 37.2407 9.51737C37.2079 9.60056 37.0685 10.3165 36.9567 9.77311C36.9391 9.688 36.9724 9.33584 36.9134 9.29643C36.6325 9.10738 36.3384 9.34294 36.0532 9.09928C35.9522 9.01367 36.0039 8.44435 35.8986 8.29179C35.7933 8.13928 35.5811 7.99257 35.4709 8.25273C35.3607 8.513 35.4811 9.42035 35.316 9.49296C34.5983 9.8083 33.8873 9.27602 33.1706 9.19816C33.0643 9.18653 33.1524 9.51121 32.9957 9.51737C32.4182 9.54153 31.4211 9.84595 30.9199 9.15604C30.5184 8.60347 31.0237 8.18279 30.7169 7.95793C30.5688 7.85066 30.4086 8.90555 30.3729 8.93876C30.0237 9.27611 29.781 8.80882 29.4668 8.95219C29.4019 8.98194 29.4655 9.40949 29.4103 9.43009C29.2216 9.50424 29.0233 9.3134 28.8431 9.3483C28.7622 9.36495 28.7771 9.6915 28.7027 9.6663C28.5246 9.60975 28.3671 9.47249 28.1935 9.16642C28.1777 9.13853 28.2844 8.73231 28.1527 8.7172C27.9394 8.69391 27.6748 8.39197 27.4294 8.70378C27.3566 8.79757 27.3538 9.5439 27.1973 9.02848C27.1645 8.92083 27.2064 8.02466 27.0241 8.79899C26.9935 8.92767 26.6873 9.9721 26.537 9.29887C26.4974 9.12168 26.3962 8.38833 26.3087 8.50358C26.2968 8.52197 26.3444 8.92285 26.2718 8.96195C26.0162 9.09279 25.7483 9.05002 25.4857 9.17558C25.4156 9.2099 25.52 9.62473 25.4155 9.66263C25.1281 9.76749 24.7692 9.66186 24.4881 9.53202C24.3845 9.48336 24.4561 9.13973 24.4486 9.10233C24.3273 8.49408 24.2557 9.31508 24.2154 9.36295C23.9651 9.6496 23.7745 9.26395 23.5438 9.366C23.4802 9.39313 23.5253 9.78459 23.5126 9.81949C23.3812 10.1605 23.4791 9.45754 23.3959 9.38004C23.1628 9.16062 22.903 9.19208 22.6673 9.2421C22.5807 9.26105 22.678 9.71496 22.6003 9.72672C22.1405 9.80494 21.6624 9.7615 21.2136 9.51127C21.1291 9.46333 21.1823 9.11381 21.1646 9.03397C21.0433 8.47545 20.8654 9.23728 20.8244 9.30985C20.6383 9.64121 20.566 9.33212 20.4016 9.38981C19.5986 9.67705 18.6072 9.47234 17.8492 9.34586C16.8615 9.18309 16.0951 8.85059 15.1532 8.93693C15.0934 8.94198 15.1537 9.40695 15.1021 9.41727C14.4359 9.52936 13.78 9.34767 13.1124 9.48197C13.0576 9.49217 13.1366 9.93296 13.0486 9.96415C12.8683 10.0312 12.6398 10.0072 12.4575 9.86649C12.3685 9.79868 12.4878 9.42043 12.3983 9.3599C12.1898 9.21809 11.9664 9.1867 11.7523 9.25736C11.6611 9.2884 11.7986 9.73922 11.6802 9.74442C10.8734 9.78915 10.0811 9.86679 9.26578 9.283C9.20989 9.2429 9.16084 8.32665 9.042 8.50236C9.03305 8.75664 9.03354 9.05576 9.02963 9.32755C7.85517 9.47396 6.69269 9.15633 5.51492 9.10722C5.46526 9.10525 5.55108 9.59073 5.45494 9.58939C4.89852 9.58222 4.35819 9.71671 3.78903 9.23417C3.73256 9.18698 3.76153 8.33291 3.59511 8.46208C3.56576 8.48565 3.31512 8.59955 3.25031 8.78495C3.24151 8.81292 3.28724 9.21156 3.20647 9.22318C2.73711 9.28372 2.24525 9.19271 1.7767 8.94914C1.70108 8.90906 1.78161 8.48454 1.72775 8.45231C1.3457 8.22696 0.93013 8.54967 0.565057 8.16423C0.320691 7.9047 0.411162 7.17087 0.281309 6.44853C0.262943 6.34662 0.111624 6.33047 0.103798 5.91021C0.0837087 4.8534 0.157003 3.69621 0.126928 2.56976C0.120575 2.32713 -0.0820809 2.58846 0.0379041 2.00214C0.0462863 1.9629 0.193213 1.7683 0.229401 1.5694C0.254596 1.43188 0.209193 1.00447 0.260599 0.828434C0.312002 0.652564 0.368486 1.01084 0.45371 0.80402C0.538896 0.594636 0.501439 0.108407 0.671564 0.050849ZM47.2716 6.80559C47.1371 6.39728 47.1173 7.89275 47.2628 7.53496C47.2698 7.51589 47.2786 6.82562 47.2716 6.80559ZM63.5464 6.56938C63.3706 5.90977 63.2503 6.87966 63.3743 7.38908C63.4983 7.89795 63.6 6.76934 63.5464 6.56938ZM65.3699 6.08782C65.1644 5.56775 65.1321 7.68839 65.3522 7.25969C65.365 7.23546 65.382 6.11802 65.3699 6.08782ZM0.883501 6.24285C0.881644 6.22299 0.77287 6.20363 0.770271 6.22331C0.71235 6.69827 0.929854 6.73665 0.883501 6.24285ZM67.1795 5.56353C67.1153 5.27666 66.9306 5.60781 67.0103 5.96453C67.0745 6.25149 67.2594 5.92037 67.1795 5.56353ZM40.2549 5.20952C40.2527 5.18724 40.1748 5.16717 40.1763 5.29314C40.1816 5.69886 40.2901 5.58436 40.2549 5.20952ZM70.255 5.53911C69.8006 5.45929 69.5251 3.70754 70.0199 3.90521C70.1095 3.94097 69.8268 4.46383 69.9409 4.62176C70.1495 4.90948 70.2881 3.8096 70.5011 4.39898C70.5396 4.50686 70.2809 5.54756 70.2542 5.54155C70.2544 5.54074 70.2547 5.53993 70.255 5.53911ZM47.1942 5.00933C47.1915 4.98955 47.0835 4.9708 47.081 4.99041C47.0225 5.46518 47.24 5.50323 47.1942 5.00933ZM35.7044 4.28484C35.6984 4.2427 35.4479 4.20329 35.4397 4.24212C35.3091 5.0185 35.8155 5.10048 35.7044 4.28484ZM54.4646 3.91497C54.5824 3.43735 54.7233 3.38112 54.8172 3.98089C54.7001 3.94905 54.5823 3.94436 54.4646 3.91497Z" fill="#F5CF68"/>
</svg>
