<svg width="205" height="194" viewBox="0 0 205 194" fill="none" xmlns="http://www.w3.org/2000/svg">
<g clip-path="url(#clip0_522_154)">
<path d="M150.68 91.95C154.71 93.28 157.7 91.89 160.15 88.47L153.15 88.49C152.65 87.12 152.5 86.53 152.09 86.65C151.49 86.8101 150.2 87.3 150.2 87.74L150.18 91.36L148.13 89.05C147.65 88.51 146.57 90.85 146.15 91.72C145.48 93.1 142.01 92.65 140.42 92.04L137.5 90.93C136.08 90.39 134.12 95.28 133.29 94.81L130.93 93.47L124.49 97.92L123.04 95.86C122.74 95.44 121.86 96.35 121.38 96.72C121.04 96.2701 118.85 94.11 118.45 94.82L116.46 98.28L113.8 98.76L112.37 100.77C111.23 99.56 108.34 98.93 106.93 99.63L101.63 102.24C100.9 102.6 98.41 102.39 98.2 103.15L97.14 107C96.88 107.94 94.33 107.63 93.56 106.93C92.68 106.12 91.32 105.07 90.85 105.55L88.11 108.36L84.68 105.27L79.82 108.01C79.29 108.51 77.91 109.63 77.23 109.42L73.73 108.37L61.41 113.09C59.22 113.93 57.55 113.65 54.94 112.43L55.7 115.84L47.38 115.16C39.8 116.93 33.43 114.74 30.26 107L35.8 101.3L45.67 93.83C44.24 93.32 42.97 92.8101 42.7 93.15L41.34 94.87C39.27 92.23 36.25 91.15 32.67 93.19L26.88 89.99C22.42 92.76 16.48 92.04 14.38 86.97C7.38002 85.69 2.26002 80.92 0.0200195 74.59C3.27002 67.16 9.13002 62.8101 15.35 58.3801L24.6 51.7901L32.05 47.1301L39.42 42.71L52.63 36.01L60.4 32.07C61.83 31.35 63.69 30.23 65.74 29.4L79.91 23.68L88.74 20.31L95.32 17.32C98.63 15.81 101.39 15.14 104.27 12.48C106.87 10.08 111.11 9.15005 114.22 8.70005C115.97 7.25005 118.36 5.34005 120.81 6.38005L119.66 7.88005C119.41 8.20005 120.54 9.57005 120.67 9.94005C119.28 12.17 114.15 11.86 114.48 12.82L113.62 10.26L112.69 12.25C112.45 12.76 111.43 12.9 110.67 13.13C106.19 22.12 96.94 18.67 94.13 26.25C92.03 26.35 91.82 25.76 94.09 24.59L90.68 24.48C90.04 24.46 89.65 23.0201 89.16 22.07L85.62 29.22C85.02 27.21 84.34 26.27 84.02 26.96C78.58 29.11 77.33 34.6301 76.36 34.07L73.56 32.4701L65 37.98C64.48 38.3101 61.78 38.23 61.93 38.82L62.76 42.19L56.46 41.1101C55.61 40.96 55.29 42.9501 55.42 45.37L51.73 42.7001L44.73 49.9501C42.25 48.48 40.9 49.6 38.15 51.41L38.64 49.42C38.73 49.07 38.69 47.59 38.41 47.84L36.19 49.85C35.09 50.84 33.54 53.49 33.02 54.76C33.79 56.98 33.87 56.78 33.55 56.68L31.75 56.1101C31.28 55.96 31.58 56.0101 33.32 54.7201C33.4 54.57 30.88 53.1201 30.65 53.8101L29.59 57.0601C29.99 57.0101 27.04 55.34 26.5 55.7901C24.31 57.5801 22.09 62.72 21.39 65.85L20.63 63.66C20.46 63.17 18.28 62.6101 18.08 63.0801L16.09 67.87L12.99 70.88C11.39 72.43 16.67 78.09 23.15 78.47L35.3 79.17C46.58 79.82 57.42 77.84 68.56 75.27C75.24 73.73 80.75 70.69 86.5 66.78L104.66 54.42L103.07 50.82L96.19 56.2201L96.63 53.7001C96.7 53.2801 95.72 53.12 94.82 52.85C94.35 52.71 94.19 52.3701 94.41 54.2901C94.96 54.3601 93.06 55.87 92.55 55.57L89.75 53.93L87.44 55.8101C86.91 56.2401 85.59 55.81 84.29 55.6L80.42 60.94L79.02 58.78C78.64 58.19 76.73 58.82 76.41 59.44C76.09 60.06 76.34 60.8 76.94 63.16L76.18 64.06L73.16 61.17C72.36 60.4 69.65 62.41 69.03 63.2201L66.41 61.2901C65.86 60.8801 64.38 62.5 63.7 62.59L57.57 63.3801C56.67 63.5 54.94 63.68 54.69 64.31L53.65 66.89C52.54 65.09 50.49 63.03 48.47 61.76L41.68 57.4701C44.97 53.3901 48.51 50.5101 52.74 49.1501L63.88 45.5801L77.46 41.03L110.01 30.66L144.55 19.84L143.7 8.76005C142.22 6.22005 136.49 5.43005 133.08 5.97005C132.3 5.90005 132.05 2.52005 132.72 1.79005C133.39 1.06005 134.45 0.650049 136.19 0.0500488L142.53 0.750049L141.37 4.78005C141.66 3.77005 148.79 5.53005 149.25 15.1L152.9 17.7801L176.48 11.77L184.4 11.21C189.59 10.84 194.27 11.06 200.2 11.66L204.64 21.64L201.46 25.2901C202.11 25.7101 203.27 26.26 203.44 26.68L204.31 28.7901C200.52 28.6 198.91 30.6301 198.05 33.4501C196.81 33.09 194.11 31.9801 193.63 32.8301C193.06 33.84 192.7 36.5401 192.55 38.0401C189.41 37.9201 186.51 39.29 185.24 42.17L181.41 46.1301L176.37 45.6501C173.94 47.3001 171.72 47.9001 169.18 47.6501L169.54 50.5601C169.62 51.18 168.31 51.59 167.16 52L168.09 46.73L161.72 50.9701C161.37 51.2101 161.38 53.68 160.96 53.76L158.64 54.2201C153.72 60.9501 146.89 56.59 143.02 64.23C141.1 64.3101 140.77 63.82 142.8 62.73C138.63 61.5601 133.04 63.9 130.16 67.44L125.31 69.03C124.5 69.29 121.65 67.47 121.45 68.29L120.52 72.03L118.45 71.26C117.91 71.0601 116.83 71.82 116.14 72.17L112.91 73.01C110.63 75.89 109.06 77.51 106.32 79.64C105.85 81.04 105.37 81.61 105.4 80.01L104.6 78.14C104.38 77.64 103.71 77.07 103.28 76.73C102.85 76.3901 101.76 78.42 101.6 78.95L100.98 81C100.84 81.46 99.72 80.52 99.58 80.06L98.73 77.27C98.53 76.63 95.98 77.87 96.28 78.48L97.71 81.39L93.98 81.59C93.12 81.64 92.55 83.03 91.81 84.28C83.62 78.82 80.56 90.02 70.83 89.06L67.31 89.5C67.18 95.7 62.98 99.04 56.58 101.3C58.01 103.52 60.57 103.47 63.16 102.84L79.47 98.92L90.41 95.51L102.77 92.44L109.71 90.67L130.44 85.09L139.13 82.29L147.43 79.86L187.74 68.86L195.89 68.79L196.56 77.36C194.8 77.58 193.48 77.58 193.36 78.22L192.53 82.78C191.18 82.27 189.59 81.66 188.37 81.53C186.54 81.33 184.68 84.24 184.31 86.25C183.99 87.57 180.78 87.48 178.5 87.13L174.05 93.7C174.59 94.93 174.28 94.27 173.4 92.32C171.97 91.87 169.16 92.8801 167.24 94.19L165.1 95.65C164.59 96 163.73 94.93 162.43 93.77C159.8 95.17 157.43 98.67 156.42 101.6C152.82 101.09 148.85 102.67 146.39 105.8C145.39 105.51 143.28 104.98 142.89 105.65L141.08 108.76C140.51 108.76 138.45 108.28 137.89 108.86L135.42 111.43L129.19 113.23C124.51 110.78 124.78 117.56 119.47 119.6C112.71 119.44 110.31 123.26 106.02 123.6C102.41 129.2 94.82 127.11 97.18 134.74C97.29 135.1 98.69 134.46 98.68 134.09L98.65 132.57L104.06 134.11L105.31 139.91C109.84 146.18 105.58 149.03 106.18 149.57L108.4 151.58L106.56 156.09C104.45 161.27 106.91 165.67 111 168.8L109.85 170.81C109.67 171.13 111.37 172.09 111.53 171.76L112.45 169.86L120.83 173.22L119.8 174.92C119.44 175.52 119.16 176.48 119.66 176.52C120.25 176.56 122.08 176.34 122.29 175.91L123.54 173.32C123.77 172.85 125.22 174.35 125.66 174.65L127.54 175.93C127.91 176.18 128.27 174.21 127.94 173.91L126.11 172.27L132.1 174.51C146.5 174.4 145.41 182.75 145.95 182.88L149.91 183.8L147.51 184.91C147.14 185.08 148.24 186.22 148.65 186.25L151.27 186.46L152.47 190.71L148.87 193.03L147.55 194.02L141.44 185.62L137.59 185.37C136.82 185.32 136.64 183.26 136.55 182.49C130.28 183.68 126.85 180.7 121.13 181.61C118.8 180.16 115.58 179.29 112.76 179.46L102.73 174.46C99.46 171.39 96.61 164.94 97.28 161.03L98.65 153.05C100.46 150.48 100.46 148.41 99.55 145.43L96.41 140.02L90.8 140.34C89 140.44 86.78 141.51 85.48 142.78L75.14 134.65C81.71 127.88 89.89 124.48 98.12 120.46L131.48 104.16L144 97.72C146.35 96.51 151.5 96.52 150.69 92.03L150.68 91.95ZM138.69 45.6101C138.14 45.3601 136.23 44.8301 135.81 45.2201L128.87 51.64C128.6 51.89 127.05 52.72 127 52.78C126.96 52.83 127.84 53.8901 128.61 54.8301L135.93 51.01C137.85 50.01 138.86 49.71 140.78 48.89L162.99 39.41L184.03 28.2701C184.96 27.7801 185.95 25.47 185.65 24.47C185.31 23.32 182.88 22.25 182.35 23.16C181.29 25 180.19 26.86 179.2 27.64C178.21 28.42 174.99 27.1 173.81 26.92L166.43 27.88C162.4 33.78 157.06 30.7001 157.31 31.68L157.76 33.4701L151.92 35.6301C151.01 35.9701 148.52 35.3601 148.16 36.18L146.48 40.0201L144.36 36.78L143.23 42.84C142.94 42.7901 141.19 42.42 140.73 43.01L138.71 45.6L138.69 45.6101ZM55.82 103.46L54.78 100.9L54.97 99.53C55.03 99.1 53.51 98.3 53.4 98.72L52.74 101.05L46.26 104.2C50.15 106.4 56.38 104.82 55.82 103.46Z" fill="#A5AB5F"/>
</g>
<defs>
<clipPath id="clip0_522_154">
<rect width="204.62" height="193.94" fill="white"/>
</clipPath>
</defs>
</svg>
