<svg width="282" height="190" viewBox="0 0 282 190" fill="none" xmlns="http://www.w3.org/2000/svg">
<path d="M62.2211 173.28L49.9144 177.991L42.9869 180.245L34.1101 182.79C25.077 185.383 4.08375 185.166 1.03426 178.521C-1.39039 173.226 0.830509 166.628 3.75775 162.073L7.22154 156.683C7.71055 154.932 8.16559 153.758 9.10964 152.685C11.5411 149.929 11.643 146.345 13.0896 143.189C15.2222 138.553 18.4687 134.324 21.3891 130.108L26.6935 122.444L22.9105 120.469L17.6265 115.575C14.9709 107.348 19.3312 95.4959 24.9412 89.278L28.3778 85.4699C30.85 81.4378 33.2068 77.4261 36.3377 73.7402L45.3979 63.0829L49.2896 58.0529C50.1725 56.9125 51.7414 55.9486 53.1473 55.073L55.375 52.0794C56.2511 50.8983 57.4465 49.9344 58.6622 48.8008L66.4727 41.4901L71.2949 37.4037L75.3563 34.0504C76.8437 32.8217 77.944 32.1293 79.8389 31.05C84.9463 28.1583 85.347 25.7689 89.7616 23.7189L93.6872 21.8997L100.567 18.5532C100.886 18.3971 102.19 18.3292 102.34 18.6415L103.304 20.705L104.948 16.1978L108.629 18.6347C110.354 15.7837 113.03 14.0527 116.487 14.2971L123.197 14.7655C124.447 16.1774 129.317 17.087 131.918 16.734L138.961 15.7769C139.443 15.709 140.292 13.9984 140.734 14.2088L142.771 15.1863C143.152 15.3696 144.36 16.1095 144.619 15.7905L146.289 13.7133L149.366 15.1252L150.527 13.1703L156.429 13.082C158.969 13.0481 161.639 13.1906 163.133 14.8401C163.343 14.3107 163.839 12.9802 164.287 13.1092L166.454 13.7473L175.039 16.1978L182.917 13.4486L186.714 12.4575L186.985 11.4325C187.23 10.5229 191.305 11.4461 195.747 8.40505L197.064 9.38932C197.424 9.65406 197.567 7.82807 197.547 7.16284C198.389 6.11748 201.044 5.70341 202.735 5.43867L206.457 4.1693C206.892 4.01997 208.087 3.40904 208.407 3.72808L210.152 5.48619C210.899 4.14894 211.66 2.16004 212.617 2.03785L217.243 1.41335L221.209 0.496962L224.157 0.00822156C224.938 -0.120752 225.529 1.28438 226.024 3.04927L229.936 0.313684L233.794 0.870305C232.327 1.58305 232.558 2.14646 233.896 2.11931L236.158 0.524114L237.115 2.94066C237.292 3.38868 239.078 2.59447 239.676 2.79133C243.207 3.95209 246.895 8.8938 246.59 13.4825C246.434 15.9059 246.474 19.585 245.809 21.377L244.464 24.9611L242.352 30.4391C246.026 33.8535 249.198 38.3065 253.232 40.7637C256.832 42.9563 261.803 42.4132 265.104 45.5493C266.401 46.778 269.417 48.0609 269.919 49.5271L271.441 53.9462C272.093 55.8468 272.385 58.2634 272.256 60.069L275.72 63.592C276.385 64.264 276.881 65.4044 277.356 66.4769C278.389 68.1468 279.672 71.0589 280.1 72.8577C280.243 73.4618 282.036 74.5615 281.757 75.0367L280.236 77.6229C281.234 78.4171 282.335 80.8405 281.9 82.4696L279.448 91.7217L277.207 93.3712C276.541 93.86 277.112 95.7335 277.458 97.1929L274.375 97.926L275.516 101.327C275.767 102.08 273.797 103.764 272.996 103.967C269.261 104.918 271.529 109.126 267.128 109.866L263.875 114.068C259.351 114 261.287 120.652 254.23 123.293L252.648 125.533L251.195 125.676C250.909 125.703 250.57 126.443 250.393 126.728C248.587 127.583 247.255 129.097 246.678 130.95C246.44 131.004 245.259 131.255 245.265 131.262C245.279 131.283 245.204 131.011 244.871 129.694C243.771 130.488 242.78 131.771 241.944 133.366C241.265 134.663 238.65 135.837 237.115 136.665L229.59 140.718L220.394 145.85L209.106 151.416C207.87 152.027 207.007 152.841 206.688 153.866L200.664 156.303C198.64 157.125 197.268 158.408 195.686 159.616L189.247 163.302L183.637 166.608L177.579 170.09L172.974 172.398L168.885 174.285C166.196 175.527 164.532 176.946 161.435 177.285L156.042 179.478L149.142 181.67L139.294 184.535L121.703 188.248C110.85 190.542 84.9395 187.461 76.2868 182.342C72.1302 179.885 71.1386 175.235 71.9808 169.52C68.6121 170.294 65.5219 172.018 62.2007 173.287L62.2211 173.28ZM203.727 23.9294L207.13 23.4678C209.031 22.4903 210.784 22.4971 212.699 23.3184C213.106 22.9654 214.723 21.8454 215.056 22.3342L216.584 24.5539L217.494 22.0423L219.015 24.8593L222.513 23.1691C222.33 24.4317 222.228 25.1987 222.656 25.1512L224.279 24.9747C224.775 24.4995 225.427 23.7868 225.617 24.0991L226.683 25.8775C228.992 24.228 230.588 24.7779 233.135 25.8436L237.693 27.751C240.844 23.1012 243.561 17.406 241.876 11.643C240.851 8.14032 236.375 6.66052 233.441 6.5587L221.324 6.13105L215.334 6.75555L209.242 8.10638C207.225 8.55439 205.866 8.91416 204.719 10.5094L202.932 9.56581C202.559 9.36896 201.846 10.4211 201.527 10.7198L199.448 12.6612C198.973 13.1092 197.506 12.4304 196.752 12.2335L192.032 14.6026C191.95 14.8401 191.787 16.0959 191.461 15.9602L189.41 15.1252L182.496 19.008L180.513 18.7161C180.207 18.6686 179.942 20.0126 180.058 20.2842L182.34 25.5653C182.645 26.2712 182.754 28.4909 183.535 28.4366L189.512 28.0361C189.512 28.3009 189.512 27.7035 189.526 26.3731C191.414 26.6174 193.125 27.2012 195.244 28.1923C195.231 28.0158 195.061 27.3437 194.871 27.1673L193.472 25.8639L203.72 23.909L203.727 23.9294ZM137.243 26.2509C138.968 25.8436 139.851 25.3413 140.883 24.5878C144.252 22.3817 147.987 21.7843 151.268 19.0759C144.347 17.9966 134.872 19.7886 131.062 23.3049L131.497 29.5363C133.609 30.1879 135.803 28.1515 137.243 26.2509ZM74.7586 45.8887C75.3699 45.8005 77.3327 46.1467 77.4006 45.5901L77.747 42.8613L78.6571 43.8048C78.8269 43.9813 79.54 43.5944 79.5332 43.35L79.4993 41.8566L85.7001 38.5712C86.617 38.0825 87.2011 37.6005 88.3693 36.4194C88.2199 36.3583 89.2794 37.3901 89.6122 37.0575L91.1607 35.4894L95.718 32.4823C96.0372 32.2719 97.0152 31.8442 97.2393 32.1293L98.5094 33.7788C98.815 34.1793 99.7726 32.7335 99.6232 32.2379L99.0731 30.4052L103.888 27.5949C103.501 27.3913 102.007 26.4749 102.387 26.2305L103.963 25.1987C104.343 24.9476 104.826 26.2237 105.206 27.208L115.516 22.2731C116.915 21.601 118.192 21.8251 119.19 19.8022C116.358 19.68 113.567 19.3338 111.162 20.0398L103.216 22.3749L101.817 22.9451C101.627 23.0265 101.729 23.2913 101.919 23.4202L102.652 23.9294L101.158 25.4702C100.92 25.7146 101.212 26.5767 101.24 26.7125C98.3803 26.5767 93.7823 27.4524 91.283 28.5249C90.9773 28.7353 90.4544 30.0793 90.1284 30.0454L88.315 29.8282C87.0992 32.4484 84.3825 34.5527 81.1429 34.6952L78.4194 38.7952L75.8997 39.1075L72.6125 43.255C70.2761 44.0967 68.6393 45.1149 67.2741 47.0699L65.386 49.7715C63.9326 50.654 62.1803 51.3735 62.0649 53.919C69.0536 51.8283 70.8262 46.4589 74.7722 45.8955L74.7586 45.8887ZM131.816 42.1892L139.518 38.1028C145.834 34.7563 148.653 30.4323 155.485 28.1651C156.966 25.8572 159.751 24.0855 162.209 23.3863C162.719 23.2438 163.717 21.54 163.235 21.411C162.752 21.282 161.544 21.058 161.048 21.1395L156.721 21.8454L151.621 22.6396C149.719 24.0719 146.907 25.1173 144.571 26.536L141.657 28.3009C138.907 28.8168 136.373 30.3237 135.226 32.652L132.325 34.0232C128.841 35.6659 131.246 42.4947 131.809 42.196L131.816 42.1892ZM51.2456 96.1611L58.8931 85.8704C60.3941 83.8476 61.5555 79.7883 62.7508 77.46L64.5167 74.0117C64.768 73.4347 65.0193 71.8666 65.5966 71.5544L67.899 70.3258C68.4491 68.6152 69.3524 67.0064 70.4391 65.9678L73.964 62.5942L76.9795 59.2205L79.5332 60.1097C79.934 60.2523 80.1105 58.5892 80.029 58.1751L79.6623 56.3423C80.1988 56.4102 81.2719 57.3809 81.4689 58.1344C81.6319 58.7521 80.6743 59.9943 80.1513 60.3745L75.6552 63.7074C73.9165 64.9971 73.7059 66.7145 73.9776 69.1514L72.6464 67.7667C72.3408 67.4476 69.5901 69.8845 70.0588 72.9256C72.9385 72.2604 74.3919 71.2964 76.3547 69.6741L79.9679 66.6874L87.1875 61.5488C89.5307 59.8789 92.8926 58.562 95.0388 56.5799C100.194 51.8079 104.69 50.8983 104.16 47.7826L101.151 48.5429C100.676 48.6651 99.5146 48.1084 99.5553 47.8098L102.211 46.425C102.727 46.1603 102.693 44.9045 102.659 44.2867L105.838 45.5154L107.604 42.1553C108.636 42.9767 108.819 43.2957 109.193 43.126L111.183 42.1892L114.551 40.4447L120.589 37.2068C127.225 33.6431 127.66 31.1519 127.096 23.7868C125.581 22.7686 123.584 25.063 122.437 25.5245C120.589 25.7961 118.131 26.3323 116.243 27.1876L104.948 32.3262C103.114 33.1611 101.559 34.125 99.7115 35.3197L89.8431 41.6801L83.8664 44.4021L78.3107 49.0927L75.0032 51.1359C72.5581 52.6429 69.9908 53.7832 68.9313 56.0776C67.5934 56.3967 66.2554 57.1909 64.9174 58.1751L59.5519 62.119L58.1053 62.791C57.7997 62.9336 57.7589 63.8839 57.7182 64.1961L54.0167 67.6852C51.8705 69.708 49.2081 71.6562 47.2181 73.808L43.2178 78.1524C42.1175 79.3471 41.3365 82.5443 39.8695 83.9562L40.0392 81.1052C37.6893 82.0827 36.4328 83.2502 35.5907 85.0151C33.5531 86.5085 33.1388 88.7553 32.7653 91.5588L31.2983 89.3255L28.3982 93.5138L29.6818 95.4008L27.9296 95.8421C28.3982 95.7267 22.7339 102.454 21.3212 107.253C20.6896 109.384 24.2077 112.283 25.8513 112.086L24.9887 113.708C24.8054 114.054 26.4218 114.591 26.6188 114.251L27.5424 112.656C29.1996 113.124 31.6854 114 33.2475 113.939C34.6398 113.885 36.5687 111.597 37.6757 110.599L41.5199 107.144C45.0991 103.927 48.3456 100.098 51.2592 96.1815L51.2456 96.1611ZM120.943 65.4519C120.107 65.7778 118.776 66.2936 118.599 66.8435L118.002 68.6898L116.154 71.1675L114.511 72.8781C114.151 73.2514 115.523 74.8398 115.767 74.8262C116.806 73.3872 117.818 71.8599 118.966 70.862C123.014 67.3322 126.749 63.7481 131.13 60.8564C132.59 59.8925 133.507 59.8721 134.39 58.148C135.674 55.6296 139.722 54.5231 141.814 53.6339C143.539 50.3689 148.897 46.3164 152.558 46.2281L155.139 43.5469L160.681 40.8724C163.615 39.4672 165.985 38.001 168.716 35.9035L171.901 34.03C173.721 32.9575 175.018 31.9053 175.066 29.6313C175.093 28.1923 174.495 26.278 173.857 25.0697C172.275 26.054 172.03 26.5292 171.453 26.4274L168.845 25.9658L164.478 26.4749C163.941 30.5341 161.415 28.6267 158.29 31.1247C155.193 31.2808 151.845 34.3762 151.831 37.1186L148.68 35.8017L144.259 40.8859L141.997 40.5465C141.019 40.3972 140 43.6894 139.586 43.5604L137.779 43.0038L135.939 46.9137L133.433 46.1127C132.869 45.9295 131.558 47.7283 131.884 48.217L133.446 50.5657L130.777 49.6357C130.566 49.5611 126.077 51.8894 126.281 55.1001L124.705 55.3445C124.386 55.392 124.223 56.4238 124.257 56.7632C124.63 60.836 121.825 60.6596 120.949 65.4655L120.943 65.4519ZM175.874 67.2168L191.875 57.5778L197.988 55.0594L205.181 51.3463L212.088 48.6447L226.181 43.8727L233.563 34.8581C233.869 34.4848 234.609 33.1068 234.242 32.8149C231.892 30.9482 223.654 28.2398 219.389 28.1312L207.999 27.8325C205.411 27.7646 201.662 29.6788 199.109 29.8146C197.119 29.9232 196.08 30.1065 194.877 31.3826L193.668 30.5613C193.41 30.3848 192.555 31.5999 192.263 31.7017L185.057 34.3151C183.094 35.0278 182.652 36.175 182.252 38.1639L180.336 47.5857C179.929 47.9387 178.441 49.1538 178.761 49.7308L179.895 51.774C179.657 52.0727 178.557 53.1859 178.856 53.6611L180.194 55.7789L177.803 55.84C180.302 60.87 172.757 62.024 175.874 67.2236V67.2168ZM238.127 41.9449L243.71 40.6755L240.097 36.9896L238.868 39.7523L236.925 38.6866C236.511 38.4626 235.58 40.1868 235.967 40.4515L238.127 41.9313V41.9449ZM116.834 78.0981L116.127 82.2795C113.207 83.257 112.032 85.178 110.164 87.1669C108.296 89.1558 106.768 90.3845 106.524 93.2558L105.247 90.8868L103.624 95.1701C100.594 96.8739 102.578 101.435 101.98 101.354L99.8881 101.082L99.3448 106.174L96.0032 119.804L94.7671 122.458C94.543 122.933 96.3836 123.809 96.4107 123.673L98.1222 123.307C98.4075 123.245 98.523 124.494 98.5569 124.814C98.5841 125.112 97.9932 124.929 97.3955 124.854C96.8182 124.929 94.9709 125.139 95.0252 125.743L95.2425 128.309L91.9621 128.866C91.2626 128.988 90.6377 130.536 90.8619 131.54C91.086 132.545 93.4835 133.55 94.4615 133.319C95.3173 133.122 96.5058 132.28 97.4974 131.371C119.672 110.817 142.554 91.5317 166.929 73.5365L168.763 69.6605L172.438 61.6031L174.937 54.0819L177.124 46.9612C178.007 44.0899 178.292 41.1846 178.632 37.7023L174.679 39.5215C172.227 40.2071 170.563 41.843 171.419 45.0199L169.626 44.9995C169.442 49.3439 165.7 50.2738 165.653 53.7833L164.253 53.9122C162.569 57.2384 160.926 59.587 158.121 61.4673C158.718 59.6346 159.228 57.9511 159.947 57.0008L164.98 50.3621C166.631 48.1831 167.004 44.6329 170.074 43.3025L170.617 41.6801C170.746 41.2932 169.211 41.1371 168.838 41.429C166.454 43.3228 162.06 45.2846 159.194 46.5132L151.933 49.6222C150.874 50.077 149.692 51.4346 149.237 52.5546C145.413 54.6861 141.542 57.0619 138.098 60.1437L134.974 62.9336L132.271 63.5241C131.626 63.6667 132.706 65.6624 133.12 66.0832L130.308 64.97L127.395 70.0407L122.545 72.3079C121.785 75.3964 119.964 76.883 116.82 78.1117L116.834 78.0981ZM106.85 62.2344L110.3 59.5531L116.467 54.2245C118.959 52.0727 120.827 49.4389 122.016 46.3571C122.457 45.2167 120.65 43.1056 119.734 43.5061L113.94 46.0381C113.2 48.6379 109.858 48.4546 108.833 49.5814L104.099 54.7811C102.809 56.1998 101.403 57.0279 99.2497 58.1819C102.618 58.5892 104.975 59.8721 106.856 62.2208L106.85 62.2344ZM244.009 52.7922L252.702 53.2538C251.507 50.8847 250.597 49.3574 249.578 48.1152L242.521 48.4343L238.107 49.0791L227.872 52.0387L228.306 53.3963L238.942 52.7786L244.009 52.7922ZM265.471 55.7314C264.187 53.7154 262.686 52.2084 260.948 51.3056C260.112 50.8712 257.755 52.6496 257.884 53.6882C260.119 54.8354 262.537 55.4599 265.471 55.7314ZM131.993 145.504L134.825 144.933C135.253 144.845 135.837 145.795 136.672 146.739L137.277 143.827L139.565 144.336C139.925 144.417 140.584 142.91 140.999 142.782L152.259 139.177L164.634 134.806C166.101 134.29 168.24 135.647 168.838 132.708L174.366 131.846C175.949 129.592 178.333 128.567 180.819 128.269C181.654 127.624 183.073 126.673 183.997 126.253L189.729 123.632C191.536 122.804 194.103 120.279 196.277 119.145L206.552 113.783C206.824 113.64 207.571 112.805 207.761 113.009L208.739 114.027C209.045 110.986 211.178 109.669 213.718 109.473L225.997 101.225C227.743 98.279 231.675 95.4009 235.207 94.1247L236.606 91.362L240.559 87.2416C241.068 87.357 242.372 87.8933 242.494 87.4317L243.146 84.9472C248.301 80.8405 253.096 76.0549 256.995 70.2511C257.491 67.8753 256.743 64.0332 255.888 61.7796L249.062 60.9582C246.359 60.6324 243.771 60.0826 241.204 60.3541L235.696 60.9379L231.899 61.1008L227.07 61.6913C224.938 61.9493 223.328 62.6485 221.535 63.6938C220.387 63.8432 218.139 63.8364 217.141 64.3115C216.142 64.7867 215.056 66.986 214.669 67.8142C210.729 68.7306 208.142 71.8123 206.091 75.2199C203.421 75.1317 200.392 76.2857 200.134 79.51L198.756 81.6347C198.457 82.0963 197.336 80.664 196.65 79.9852L193.995 84.0105C191.407 84.8047 189.858 86.5764 188.48 89.2237L187.033 88.2802C186.795 88.1241 185.858 88.4295 185.919 88.7078L186.333 90.5677L179.474 95.4484C178.36 96.2358 176.343 97.1114 175.018 97.6409C173.545 100.465 170.97 101.422 168.478 103.065L164.267 105.841L154.568 112.059L149.427 116.084C149.162 116.295 147.682 115.704 147.607 116.037L147.281 117.476C144.931 117.774 142.764 119.553 141.365 121.603C137.915 123.008 135.443 124.976 132.38 126.87L126.104 130.753C123.877 132.131 121.927 133.692 120.379 135.566C119.095 135.851 116.378 136.652 115.618 137.969C111.977 144.275 105.906 144.675 100.791 149.882C104.337 150.228 106.544 150.357 109.016 149.957L126.485 147.16L132.006 145.497L131.993 145.504ZM62.2143 99.847C66.4863 96.3648 70.5206 93.9211 75.6416 92.0951C78.6775 91.0158 80.3279 89.5767 82.5012 87.262L88.7293 80.6368L96.1662 73.1156L100.744 68.2758L103.562 64.8546C99.9085 62.8657 96.9677 62.791 93.1982 63.9925C90.3797 64.8953 88.7361 68.6763 82.8544 71.8463C81.5844 72.5319 79.8185 72.8916 79.5808 74.3103C79.3295 75.8241 78.5009 77.942 77.3055 78.2135L73.801 79.0145L70.0995 84.4721C69.5222 85.3206 68.7344 86.9633 67.9465 87.1398L64.8495 87.8322L66.235 89.278C61.7049 90.1537 60.3194 95.5434 62.2211 99.8538L62.2143 99.847ZM252.533 106.092C252.274 106.499 251.677 106.594 251.337 106.954L251.12 108.414C246.861 112.038 247.982 116.023 247.024 116.559L243.622 118.467C242.338 119.186 240.993 121.644 240.633 123.632C243.112 122.214 245.265 120.775 247.12 118.976L261.199 105.284L268.962 95.2379C275.006 87.4181 278.117 73.8963 268.982 68.5066C268.221 69.036 267.25 69.6537 267.305 70.0814L267.495 71.6494C266.761 71.4118 265.315 71.0249 265.267 71.5001L265.057 73.6791L262.313 80.9762C262.15 81.4039 263.012 83.0262 262.571 83.1416L260.744 83.61C259.997 83.8001 258.231 85.6804 258.754 86.2302L261.328 88.9386L258.401 90.2894L258.217 93.8803L258.754 95.6792C258.822 95.8964 254.964 97.2608 255.582 97.9599L256.845 99.4058L253.904 100.268C253.307 100.444 253.096 101.612 253.198 102.779L252.077 104.32C251.996 104.884 252.125 105.434 252.519 106.119L252.533 106.092ZM169.714 94.9325L173.178 92.5974L177.721 88.9454L184.568 83.2163C184.819 83.3249 185.967 83.8747 186.143 83.5285L187.121 81.6414C189.947 76.1839 196.813 78.485 194.83 72.9595C193.811 73.2107 192.847 73.7809 192.487 73.4415L190.762 71.8191L190.863 75.0027L185.722 76.211C183.875 76.6454 183.27 77.2224 181.545 78.7022C178.55 81.2817 173.66 82.585 170.346 84.8047L165.883 87.7982C164.973 88.4091 163.221 90.5406 163.309 91.5927C160.837 92.6924 159.391 95.428 158.63 98.5505C156.029 100.166 153.169 101.741 152.443 105.692L169.694 94.946L169.714 94.9325ZM88.1656 162.358C87.2487 163.994 86.6306 165.352 86.0329 167.728L84.7085 167.626C84.6814 168.868 84.9123 172.133 85.2043 173.531C85.2994 173.979 87.1468 173.307 86.9702 172.887L86.4269 171.563C86.4269 171.563 87.1264 172.33 87.6765 172.941C87.9686 173.267 87.2826 173.559 85.9922 174.108C87.8531 176.912 90.8551 179.057 94.4072 179.023C100.438 178.962 106.055 178.996 111.882 177.591L122.491 175.038L138.913 170.266L153.923 165.644L164.206 161.761L182.544 154.274L200.039 146.508L206.749 143.121L220.869 132.077L227.193 126.151L230.758 122.73L234.107 118.935C237.896 116.098 239.431 112.636 242.114 108.95L247.534 101.497L252.872 90.0315C253.117 89.502 252.967 87.7439 252.458 87.6692C251.948 87.5946 251.521 87.8118 250.278 88.2938L248.648 91.5452C248.451 91.9322 247.928 92.5838 247.609 92.3734L246.06 91.3552C245.557 94.3215 243.622 96.7992 240.756 95.5909L239.859 99.5484L236.932 99.0392C235.553 101.585 233.665 104.633 231.329 105.59C229.76 106.235 228.34 107.558 226.771 108.814L223.342 111.38L218.859 114.455C216.516 116.064 212.203 116.369 210.437 118.813C207.659 122.662 206.186 121.392 203.435 124.494C199.686 125.73 196.521 127.407 193.003 129.131L181.545 134.731L175.555 137.358L166.678 140.813L155.689 145.13L140.91 149.794C127.938 153.887 114.64 156.215 100.92 157.152C97.7895 157.369 93.8706 156.643 91.3305 157.817L87.5 159.596C87.2622 159.297 87.9007 161.544 88.1656 162.352V162.358ZM54.3427 104.592L58.0102 101.829L57.8132 95.6588L55.4226 98.6388C55.7689 99.1003 56.7062 100.492 56.1425 100.641L52.9096 101.497C52.9096 101.497 53.8129 103.451 54.3427 104.592ZM80.1513 110.307C81.4078 108.61 83.5132 107.653 85.7952 106.153C87.758 104.87 91.0249 101.32 92.6006 99.6298C93.0216 99.175 91.4663 97.2404 90.9909 97.6341L89.0077 99.2904L83.0717 104.015C81.2312 105.481 79.4993 106.479 78.2496 107.728L72.7211 109.934C75.3971 113.545 78.5484 108.705 79.411 109.568L80.1513 110.307ZM68.1978 141.655C68.7683 141.634 70.4051 141.587 70.6225 141.105L71.5054 139.143L73.0267 138.668C73.312 138.58 73.3935 138.614 73.3392 138.919L72.9996 140.915C76.6264 141.18 76.6468 136.93 80.7558 135.125L83.6694 131.099C83.9275 127.447 83.9411 123.877 84.7221 120.51C85.4556 117.333 87.4117 114.557 87.4252 110.837C84.498 112.188 81.7066 114.428 79.0035 114.638L69.2981 115.412C69.3388 116.96 69.4747 118.901 68.8227 119.302L66.432 120.761C66.8938 122.94 66.5338 126.388 63.4164 126.456L64.1024 130.563C64.3129 131.826 64.1703 133.584 64.0073 135.097L65.2298 139.951C65.3725 140.514 65.8071 141.566 66.1467 142.184C66.4048 142.666 67.7088 141.845 68.1978 141.641V141.655ZM133.46 114.217C128.78 113.959 125.615 117.245 125.534 120.904C128.801 118.677 131.347 116.512 133.46 114.217ZM31.9978 146.155L32.6159 147.207C31.6582 148.273 30.2591 150.255 30.5376 151.321C31.2236 153.928 38.3209 160.342 41.1803 160.016L52.8892 158.686L59.0561 154.572C61.5283 152.923 62.8323 152.197 64.9989 149.339L60.3669 144.512C58.3702 134.425 59.5316 124.617 63.6813 115.344L59.1988 117.109L54.8045 119.186L51.7211 120.551L44.7256 122.071L41.7236 122.641C41.2346 122.736 41.2753 123.585 41.1599 124.257C40.6573 124.216 39.5299 124.08 39.5027 124.406L39.3397 126.117C38.0221 127.237 36.6162 130.149 37.1324 131.832L35.2986 133.719C34.7824 134.249 35.7265 135.6 36.4125 136.36L34.6738 136.754L36.3445 140.501C32.9283 140.399 31.5156 145.347 31.991 146.148L31.9978 146.155ZM91.6701 119.342L92.913 116.288C93.1303 115.758 91.0385 114.91 90.6513 115.371C89.3881 116.892 87.4388 120.985 88.967 122.791C90.2099 122.078 91.1675 120.571 91.6633 119.342H91.6701ZM21.654 161.007L23.3587 160.627C26.1162 161.293 29.3015 161.659 32.5072 161.788L30.1437 156.235C28.1809 149.373 29.4577 142.727 30.5512 135.233C26.4218 137.134 23.8477 140.501 22.3671 144.383C21.4367 144.472 19.6301 144.675 19.3923 145.334L18.4415 148.015L16.9134 148.626C16.5534 148.769 17.4227 149.828 17.8574 150.303C17.8574 150.384 16.2817 151.599 15.8606 152.292C14.0676 155.19 22.1498 160.899 21.654 161.007ZM76.2732 146.624C78.1613 148.911 81.2448 148.816 83.0514 146.841L90.237 138.994C89.8771 137.283 86.454 135.844 85.7205 136.957C83.1872 140.793 80.681 139.734 80.7354 140.847L80.8373 143.196L76.2732 146.63V146.624ZM52.2168 171.8C55.409 169.459 59.0901 167.85 62.6286 166.872C66.4388 163.77 70.7923 163.166 74.161 158.971L65.2977 161.693L59.8847 163.41L56.5771 164.612L46.994 167.103C37.5399 168.501 28.1265 168.4 19.0595 164.788C16.0916 163.607 13.891 161.014 11.6701 157.987L7.16721 162.922C6.4337 163.723 6.98383 166.513 6.67141 167.551L5.73415 170.599L4.15167 172.12C3.83246 172.425 4.30788 173.165 4.54559 173.884C4.59313 174.645 5.29269 176.715 6.06694 176.919L8.71572 177.618C11.1404 178.256 13.9929 178.765 16.6417 178.718L25.566 178.561L26.6188 180.279C27.9635 178.473 31.047 177.509 32.4665 178.514C32.6295 178.894 33.0505 180.523 33.3494 180.313L34.6194 179.417C34.9115 179.206 33.9267 177.883 34.1033 177.57C34.7349 176.437 37.7844 176.953 38.8914 177.502C41.1531 172.832 46.1654 174.95 52.2236 171.807L52.2168 171.8Z" fill="#F5CF68"/>
<path d="M120.141 106.255L119.333 104.185C119.19 103.811 119.673 103.472 120.019 102.97L123.001 99.5281L130.118 91.5046C131.877 89.5225 133.147 88.7215 136.455 88.226L135.266 86.7869C134.954 86.4068 135.436 85.246 135.783 84.9474C136.625 85.3682 137.379 87.8459 136.666 88.5518L130.831 94.281L127.252 98.028C126.064 99.277 125.208 101.117 123.843 102.08C122.05 103.343 121.024 104.667 120.134 106.248L120.141 106.255Z" fill="#F5CF68"/>
<path d="M99.9222 123.694L99.0529 120.415L103.895 117.014L104.153 115.704L106.055 114.774C105.804 117.32 104.901 119.044 102.999 120.68L99.929 123.7L99.9222 123.694Z" fill="#F5CF68"/>
<path d="M89.4629 54.3536L91.3782 49.7852L97.7828 49.2218L89.4629 54.3536Z" fill="#F5CF68"/>
</svg>
