<svg width="16" height="162" viewBox="0 0 16 162" fill="none" xmlns="http://www.w3.org/2000/svg">
<path d="M15.9186 1.54274C16.1271 2.45036 15.9042 3.6401 15.5983 4.54428C15.5035 4.82765 15.0794 4.68417 14.9948 4.87978C14.8299 5.26236 15.0379 5.61879 14.8415 5.99686C14.7743 6.12216 14.1026 5.96619 14.0476 6.09757C13.7507 6.81752 13.9218 7.49862 13.779 8.22794C13.0745 11.8203 12.8224 15.3516 12.5163 18.9879C12.416 20.1869 11.8064 21.6444 12.073 22.8828C12.1047 23.0274 12.6943 22.9412 12.7429 22.9687C13.4868 23.4001 12.2965 23.2567 12.1384 23.5384C11.514 24.6564 11.4597 25.8996 11.6872 26.9755C11.7857 27.4333 12.9568 26.9743 12.2995 27.4352C12.2551 27.4672 11.629 27.3511 11.5622 27.4766C11.412 27.7613 11.5239 28.3014 11.4743 28.522C11.3755 28.9472 11.3818 29.0176 11.3747 29.4198C11.3595 29.9696 11.0483 30.6235 11.1901 31.2134C11.2223 31.3393 11.8641 31.1726 11.9733 31.3734C12.0824 31.5744 12.028 32.1061 11.8767 32.2854C11.7253 32.4647 11.2208 32.3883 11.1052 32.4201C10.1292 32.6811 11.4809 33.2962 11.5144 33.3753C12.0839 34.8181 11.3139 36.0555 11.3161 37.4099C11.3194 38.4381 11.5736 39.5375 11.5388 40.5158C11.4948 41.6814 11.147 42.6693 11.2067 43.8016C11.2123 43.9211 11.967 43.781 11.9753 43.927C12.0631 45.4777 11.9808 47.0176 11.4714 48.5615C11.4196 48.7164 10.7571 48.5168 10.6657 48.6715C10.1212 49.6187 8.81314 51.1173 11.698 51.6798C11.5853 52.3214 11.4689 53.1003 10.8874 53.6743C10.5131 54.0444 9.79133 53.6849 10.0993 54.1395C10.1679 54.2421 10.8001 54.1087 10.8552 54.2625C11.0866 54.9099 10.8811 55.6171 11.2077 56.2575C11.2756 56.3878 11.842 56.3522 11.944 56.3891C12.7701 56.6993 11.4046 57.2157 11.3054 57.3283C10.5655 58.1855 10.8566 58.8115 10.8386 59.61C10.8341 59.7953 11.5949 59.5763 11.6179 59.7546C11.7269 60.6794 11.6615 61.6374 11.3239 62.543C11.247 62.7444 10.5989 62.5592 10.529 62.6554C10.2286 63.0798 11.4527 63.1739 11.1882 63.581C11.134 63.6668 10.5792 63.6185 10.5183 63.6341C9.56178 63.8791 10.9171 64.0919 10.947 64.155C11.3558 64.9521 9.94098 65.4615 10.1413 66.2316C10.1667 66.3237 10.8687 66.116 10.8972 66.3749C11.091 68.1001 10.8981 69.9246 10.3366 71.6322C10.2503 71.8977 9.72293 71.7082 9.65792 71.7249C8.64218 71.9972 10.0031 72.1734 10.0544 72.26C10.4233 72.943 9.28201 73.5809 10.903 74.045C10.3405 76.9374 11.2508 79.8165 9.79854 82.6851C9.78172 82.7215 9.11144 82.6562 9.08077 82.7289C8.70442 83.6051 9.74615 83.4368 11.0202 84.0165C11.3401 84.1626 9.80192 84.6068 9.68917 84.6461C9.27367 84.7893 8.27648 84.6408 8.19601 84.6888C7.56414 85.0856 10.8619 85.0209 10.863 85.5562C10.8575 85.573 10.2505 85.5027 10.1901 85.5476C10.0007 85.6872 10.2419 85.8256 10.0329 85.9622C9.54943 86.2748 7.94699 86.3861 8.8796 86.8636C9.00064 86.9241 10.8713 86.8318 10.7829 87.3097C10.7461 87.5002 10.7782 88.3436 10.6569 88.58C10.5359 88.8161 9.93305 88.654 9.90694 88.6709C9.10983 89.307 8.77946 89.0658 7.59933 89.3845C6.42366 89.7031 9.22775 89.6148 9.54073 89.7447C9.85282 89.8748 9.19515 90.3412 8.96652 90.4558C8.73779 90.5704 8.35474 90.4275 8.22531 90.5294C7.37964 91.2048 9.61716 90.8258 10.0622 91.0484C11.116 91.573 9.0365 91.9817 8.83273 92.462C8.7777 92.592 9.25132 92.4859 9.29562 92.6016C9.46477 93.06 8.8159 93.3357 9.41085 93.8571C9.5078 93.9424 10.7581 94.364 9.84054 94.6369C9.70823 94.6755 9.19002 94.5657 9.07394 94.761C8.89973 95.0528 8.78646 95.5786 8.95968 95.8923C9.08784 96.1239 9.94173 95.8585 9.67647 96.15C9.55803 96.2795 9.0585 96.0394 8.87765 96.2828C8.69685 96.5249 8.7188 97.144 8.73605 97.3795C8.75368 97.6146 9.40139 97.4859 9.44503 97.5049C9.69499 97.6199 10.0073 98.0712 10.0066 98.1111C10.0856 100.122 8.99382 101.977 9.35519 103.936C9.38261 104.089 10.0656 103.987 10.0769 104.01C10.363 104.536 8.54702 104.122 7.93917 104.489C9.32524 104.436 9.07427 104.653 9.22628 105.024C9.30066 105.202 9.83735 105.105 9.89229 105.121C10.7075 105.386 9.65456 105.57 9.43917 105.618C8.64684 105.793 9.58303 105.984 9.05343 106.104C8.52778 106.223 7.74853 105.948 7.75851 106.304C8.25468 106.403 9.55129 106.14 9.76143 106.409C10.5563 107.428 9.53899 109.328 9.43331 110.147C9.32772 110.964 9.41927 111.228 9.23995 111.704C8.91573 112.564 9.87774 112.249 10.3181 112.783C10.7584 113.318 8.39137 113.058 7.88253 113.135C7.37393 113.21 7.89748 113.293 7.61789 113.387C7.33835 113.481 6.99238 113.278 6.88742 113.498C6.78256 113.719 7.6874 114.321 8.21945 114.4C9.34663 114.565 10.5296 114.293 10.114 114.877C10.0893 114.91 9.46692 114.801 9.40401 114.93C8.92487 115.95 8.89517 117.01 8.4714 118.029C8.41216 118.17 7.71977 118.044 7.67746 118.126C7.23459 118.975 8.40204 118.672 9.69893 119.137C7.97305 119.033 6.91714 119.29 6.90695 119.935C6.90022 120.323 7.654 120.256 8.18527 120.506C8.34542 120.582 7.82785 120.856 8.18234 120.906C9.34112 121.069 10.6383 120.811 10.1218 121.476C10.0972 121.505 9.46294 121.412 9.42452 121.513C9.17308 122.164 10.3852 122.242 10.5319 122.946C10.6471 123.498 9.90801 124.48 9.7878 125.108C7.8474 125.095 8.29173 125.689 9.6296 125.929C9.57483 126.337 9.65046 126.778 9.46554 127.172C9.40249 127.308 8.84069 127.218 8.77999 127.236C7.82775 127.498 9.12935 127.675 9.18038 127.763C9.67641 128.717 8.68991 129.495 9.65401 130.405C9.68874 130.437 11.0366 130.49 10.0524 130.733C9.98461 130.749 9.37136 130.448 9.32394 130.877C9.27641 131.305 8.55386 132.113 9.17843 132.707C9.32879 132.851 10.423 133.215 9.56808 133.507C9.45199 133.546 9.06542 133.504 8.8503 133.56C8.16487 133.742 9.52722 133.841 8.36984 134.054C7.2125 134.268 6.34574 134.712 7.14426 135.312C7.16747 135.331 8.24726 135.473 8.23019 135.661C8.20201 135.962 7.97706 136.39 7.9841 136.704C7.98785 136.855 8.65835 136.758 8.67062 136.784C9.04634 137.797 8.4486 138.517 8.18917 139.601C8.14029 139.8 9.05462 140.371 8.33175 140.756C7.54044 141.179 4.2487 140.744 5.03293 141.716C5.34661 142.107 9.52278 142.603 7.3591 143.307C7.89524 144.672 6.78788 145.935 7.55343 147.304C7.58735 147.366 8.75289 147.56 8.73702 147.705C8.71122 147.92 8.16647 148.038 8.13058 148.191C7.96649 148.834 8.43257 149.423 8.36007 150.042C8.33373 150.278 7.77046 150.195 7.73898 150.476C7.70802 150.757 8.44974 150.944 8.09152 151.324C7.81847 151.611 6.30242 151.898 6.1257 152.279C7.62112 152.294 7.59032 152.555 7.98507 153.02C8.06166 153.11 8.58215 153.014 8.64523 153.056C8.91349 153.228 8.48212 153.388 8.77413 153.551C8.84427 153.591 9.35496 153.593 9.44112 153.625C10.1932 153.902 9.04446 154.357 8.84445 154.435C8.08483 154.735 8.74905 154.875 8.44992 155.105C8.15082 155.335 7.77693 154.991 7.59543 155.26C7.22001 155.815 7.30249 156.53 7.27902 157.094C7.27281 157.319 7.95451 157.166 7.96945 157.198C8.14235 157.664 7.41721 158.134 8.77511 158.393C5.2641 158.716 9.11566 158.674 8.41281 159.339C8.35596 159.392 6.69563 159.458 6.45187 159.257C6.20835 159.056 6.72735 158.751 6.34738 158.471C6.25821 158.405 4.70238 158.026 4.60813 157.974C3.87157 157.569 6.35271 157.512 6.48898 157.491C7.95963 157.248 6.28351 156.785 6.1677 156.663C5.63701 156.105 5.98594 155.631 5.60715 155.164C5.36233 154.859 3.73709 154.829 3.78684 154.59C3.95127 153.793 6.21849 153.515 4.25266 152.765C3.83339 152.604 2.05705 152.764 3.45384 152.187C3.54189 152.151 4.8197 151.723 4.01145 151.475C3.90955 151.444 3.39186 151.445 3.34837 151.404C3.06706 151.13 3.47949 150.946 3.28196 150.647C3.08444 150.348 2.78997 149.989 2.96556 149.647C3.07055 149.441 4.03508 149.177 4.27122 149.079C4.95147 148.8 3.83614 148.502 4.65989 148.33C5.48778 148.156 6.74507 148.496 7.28 148.04C5.93501 148.023 4.55451 147.984 3.20189 147.957C3.24924 146.958 3.68415 145.976 3.62474 144.974C3.61602 144.849 2.89295 144.976 2.86497 144.843C2.7501 144.281 3.26555 143.79 3.06028 143.208C2.89863 142.757 2.13305 142.262 1.94017 141.79C3.47922 141.502 2.95675 140.802 3.09739 140.294C3.14599 140.116 3.55704 140.128 3.69114 140.001C4.1871 139.523 2.82705 139.747 2.61302 139.616C1.69955 139.054 4.77794 139.006 4.70188 138.343C4.69889 138.308 3.05798 137.879 2.95579 137.82C2.28946 137.444 3.52693 137.758 3.64817 137.523C3.86974 137.094 4.26161 136.796 3.78098 136.292C3.63863 136.145 2.61586 135.793 3.40696 135.508C3.51055 135.47 4.05293 135.491 4.08469 135.461C4.61416 134.915 2.90993 134.9 2.33275 134.588C1.75569 134.276 2.93215 133.793 3.27122 133.695C4.14837 133.438 3.64608 133.892 3.73216 133.906C4.75653 134.069 4.58017 133.717 4.66672 133.449C6.33775 133.41 6.23745 133.034 4.74973 133.17C4.58723 133.186 4.74307 133.395 4.66672 133.449C3.02722 133.213 2.81725 132.8 4.34934 132.343C5.06741 132.13 5.90464 132.332 5.59836 131.683C5.4601 131.388 4.30952 131.502 3.99583 131.242C3.28011 130.649 4.35341 129.877 4.1843 129.265C4.12291 129.043 3.49309 129.259 3.42942 129.108C3.2585 128.705 3.73107 128.349 3.48899 127.945C3.46626 127.908 2.80697 127.998 2.79857 127.872C2.722 126.918 3.14428 126.087 3.15599 125.092C3.16134 124.61 2.79773 123.75 2.87083 123.252C2.99364 122.388 3.95236 121.325 3.71946 120.587C3.57038 120.105 2.91095 120.211 2.46165 120.005C1.59073 119.607 3.15075 118.902 3.39231 118.807C3.40031 118.804 3.55576 119.219 3.89427 118.998C4.59959 118.869 3.39537 118.812 3.39231 118.807C3.54836 118.745 3.69806 117.918 3.572 117.753C3.50311 117.664 2.87834 117.714 2.85423 117.667C2.29512 116.561 2.13633 115.453 2.42845 114.33C2.44107 114.311 3.13992 114.34 3.16087 114.294C3.47159 113.644 2.61669 113.228 2.10912 112.692C1.60177 112.157 1.77169 111.732 2.97142 111.415C2.82036 111.01 3.35076 110.431 3.67259 110.097C3.99441 109.763 2.63405 109.717 2.60716 109.687C1.74639 108.771 2.52504 108.242 2.64622 107.292C2.70617 106.84 2.50885 105.944 2.36009 105.455C2.24025 105.068 2.55906 104.835 2.35521 104.479C2.32798 104.431 1.72228 104.48 1.69896 104.465C0.974274 104.068 2.45501 104.259 2.71946 104.177C3.68116 103.879 4.19336 103.695 3.74095 103.186C3.63734 103.069 1.50529 102.727 1.3806 102.513C1.2224 102.234 1.98661 102.339 1.8015 102.048C1.78636 102.023 1.31489 102.028 1.33568 101.848C1.42597 101.014 1.70031 100.104 1.65306 99.2362C1.64842 99.1177 0.900602 99.2696 0.88158 99.0984C0.792936 98.295 0.820611 97.4146 1.17064 96.6319C1.25915 96.4393 1.78275 96.56 1.93822 96.5182C2.8789 96.2615 1.51211 95.8974 1.48607 95.8373C0.829259 94.4044 2.06618 93.3078 1.47728 91.8472C1.44271 91.7677 -0.0225105 91.1558 1.23412 90.8828C1.31772 90.8641 2.60338 90.594 1.72435 90.3551C1.66936 90.3403 1.00748 90.5086 1.07494 90.2149C1.14225 89.9211 0.700253 89.4484 1.42748 89.0447C1.65656 88.9168 2.93905 88.6147 1.91673 88.2334C1.84537 88.2086 -0.466243 87.6199 1.12865 87.4098C1.39118 87.3758 3.07895 87.4114 2.21361 86.9563C2.04585 86.8693 1.66939 87.0272 1.43431 86.7981C1.07201 86.4472 1.52405 85.9821 0.772205 85.5507C0.639102 85.4754 -0.506448 85.1551 0.363027 84.8982C0.499202 84.858 1.06266 84.9344 1.12572 84.7988C1.4282 84.1535 1.0513 83.478 1.44115 82.8228C1.57814 82.5908 2.48903 82.7094 2.73314 82.4676C2.97716 82.2256 3.21189 81.7383 2.79564 81.4852C2.3792 81.232 0.927439 81.5086 0.811267 81.1293C0.306727 79.4805 1.15837 77.8471 1.28295 76.2007C1.30155 75.9565 0.782067 76.1589 0.772205 75.7991C0.733558 74.4723 0.246486 72.1817 1.35033 71.0305C2.23444 70.108 2.90754 71.2689 3.26731 70.564C3.43894 70.2238 1.75112 69.8559 1.69798 69.7737C1.15822 68.9716 1.90589 68.4141 1.6765 67.6922C1.6289 67.5431 0.944808 67.6893 0.911853 67.5624C0.793218 67.129 1.09856 66.6735 1.04271 66.2594C1.01608 66.0736 0.493599 66.1078 0.533925 65.9369C0.624396 65.5278 0.844023 65.1661 1.33373 64.7673C1.37835 64.7309 2.0283 64.976 2.05247 64.6733C2.08975 64.1835 2.57284 63.5755 2.07396 63.0119C1.92388 62.8447 0.72976 62.8382 1.55443 62.4787C1.72667 62.4033 3.16055 62.4995 1.92162 62.0808C1.71573 62.0104 0.0446353 61.3071 1.12181 60.9619C1.40531 60.8708 2.57867 60.6384 2.39427 60.4373C2.36485 60.4101 1.72344 60.5193 1.66087 60.3527C1.45154 59.7654 1.51998 59.15 1.31908 58.5467C1.26416 58.3856 0.600435 58.6256 0.539784 58.3854C0.372021 57.7251 0.541018 56.9008 0.748768 56.2551C0.826622 56.017 1.37643 56.1816 1.43627 56.1642C2.40946 55.8857 1.09587 55.721 1.01927 55.6286C0.560632 55.0536 1.17768 54.6158 1.01439 54.0858C0.970994 53.9395 0.344657 54.0432 0.288808 54.0141C-0.256876 53.7122 0.867943 53.9371 0.991931 53.746C1.34301 53.2105 1.29267 52.6137 1.21263 52.0722C1.18231 51.8733 0.456063 52.0968 0.437245 51.9183C0.3121 50.8619 0.381594 49.7637 0.781971 48.7327C0.858675 48.5385 1.41791 48.6607 1.54564 48.6202C2.43928 48.3414 1.22035 47.9327 1.10424 47.8386C0.574069 47.4111 1.06861 47.245 0.976306 46.8674C0.51672 45.0227 0.844264 42.7451 1.04662 41.0039C1.30705 38.7349 1.83906 36.9743 1.70091 34.8105C1.69283 34.673 0.948878 34.8117 0.932361 34.6931C0.753017 33.1626 1.04372 31.6558 0.828846 30.1223C0.812531 29.9964 0.107256 30.1778 0.057364 29.9758C-0.0499172 29.5615 -0.0115843 29.0367 0.213613 28.6178C0.322118 28.4135 0.927308 28.6875 1.02416 28.4819C1.25105 28.003 1.30128 27.4896 1.18822 26.9978C1.13857 26.7884 0.41725 27.1043 0.408925 26.8322C0.337365 24.9788 0.213135 23.1586 1.1472 21.2857C1.21136 21.1573 2.67736 21.0446 2.39622 20.7716C1.98937 20.7511 1.51078 20.7522 1.07592 20.7432C0.84166 18.0452 1.34988 15.3747 1.42845 12.6691C1.4316 12.555 0.654838 12.7522 0.656971 12.5313C0.668455 11.2531 0.453269 10.0118 1.22533 8.7043C1.30083 8.57457 2.66735 8.64113 2.46068 8.25883C2.42296 8.1914 2.24072 7.61561 1.94408 7.46674C1.89933 7.44652 1.2615 7.55157 1.24291 7.36603C1.14605 6.28779 1.29167 5.15787 1.68138 4.08151C1.7455 3.90779 2.42474 4.09279 2.4763 3.96906C2.83687 3.09139 2.32052 2.13673 2.93724 1.29807C3.35249 0.736703 4.52661 0.944538 5.68235 0.646234C5.8454 0.604042 5.87124 0.256426 6.54367 0.238449C8.23455 0.192299 10.0861 0.360673 11.8884 0.291585C12.2766 0.276989 11.8585 -0.188559 12.7966 0.0870748C12.8594 0.106331 13.1707 0.443855 13.489 0.526988C13.709 0.584867 14.3928 0.480566 14.6745 0.598659C14.9559 0.716742 14.3826 0.846499 14.7136 1.04228C15.0486 1.23797 15.8265 1.15192 15.9186 1.54274ZM5.11106 108.594C5.76435 108.285 3.3716 108.24 3.94407 108.574C3.97458 108.59 5.07901 108.61 5.11106 108.594ZM5.48899 145.981C6.54436 145.577 4.99254 145.301 4.17747 145.586C3.36327 145.871 5.16906 146.104 5.48899 145.981ZM6.25949 150.17C7.09161 149.698 3.69858 149.624 4.3845 150.13C4.42326 150.159 6.21118 150.198 6.25949 150.17ZM6.01145 2.02961C6.04322 2.02535 6.07419 1.77547 6.0427 1.76949C5.28276 1.63644 5.22136 2.1361 6.01145 2.02961ZM7.09836 154.327C7.55734 154.18 7.0275 153.755 6.45676 153.939C5.99761 154.086 6.52741 154.511 7.09836 154.327ZM7.66476 92.475C7.70042 92.4701 7.73252 92.291 7.53097 92.2946C6.88182 92.3067 7.06503 92.556 7.66476 92.475ZM7.13742 161.392C7.26514 160.349 10.0679 159.716 9.75167 160.852C9.69445 161.058 8.85788 160.409 8.60519 160.671C8.14483 161.15 9.90465 161.469 8.96163 161.958C8.78903 162.046 7.12391 161.452 7.13351 161.391C7.13482 161.391 7.13612 161.392 7.13742 161.392ZM7.98507 108.416C8.01671 108.41 8.04671 108.162 8.01535 108.156C7.25571 108.022 7.19483 108.521 7.98507 108.416ZM9.14425 82.0215C9.21167 82.0078 9.27473 81.4323 9.21261 81.4135C7.97041 81.1133 7.83924 82.2768 9.14425 82.0215ZM9.73604 125.118C10.5002 125.389 10.5902 125.712 9.63058 125.928C9.68152 125.659 9.68902 125.389 9.73604 125.118Z" fill="#A5AB5F"/>
</svg>
