<svg width="190" height="127" viewBox="0 0 190 127" fill="none" xmlns="http://www.w3.org/2000/svg">
<path d="M172.907 61.7279C172.998 61.9064 173.746 62.1524 173.935 62.2231C174.124 62.2939 174.195 63.0654 174.009 63.1429L173.018 63.5505L172.671 64.3389C172.563 64.5848 172.977 64.9858 173.237 65.4069C173.642 66.0706 173.193 67.6204 173.075 68.4357L172.59 71.798C172.394 73.1456 172.674 75.2378 171.757 76.2384C170.084 78.0611 167.531 77.6703 165.441 77.2188L164.166 76.9425C163.839 76.8718 163.738 76.0935 163.623 75.5882L160.962 73.8632L157.088 71.8317L155.041 70.4942L154.653 71.2522C154.592 71.3735 154.249 71.2118 154.232 71.0736L154.168 70.5043L153.675 70.5481C153.577 70.5582 153.227 70.5851 153.301 70.5177L154.002 69.8574C154.066 69.8372 153.318 69.5845 153.203 69.7429L152.478 70.7401L152.107 70.0158C152.003 69.8102 151.409 69.6418 151.257 69.5913L150.448 67.6338C149.082 67.2868 148.415 67.1689 147.309 67.5429C148.273 68.5469 148.89 68.6176 149.976 68.7726L149.339 69.6418C149.207 69.8204 149.777 70.2145 150.02 70.3392C152.07 71.4139 150.843 73.058 151.655 73.5667C151.942 73.7453 152.859 73.7251 153.065 73.998L154.06 75.3119L154.471 74.3281C154.586 74.0553 155.014 74.345 155.226 75.0929L155.779 77.0672L156.464 80.2072L155.591 83.8087L154.515 89.4485C154.255 90.8163 153.824 93.1106 151.935 93.178C149.302 93.2724 148.995 94.2224 147.42 92.5649C148.108 92.046 147.852 91.982 147.433 91.9955L145.876 92.228C145.525 92.2785 144.955 91.6687 144.662 91.5002C142.857 91.2374 140.079 90.1695 138.487 89.0071L136.474 87.5416C135.064 86.5174 133.095 86.1097 131.284 85.6718C130.738 84.7284 129.844 84.2534 128.681 84.341L125.076 82.0635L121.704 80.635C120.976 80.3284 120.075 79.0145 119.091 78.9067C118.055 78.7922 117.415 77.8522 116.727 77.4883C115.678 76.9358 114.828 76.7134 114.386 75.4905L113.422 75.6017C113.139 75.6353 112.613 75.2243 112.356 75.0896L110.556 74.7089L109.686 74.9548C109.477 75.0121 108.978 74.7089 108.92 74.6415C109.16 74.3315 109.44 74.0519 109.348 73.9441L108.812 73.3006C108.688 73.149 108.377 73.8295 108.384 73.8565L107.855 72.9131C107.578 72.4179 106.442 74.2776 104.813 73.3478L106.064 72.5628C105.184 72.5291 104.924 72.1147 105.912 71.9732C106 72.1618 106.01 71.168 105.794 71.1848L104.442 71.2926L104.199 69.5441L101.269 69.3352C101.056 70.8648 102.304 71.8755 103.612 72.2225C103.279 72.4886 102.921 72.7245 102.995 72.8424L103.397 73.4758L104.01 74.4427C104.155 74.6718 104.634 74.6449 105.049 74.6583C105.025 74.7897 105.218 76.016 105.535 75.9857L107.052 75.8375C107.059 76.3664 107.062 77.1514 107.383 77.5389C107.679 77.896 108.822 78.3003 109.079 78.1352L108.967 76.9863C108.947 76.7775 108.782 76.7572 108.145 76.4608L109.466 75.4602L110.154 76.4473C110.293 76.6461 110.883 76.2317 111.277 75.9015C111.601 75.7128 111.881 76.0194 111.685 76.3193L111.588 77.2997C111.571 77.4782 112.043 77.2356 112.157 77.1683L112.724 76.7909C112.866 76.6966 113.348 77.3199 113.186 77.367L112.302 77.6265L112.707 78.2026C112.829 78.3778 112.434 79.1392 112.235 79.0617L110.997 78.5631C110.795 78.7315 111.638 79.7692 111.999 79.7456C112.37 79.6041 112.953 79.3918 112.98 79.567C113.014 79.8029 113.027 80.2577 112.943 80.4801L112.626 81.3223C112.562 81.4941 112.835 81.9961 112.987 81.8816L113.901 81.1876L114.663 80.6115C114.811 80.4969 115.031 80.8911 114.956 81.0629L114.569 81.9557C114.397 82.3465 114.282 83.1416 114.285 83.5594L115.196 82.8418C115.388 82.6901 115.759 83.1517 115.944 83.428C116.079 83.6301 115.53 83.9401 114.99 84.2231L115.223 84.9508L117.802 84.4421L117.411 83.3774C117.361 83.2427 117.654 83.0001 117.802 83.0271C117.951 83.054 118.517 83.3404 118.592 83.4718C118.915 84.0344 118.318 85.2944 117.695 85.8065L119.451 86.6084L120.858 85.8369C120.885 87.2215 121.411 88.1076 122.304 88.5153C122.244 87.828 122.179 87.0598 122.446 86.979L123.518 86.6555C123.518 86.6555 124.388 88.2188 124.112 88.4816L123.397 89.1621L124.186 90.3345C124.341 90.5636 123.953 90.9713 123.68 91.2779L125.929 93.4779L125.572 92.4301C125.477 92.1572 126.159 91.4228 126.189 91.5609L126.364 92.6289C127.575 92.8142 128.637 94.054 128.33 95.1759C127.787 95.2298 127.487 95.3039 126.708 95.8126L129.403 95.8733L130.343 99.121C130.367 99.2019 130.384 99.8117 130.391 99.8117C130.401 99.805 130.091 99.8926 129.804 99.9701L129.163 103.39L128.114 107.918C127.949 108.635 127.413 109.636 126.853 109.818C126.088 110.067 124.83 110.044 124.064 110.023L122.672 109.986C122.362 109.976 122.001 109.181 121.815 108.858C120.547 108.696 119.306 108.47 118.136 108.056C116.841 107.662 115.84 107.052 114.96 106.108L109.119 102.925C107.261 103.134 104.735 101.655 104.324 99.8656L99.7379 97.4635C98.7094 96.9244 98.2137 96.1731 97.9675 95.0041L97.0638 95.6577L95.7452 93.771C94.1941 94.0776 93.0947 93.5217 92.0932 92.6289L90.3869 91.5171L88.512 90.5535L86.5966 89.0038C86.6843 88.9869 87.3891 88.6197 87.2677 88.5085L86.6877 87.9728C85.3186 86.7162 85.295 88.0065 83.4605 87.0295C83.1233 86.8476 82.4253 86.3321 82.604 86.0862L83.4639 84.907L82.3005 84.9171C82.0847 84.9171 82.0746 85.3888 81.9667 85.6987C80.8876 84.1928 79.8254 83.2258 78.2978 82.4375L78.6889 82.0669C78.7665 81.9928 78.7901 81.9085 78.7159 81.8513C78.5743 81.7367 78.1562 81.5447 78.0348 81.6289L77.3806 82.0871C77.2592 82.1713 77.0535 81.5144 76.9287 81.4268L76.062 80.8237C75.8395 80.6687 75.9541 80.0724 75.9811 79.9444C74.1467 80.2307 71.7862 78.4822 71.5097 76.6966C71.4759 76.4877 71.1455 75.8274 70.987 75.9285L70.2316 76.4136C69.7696 75.2311 69.0885 74.4494 67.9082 73.8565C67.5575 72.4314 66.556 71.3331 64.8868 71.2758C64.418 70.8243 63.8144 70.0932 63.8583 69.6283L63.9156 69.0387C63.9257 68.9343 63.5986 68.7052 63.5514 68.7995L63.022 69.8776C62.5128 69.3959 61.9867 68.4256 61.5315 67.4047L61.0965 67.9337L58.6314 65.4709L57.1814 65.2485C56.7768 65.1879 56.6587 64.1839 56.8408 63.7123C55.2391 63.5573 54.2139 61.9704 54.5242 60.3466L53.4754 60.4544C53.5294 60.4476 51.3746 58.9888 50.9092 57.21C49.8403 57.0112 48.6229 56.8697 47.9654 55.6737L45.969 56.2868L46.7345 54.7303L44.7787 52.9178C44.374 52.5438 43.7299 52.3383 43.0994 52.2945L42.6205 50.1956L41.5313 49.916C41.3324 49.8654 41.4605 49.2691 41.5549 48.8783C41.9056 48.346 41.7842 48.1742 41.2717 48.501C40.7557 48.7402 40.2566 49.0804 40.0543 48.9019L39.1169 48.063L40.2836 47.6924L37.7747 46.4391C37.7208 47.4161 37.7781 47.497 38.0074 48.757C38.1086 48.784 36.9654 48.4942 36.6215 48.4066C35.5896 48.5852 35.1242 50.0069 34.9421 51.4219L36.6147 51.1895L36.8069 53.5545L38.6043 52.9346L37.8388 54.0599C37.714 54.2418 38.3581 54.663 38.6684 54.8988L39.653 52.7325C40.2398 53.7365 40.4421 54.8651 40.2094 55.4008C39.3563 55.1717 38.7999 55.2054 37.9029 55.3907L39.0696 56.4115C39.2821 56.5968 39.2248 57.1291 39.2315 57.7254L39.7104 57.7996C40.0273 57.0887 40.2668 56.708 41.0356 55.8623C42.0439 56.9236 41.2346 58.8945 41.9258 58.9922L43.2646 59.1842L42.5193 61.9637C43.794 62.0547 44.2358 62.3781 44.4853 63.0991C43.9525 63.0149 43.8008 62.8633 43.6389 62.9138L42.7048 63.2204C42.4081 63.3181 41.7134 63.5135 41.8213 63.7123L42.3507 64.6724C42.4654 64.8813 43.1499 64.2378 43.3185 64.0593L44.7146 65.7977L45.244 67.0443L45.7633 66.5625C45.8881 66.4479 46.485 66.5423 46.4884 66.7107L46.5254 67.7046C46.5322 67.8494 46.802 68.2133 46.7177 68.3312L46.2557 68.9714L47.2505 69.1701C47.4629 69.2139 47.4494 69.8439 47.5169 70.0596L48.6735 73.7419L50.046 71.552L50.255 73.8599C49.3648 74.0418 49.3243 74.2136 49.2805 74.6112C49.1557 75.7667 49.5503 75.7937 50.4034 76.0363C50.6462 76.107 50.9632 76.2889 51.0745 76.2081L51.8433 75.6623L51.9748 77.4041L52.7336 77.2626C52.8954 77.2323 53.2192 77.5726 53.1686 77.5624L52.4132 78.809C53.2293 79.7018 53.3507 80.1768 53.2799 81.0696L53.2326 81.6895C53.2225 81.8412 52.7471 81.6761 52.4301 81.5851L52.8921 83.2056L53.4687 83.7716C53.58 83.8794 54.1499 83.4145 54.0318 83.3168L53.2731 82.6969L54.5107 81.8849C54.8007 81.6963 54.8277 81.0562 54.5309 80.443C54.3927 80.48 54.6422 80.1229 54.7973 80.0926L55.7314 79.9073C55.7381 80.4228 55.6741 80.6552 55.7955 80.7462L56.6048 81.356L55.6909 81.9658C56.2811 83.2831 56.1394 84.1826 55.0266 84.9609L56.6452 84.6644C56.5947 85.0047 56.4429 85.5707 56.6115 85.82L57.4107 86.9891C56.1698 86.3995 56.0214 86.8071 56.8476 87.4035C57.5996 87.1575 58.7023 86.9486 59.4205 87.1272C59.7712 88.4007 59.1946 89.4485 58.5842 90.5636L59.9837 90.1492L60.5603 91.4227L61.3022 89.307L61.98 90.5603C62.0542 90.695 62.3138 91.1633 62.3037 91.1566C62.2936 91.1465 61.6933 91.416 61.5349 91.4868C61.3663 91.5643 61.0931 91.8809 60.9852 92.0292C60.8773 92.1774 61.5247 92.7198 61.6192 92.5649L62.2295 91.5912L63.7638 91.8944C63.7504 93.1342 64.2562 94.3673 64.4416 95.4252L64.6001 96.3348C64.6305 96.51 65.143 96.4999 65.3858 96.5235L66.2019 98.8684L66.1277 99.5321C66.1176 99.6365 66.3402 99.623 66.3941 99.5321C66.4514 99.431 66.6335 99.0436 66.6538 98.9425L66.8021 98.2013C66.8426 97.9924 67.5406 97.7566 67.5946 97.9621C67.6486 98.1676 67.7093 98.7066 67.6722 98.9155L67.5103 99.8218C67.4732 100.034 68.2589 99.8184 68.7816 99.7241L68.1409 101.456L70.1237 101.129L69.311 102.598L69.9214 104.346L70.6228 103.818C70.761 103.713 71.1893 104.134 71.1387 104.306L70.7442 105.647C71.304 105.485 72.7 105 73.1957 105.361L75.3842 106.964L73.8364 107.591C73.8095 107.577 74.3793 107.894 74.5412 107.982L73.0541 108.238L74.2647 108.534C74.5345 108.602 74.7199 108.935 74.8852 109.232L74.3119 109.302C74.1534 109.323 74.0286 109.936 74.1838 109.966L74.8953 110.097L76.2745 110.353C76.6758 110.131 77.0872 110.579 77.1749 110.572C77.185 110.572 76.7736 110.886 76.6488 110.984C76.7837 111.024 77.5256 111.169 77.5019 111.415L77.3468 112.86L78.5777 112.294C78.4462 112.116 78.0078 111.556 78.1427 111.56L79.3904 111.593L78.5203 113.685C80.348 114.592 79.2892 118.453 77.5121 119.679C77.2591 122.058 75.5697 123.361 75.1145 125.875L72.3695 127.007C70.9296 126.613 69.5437 125.794 69.0278 124.274L67.0652 124.113L64.9677 121.93C64.6069 121.842 64.1011 121.882 64.01 121.633L63.548 120.37L62.8871 120.528C62.678 120.579 62.5094 119.544 62.7151 119.49L63.3423 119.325L62.7623 117.617L61.7035 117.014C61.464 116.876 61.5146 116.236 61.5146 115.906C60.7728 115.559 60.3209 114.912 60.0747 114.137L57.1511 112.651L57.8626 111.088L56.5104 111.752L54.3252 110.02L55.003 109.595C55.1649 109.494 54.9356 108.8 54.7568 108.861L53.7216 109.205C52.7369 107.136 50.9733 106.455 51.1857 105.239C51.3173 104.485 51.3442 103.811 51.1756 103.369L50.3899 103.908C50.8182 103.612 47.1628 102.5 47.699 100.59C47.7428 100.438 47.6113 99.7949 47.4663 99.8656L46.7649 100.206L45.0788 99.3704L43.7839 97.0087C43.3489 96.2169 43.8176 94.8221 44.4347 94.3404C44.7719 94.6773 45.0451 94.9805 45.0485 94.9434C45.0518 94.8962 45.2137 94.3471 45.18 94.465L43.9188 92.8748L41.0289 92.0561L40.9648 89.4283L39.5923 88.4378L39.6328 89.152C39.6429 89.3036 39.336 89.5361 39.3495 89.4485L37.569 87.6764L37.6095 86.4399C37.6196 86.1165 36.6754 86.0053 36.5203 86.0053L34.4903 83.1214L32.9694 80.5811C32.757 80.224 32.585 79.348 32.5918 78.9977L30.6157 78.7955C30.5954 77.4513 29.2432 75.9588 27.982 75.0929C26.7209 74.2271 25.8879 72.5594 25.2101 71.2151L23.2779 67.3913L22.7282 66.9499L23.2981 66.202C23.4296 66.0302 22.9407 65.5686 22.8699 65.3597L22.5057 64.2648C22.4113 63.9851 21.8616 63.8706 21.4974 63.8403C21.3187 62.9913 20.7016 62.3377 19.6866 62.1558L19.2482 60.9968L17.4913 59.0293L16.7157 59.2482C15.8828 59.4841 16.8 56.6844 16.2706 54.8988L13.6336 52.9009C13.5189 52.0115 13.8528 50.2192 14.1461 49.2186L11.3641 49.1647C11.2764 48.3325 11.0842 47.6553 10.3693 47.1028L10.4806 43.9628L9.2599 44.448L8.8485 42.3019L7.39511 39.4348C7.28046 39.3102 6.89603 39.0575 6.94999 38.9025L7.27371 37.939L6.12381 35.8434C6.01253 35.6413 5.46624 35.1325 5.56066 34.9371L6.10021 33.8018L4.80868 34.3543C4.52542 34.4756 3.57784 34.1555 3.60819 33.8557C3.64191 33.5356 3.77006 32.6731 3.58796 32.727L2.65388 33.0134C2.80225 31.4468 1.6827 30.5742 1.91538 30.2272L2.39422 29.5163L1.58153 29.5264C1.32188 29.5264 0.775593 28.7145 0.728383 28.4483L0 24.2875C0.748616 24.0214 1.23083 23.4453 1.50735 22.667L3.1226 23.6508C3.35528 22.7816 3.36203 22.6468 3.94541 21.7237L3.8611 24.2538L3.16981 24.3987C2.95063 24.4459 3.21365 25.433 3.34517 25.2949C3.84761 25.0422 5.01438 25.396 4.78844 25.7329C4.38716 26.3292 3.97913 26.9895 4.21518 27.2725L5.16949 28.4113L6.05974 25.4937L7.43895 26.3123C7.57383 26.3932 7.88744 26.8009 7.98861 26.9289C8.08303 27.0468 8.47082 26.4943 8.37303 26.3764L7.85035 25.743L8.99688 24.9816C8.8485 24.429 8.7642 24.0146 9.01037 24.0551L10.1232 24.2303C10.366 24.2673 9.98491 25.0388 9.79945 25.1972C9.60049 25.3724 9.30711 25.6149 9.34758 25.7329L9.51956 26.2618C9.59712 27.0333 9.68142 27.3466 10.2783 28.3506C10.2378 28.4281 9.61735 28.6943 8.80804 28.9941L10.3086 31.8511L11.472 33.859L9.88375 34.4116L8.94967 34.8529C8.73385 34.954 9.02723 35.557 9.16548 35.8636C9.39479 36.3993 9.442 36.5138 9.23293 36.022L9.83991 34.5733L11.6541 35.2841L11.7755 34.014C11.8059 33.6872 13.0401 33.6569 13.0232 33.8018C12.9625 34.2802 12.885 34.772 13.0637 34.735L14.3788 34.452L14.8307 40.0716C15.1915 40.3377 15.6265 40.6511 15.4579 40.8027L14.6014 41.5843L14.0214 42.1132C13.8764 42.2446 13.7718 42.2143 13.1109 42.3827L15.0229 43.1947C15.1645 43.2553 15.3028 43.8382 15.3095 43.9932C15.3163 44.2223 14.8138 44.0808 14.217 43.8988C14.2979 44.5356 14.8273 45.836 15.4276 46.2841C15.7445 46.52 16.5909 45.6811 16.6989 45.3105L16.8978 44.6198C16.9619 44.4008 17.8791 44.5288 17.8015 44.7343L17.38 45.9068C18.0578 46.2706 18.6716 46.6614 19.1909 47.0758L20.2733 45.6811L21.3592 47.0085L21.3962 48.5818C21.4064 48.9693 22.1921 49.3702 22.7417 49.8957C23.2138 50.3472 22.6203 51.9003 22.3708 52.4057L23.7601 54.2081L24.9134 52.6887L25.4192 54.0094C25.6317 54.5619 25.6991 55.0234 25.8981 55.3199C26.1375 55.677 27.5673 55.6872 27.6178 55.485C26.849 54.855 26.441 54.7135 26.4578 54.3665L26.5421 52.8066L24.0097 52.3046L24.7718 50.7313L27.1626 50.6639C26.7681 50.3472 26.5927 50.3539 25.8812 50.4045L25.4496 46.1729C24.5323 46.7659 23.6792 47.47 22.9474 48.2045C23.4735 48.9659 23.0115 48.7941 22.6102 48.4572L22.8496 46.6446L21.5986 44.6535L22.4416 44.4581C22.5765 44.4278 22.6237 43.9662 22.5967 43.9527H21.5783C21.2681 43.9527 21.2007 42.6691 21.3726 42.8409L21.9931 43.3092C22.1347 43.4137 22.472 43.3766 22.6608 43.3396L20.4554 41.3282C19.8282 40.7083 20.0609 38.8789 20.0103 37.9019C19.319 37.2011 18.83 36.5846 18.938 35.3684L17.3025 34.6002L17.5048 33.475C17.5554 33.1953 17.0462 32.818 16.6483 32.5451L18.1388 29.7724C17.5486 29.4691 16.8236 29.0986 16.9046 29.139L17.5385 28.3607C17.6464 28.2293 17.4373 27.7812 17.2687 27.8015L16.5606 27.8891C16.4392 27.9025 15.9941 28.3877 15.9873 28.2664L15.9502 27.2186L17.2451 26.848C16.7157 26.784 15.4815 26.5111 15.4343 26.0832L15.151 23.3408L14.3687 23.8698L13.5155 21.5013L12.9726 22.2021C12.8782 22.3234 12.5208 22.63 12.5073 22.4784L12.4263 21.5653C12.2206 19.1969 11.263 18.8364 11.472 18.7219L12.224 18.3075L12.8917 18.0379C13.0266 17.984 12.6051 17.6606 12.4567 17.6033L10.9089 17.0205C11.2157 16.2827 11.4956 15.902 11.3203 15.6156L10.3727 14.0624C10.2446 13.8536 10.629 13.1225 10.457 12.9574L9.71514 12.2432L9.41839 10.2049L9.38467 9.20427C9.37456 8.90442 8.81478 8.47318 8.40675 8.07563C8.55513 7.78589 8.91595 7.12556 8.72373 7.53321C9.13851 8.11943 9.52293 8.62479 9.68142 8.45297C9.88375 8.23735 10.2412 7.56017 10.2749 7.26706L10.3761 6.37089C10.3997 6.16201 9.69828 6.23613 9.6477 6.43827C9.53642 6.87962 8.46071 6.91331 7.78291 6.74148L9.17897 4.90198C9.06432 4.56844 8.85525 3.70259 9.09467 3.60152L10.2682 3.10627C10.919 2.76263 11.4181 2.60428 12.278 2.58407C12.3218 2.48636 13.1783 1.59356 13.4683 1.81592L14.8239 2.85022L15.1207 0.704133C15.1443 0.522204 15.8626 0.32006 15.9401 0.495252L16.537 1.90015L17.7779 0L19.3494 0.633383L19.9901 1.66095L21.811 0.0505359C21.9729 0.269525 22.3135 0.78499 22.1921 0.879324L21.3288 1.56324C23.3251 2.68851 22.5596 4.37978 24.5728 4.89187L23.949 5.75098L25.8441 6.12832L24.158 9.41315L25.9453 8.96506L27.6617 10.0128L25.6553 11.1415C25.4867 11.411 26.3735 11.8119 27.1255 11.8355C27.0749 13.1056 27.2064 14.6588 28.2653 15.5381L27.6415 14.0793L29.7119 13.8536L29.9581 14.2848L29.6816 15.3528C29.6175 15.6021 30.2717 15.9626 30.437 16.0637L31.0237 18.1087L29.5939 18.7623C30.2144 19.3856 31.3946 20.1234 32.1736 20.3019L33.0065 19.3586C33.2055 19.1329 33.8732 19.6483 34.1632 19.9111L32.0724 20.7669C32.44 20.8848 33.1684 21.2689 33.482 21.6731C33.7956 22.0774 33.9035 22.9601 33.8125 23.4891L35.0602 23.4621C35.3704 23.4554 36.0145 24.2774 35.8122 24.5065L34.6892 25.7564L37.5488 26.8649L37.822 27.8015L39.0865 28.5763L37.6028 28.9806L39.2956 30.5001L39.5788 28.9335C39.68 28.3776 40.7962 28.2327 40.9075 28.5797C41.0896 29.5938 41.4841 30.7325 41.8719 31.5883L42.2327 32.3834L43.0488 30.9313L43.8277 30.9482L42.1079 33.8725L42.7891 34.6305C42.9206 34.7754 42.7554 35.429 42.5666 35.3785L41.8078 35.1662C41.6224 35.1157 41.2312 35.4593 41.3425 35.6177L41.8921 36.3993C42.0506 36.6217 42.7992 37.0091 43.0049 36.8406C43.2106 36.6722 43.5377 36.305 43.7468 36.0186L44.3133 35.2538C44.4145 35.1191 44.7348 35.7322 44.8461 35.8973C44.9405 36.0354 44.2493 36.241 44.2796 36.2477L44.9844 37.0866C45.2036 37.346 43.821 38.8991 45.8578 41.2979C45.4295 41.6146 46.077 42.0425 46.431 41.8976C46.7109 41.7831 47.0077 41.2373 47.2572 40.7656L48.6566 40.1457L47.9249 42.2682L48.9905 42.2985C49.2029 42.3053 49.5705 42.814 49.6919 43.0498L50.6024 44.8253C50.8789 44.8893 51.5601 45.0241 51.6241 45.2869L51.9411 46.6513L52.4334 48.9389L53.0607 48.5212L53.3169 46.7794C54.6624 47.8305 54.8816 48.4673 54.8412 50.2562L56.2237 48.7772L57.0297 50.6302L58.763 49.9261L59.9196 51.9846L60.8773 53.5107C61.1167 53.8948 62.2228 53.6522 62.6072 53.6859L62.732 56.7585L64.6001 57.247L64.7519 58.1297C64.7721 58.251 64.9744 58.2611 65.0486 58.1735L65.6657 57.4492L66.6807 60.0366L67.9318 62.5904L69.1188 61.2326L68.4309 59.9557L70.5385 60.7879L70.7948 62.9172L70.7813 63.874C70.7813 64.066 71.4051 64.039 71.5973 63.9986C72.0155 63.911 71.2972 63.3922 71.7895 62.1456C71.83 62.0446 73.6645 63.5 74.349 65.1778L75.5259 65.0801C75.8496 65.8381 76.062 66.2357 76.4869 66.8387C77.5492 66.3603 78.4563 66.1919 79.4983 66.175L79.2622 65.5518C79.2083 65.4069 79.5286 65.006 79.6534 65.1037L80.2401 65.572C80.5335 65.8078 81.589 64.5107 81.2383 64.5006L79.478 64.5141C79.1071 64.5141 78.8609 63.4562 78.6181 63.1799L77.394 62.0749C77.1175 61.9098 76.4768 61.5156 76.1969 61.2023L73.071 57.7389L72.4876 55.33L70.5486 53.8881C71.3343 53.3558 71.0578 53.1435 70.4879 53.2412C70.0731 53.2985 69.0311 53.2042 69.0042 52.8841L68.8996 51.7521C68.4309 51.6746 67.8003 51.4927 67.1731 51.213C66.7178 51.0109 66.7246 49.9227 66.819 49.3264L66.9539 48.4774C66.9842 48.2954 66.067 48.0765 66.094 48.2584L66.1952 49.0131C66.2255 49.2253 65.605 49.0333 65.4196 48.9221C65.2341 48.8109 65.2408 48.5751 65.3218 48.2752L65.9827 46.2235L64.8193 46.5907L63.5581 43.0835L62.796 42.8039C62.6645 42.7567 62.9107 42.5647 63.167 42.3524L62.1823 40.7454C62.1385 40.8801 62.0609 41.1328 62.098 41.2541L62.3543 42.0964C60.3816 41.5843 62.2902 38.6195 59.117 36.2982C58.9147 36.15 58.1425 36.1432 58.129 35.9276C57.9975 33.9433 56.797 34.142 56.0754 32.2756L56.7329 32.4373C56.8779 32.4743 56.9116 32.444 57.1646 32.3834C57.8929 32.2116 54.3792 31.3929 54.8884 28.7212L53.8228 27.4309C52.7268 26.7638 52.0389 25.5442 52.4368 24.1696C52.3053 23.7586 51.5331 23.1454 50.9868 22.7782L50.2281 19.2879L49.0916 17.792L51.0475 16.9935C51.6848 16.9261 53.1281 16.7442 53.4721 16.2052L54.6725 14.332L56.2743 15.0967C57.3736 14.3657 57.5085 14.0894 57.812 13.0652C59.2924 12.7283 61.0931 12.9843 61.9227 14.0894L61.1605 13.9176C61.0054 13.8839 60.5704 14.3623 60.7222 14.4061L61.4539 14.6116L63.5447 14.8946L63.7301 16.633L63.8448 17.9537C64.3573 17.6235 65.0385 17.2159 65.3825 17.226C65.7264 17.2361 65.831 17.8931 65.9052 18.3816L66.4143 18.5062C66.6032 18.203 66.8156 17.8291 66.8797 17.9133L67.3215 18.4928C67.4395 18.6477 66.0333 19.4294 66.3874 19.7629L66.9573 20.2952C67.136 20.4603 67.4563 19.5709 67.5069 19.3418L68.1173 19.9448C68.2555 20.083 68.6366 20.0526 68.9738 20.083L69.2874 22.7041C69.3144 22.9332 68.8052 23.4958 68.7007 23.6036L70.3665 24.1022L70.1102 25.0355C70.063 25.2107 70.5722 25.2039 70.616 25.2039L70.407 27.286L71.9413 27.0333C72.2684 26.5987 73.7791 26.1371 74.177 26.5751L74.5614 29.1895C75.6102 28.9267 77.2423 30.1834 77.131 29.9711L77.539 30.7359C78.146 31.1065 78.3585 30.9246 77.8661 30.2238C77.8965 30.1632 78.4765 29.9947 78.5136 30.1665L78.6889 30.9819C78.7328 31.1806 78.6957 31.6186 78.6485 31.8073C78.5878 32.0431 77.829 31.8477 77.1985 31.7298L78.4866 33.4581C78.753 34.1083 79.5893 34.9573 80.0513 34.9776L80.7257 33.6771C80.837 33.4615 81.3833 34.2903 81.5081 34.5025L82.1859 35.6514C82.7052 36.5273 80.1322 37.693 80.6246 37.9524L81.8857 38.6262L82.405 40.5635L83.4369 37.9221L84.4047 38.0602L83.5819 38.7004C83.4437 38.8082 83.8888 39.0912 84.1788 39.2832L83.2953 40.4287C84.1181 41.0318 84.8802 41.2373 86.4314 41.3417L85.1466 43.0498L86.8934 43.6125L86.4112 44.1785L87.9387 46.2572L89.5 46.4121L90.252 47.4768C90.4274 47.7227 91.412 47.0017 91.2299 47.1129L90.1913 46.0382L91.7998 46.8265L91.8369 49.4645L93.6511 47.9114L94.5178 49.7778L95.7689 49.1714C96.3219 51.0446 97.9203 50.8391 98.5138 53.3692L100.486 51.2838L101.276 53.3187L99.9065 55.3705L102.237 56.5597L102.726 57.9175C102.837 58.2241 103.545 58.1432 103.953 57.8063L105.582 59.5211C105.781 59.73 106.587 60.0097 106.883 60.0029C107.221 59.9962 107.281 59.2314 107.322 58.9316C108.037 59.4234 109.052 59.976 109.241 59.8479L109.268 58.5441C109.271 58.3251 110.026 58.3992 110.097 58.6048L110.428 59.5346C110.589 59.9928 109.284 59.9524 108.856 60.8014C108.741 61.0271 109.638 61.4348 109.888 61.3337C110.394 61.1316 111.22 60.4342 111.409 60.0467C112.157 61.2663 113.341 61.7245 115.004 61.7043L113.085 62.6948C113.766 63.2204 114.565 63.7055 114.919 63.6348L116.804 62.4556L116.757 63.4225C116.75 63.5775 117.172 63.8066 117.276 63.9279C117.765 64.5882 118.349 64.9285 119.273 65.1609L120.999 66.3367L121.495 66.6737C121.586 66.7343 121.61 67.115 121.508 67.0847L120.702 66.8455L120.905 68.4289L123.026 67.5361L122.486 68.8298C122.382 69.0792 122.996 69.6216 123.087 69.571C123.545 69.3588 124.162 69.1263 124.483 69.1432C124.857 69.1634 125.447 69.7328 125.606 70.0697L125.909 70.7165C125.987 70.885 126.691 70.666 126.604 70.5009L126.155 69.6519L126.175 69.0488L128.694 69.4093C128.3 68.9478 128.047 68.7456 128.128 68.6142L128.792 67.553L127.271 66.7545C127.234 66.2525 127.187 65.289 126.86 65.1037L125.515 64.3456C125.407 64.285 125.612 63.5741 125.72 63.4966C125.828 63.4191 125.08 63.6112 124.951 63.5809C124.381 63.4461 123.815 62.3377 123.727 61.6302L122.604 60.0568L121.546 60.0636L121.296 59.1202L120.247 59.1607C120.069 59.1674 120.092 58.5542 120.079 58.3992C119.023 57.4694 117.991 56.3408 117.371 55.1986L116.4 53.4231C116.582 53.0694 116.099 53.9454 116.015 53.814L115.499 53.0054L114.508 52.9885C114.231 52.9852 114.525 51.9812 114.451 51.715C114.063 50.3539 112.4 49.04 111.23 48.2516L110.943 46.4189C110.89 46.0685 110.181 46.0382 109.787 45.9573L108.229 44.0841C107.635 43.3699 107.19 42.9993 106.212 42.5782L107.177 42.0256C105.936 41.3451 104.56 40.3445 103.818 38.9396C102.985 38.3904 102.328 37.4841 101.91 36.3825C99.9334 33.8018 101.333 31.7803 98.4935 32.626C98.0147 31.1672 97.4178 29.7555 96.6287 28.5696L95.1147 26.2888L94.157 24.8569C93.1959 24.3718 93.0172 23.5463 92.6968 22.5996C92.3765 21.6529 91.9145 20.7601 92.3596 19.7124C92.8047 18.6646 93.5432 17.8156 94.5346 17.6438L95.7014 15.619C96.477 15.8278 97.1986 15.6425 97.5156 15.1911C97.7584 14.8441 97.8259 14.652 97.8731 14.7194L98.2339 15.2113L98.8442 13.8906L100.19 14.4634C100.453 14.5745 100.871 13.6885 101.04 13.3213L103.127 14.369L103.242 13.4931C103.258 13.3482 103.562 13.0821 103.65 13.2033L104.152 13.9142C104.331 14.1669 104.577 15.0428 104.887 15.0361L106.556 15.0024L105.187 16.0098C105.767 16.2894 106.627 16.9801 106.742 17.509C106.627 17.7751 106.145 18.3614 106.327 18.5366L107.032 19.2171L107.126 18.075C107.143 17.8661 107.882 18.0986 107.956 18.3277C108.387 19.6888 110.06 21.5047 111.962 21.6563C112.11 22.0977 111.429 22.7108 110.93 22.7614C112.468 23.7249 113.817 25.0321 114.424 26.8244C114.852 27.0367 115.803 27.4376 116.005 27.8453L116.602 29.0581C116.555 29.4085 116.501 29.8802 116.538 30.2204C116.582 30.5944 117.587 30.9448 117.748 30.7528L118.173 28.4719L119.482 31.8275C119.296 31.7197 118.828 31.1267 118.595 31.2615C118.362 31.3962 117.58 31.8578 117.654 31.814L120.284 33.0505C120.352 33.0572 121.08 32.6495 120.945 32.5619L120.224 32.0936C120.069 31.9926 119.903 31.4468 119.913 31.2581C119.924 31.0695 120.082 30.7123 120.23 30.8235C121.508 31.7904 121.191 32.4575 121.734 32.6967C122.061 32.8416 122.79 32.8348 123.211 32.8348L123.093 33.5154C123.019 33.95 124.456 34.4554 124.331 34.6137L123.508 35.6648L124.79 35.4762C125.026 35.4425 125.198 34.9742 125.245 34.8226L126.857 35.3987C127.126 34.8563 126.786 35.5436 126.725 35.6615C126.648 35.8198 126.452 35.8569 126.024 36.0186L126.526 37.5111L126.873 36.241L127.413 38.4342L129.231 37.3224L129.305 39.1586L128.708 38.5926C128.647 38.5353 128.543 38.4881 128.533 38.5723C128.519 38.6936 128.519 39.1282 128.401 39.1484L126.954 39.4146C127.325 40.0581 129.102 40.0109 129.642 39.4584C129.696 39.2125 129.888 38.323 129.865 38.4409C130.043 40.1053 131.982 39.7481 131.874 41.1328C131.692 43.4945 133.709 42.5782 135.725 44.32L137.671 44.5693L137.998 44.1818C138.069 44.0976 138.48 44.3301 138.437 44.4278L137.964 45.5396L137.513 46.0281C137.513 46.0281 137.739 46.4357 137.86 46.6345H138.636C138.855 46.6311 139.195 47.214 139.313 47.3993L140.409 49.1108L140.77 48.6964C140.878 48.5717 141.418 48.8884 141.394 49.0535C141.256 50.1013 142.301 52.0991 144.068 51.7858C144.243 51.7555 144.678 51.779 144.749 51.6274L145.252 50.5493L147.157 52.8369C147.288 52.9953 148.337 52.8841 148.273 53.0829L148.01 53.9083C147.929 54.1677 147.187 53.9083 146.681 53.6927L148.128 55.7175L148.789 55.3098L149.13 56.4014C149.538 55.8421 149.238 55.1245 148.546 54.4575L148.83 52.3114L148.013 52.4461C147.703 52.4967 147.349 50.8795 148.415 49.7778L148.196 49.3735C148.047 49.1007 147.562 50.0474 147.471 49.9092L147.042 49.2556C146.628 48.6222 145.161 47.6755 145.269 46.6345L144.162 46.8602C143.987 46.8973 143.987 46.3111 143.96 46.183L142.412 46.0247L143.056 45.206C143.191 45.0376 142.389 44.6636 142.291 44.6333L142.527 42.7095C141.788 43.1206 141.539 43.3766 141.323 43.3193L140.487 43.1004L141.121 42.5377C141.252 42.4198 140.972 41.9582 140.831 41.8504L138.976 40.4085L135.911 39.7448C135.671 39.2697 135.658 39.263 135.614 39.1047C135.57 38.9463 135.773 38.4612 135.931 38.5016C136.113 38.5454 136.73 38.7037 136.713 38.7004C135.83 37.976 135.324 37.3864 134.673 36.4734L133.233 34.4587L130.475 31.686L129.848 32.3126C129.575 32.5855 129.713 31.2244 128.657 29.8263L127.396 28.1552L126.003 26.5381C125.835 26.3427 125.639 25.9721 125.528 25.5644L123.495 24.9681C122.341 20.9421 119.607 19.9954 119.188 18.4018C118.888 17.2563 118.774 16.4242 116.588 15.8918L115.496 13.3987C113.945 12.4015 113.409 9.51085 113.911 8.645L114.734 7.22663L115.469 7.6983C115.624 7.79937 116.16 7.3277 116.093 7.15588L115.722 6.19907C115.793 5.54547 116.12 5.20856 116.39 6.08789L117.04 4.38314L119.964 4.48085L119.286 3.61163C119.016 3.26462 120.675 2.71883 120.743 2.84348L121.279 3.82051C121.599 3.52403 122.362 2.93782 122.753 2.92097C123.144 2.90413 123.869 3.5712 123.997 3.86768L122.793 3.87442C122.567 3.87442 122.53 4.68973 122.52 4.90535L122.061 4.92219C121.91 4.92893 122.26 5.70381 122.389 5.60611L123.906 4.464L124.341 5.32648C124.432 5.50504 124.806 4.96599 125.069 4.65941L125.555 6.3911C125.865 6.3372 126.452 6.2496 126.486 6.43827L126.637 7.34792C126.9 8.92127 128.344 9.69278 129.871 10.5586L128.057 11.0337C127.953 10.9528 128.32 11.2358 128.398 11.2998C128.681 11.5255 128.185 11.7749 128.216 12.5497C128.226 12.7889 128.823 13.4762 128.961 13.2808L129.598 12.3779L130.637 13.8131C130.977 13.5807 131.922 13.0753 132.205 13.3246L133.999 14.9013C133.911 12.9473 135.793 12.7788 136.073 10.9831C136.734 10.4306 137.476 9.70289 138.039 8.64837L140.544 7.92402C140.824 7.99814 141.121 8.079 141.03 8.05542C140.939 8.03183 140.807 7.39508 140.868 7.32096C141.273 6.82908 142.277 6.31361 143.468 6.09126C143.579 7.09187 143.421 7.81285 142.928 9.00549L144.038 9.25817L144.071 7.65113L145.376 9.49401L146.155 8.88084C146.334 8.73934 147.855 9.78711 147.939 11.2628C148.115 11.566 148.533 11.9938 148.442 12.26L148.03 13.4695C148.931 13.2808 149.939 13.7761 150.715 14.4229L151.581 13.9277C152.549 13.3752 152.178 16.4006 153.281 18.4254L154.421 17.509L155.031 19.2845L156.073 17.7415L156.596 20.1099L158.393 21.8113C157.971 21.9831 157.402 22.229 157.236 22.0741L156.454 21.3362L156.164 22.0741L159.115 24.0483L161.296 22.6434L161.677 23.8091C161.775 24.109 161.081 24.6447 160.767 24.675C160.659 24.6851 160.369 24.2404 160.298 24.1561C160.234 24.0787 160.089 24.045 160.092 24.1494L160.133 25.0793L162.696 25.2006L163.134 23.4486L163.974 24.7087C163.229 25.6486 163.171 26.5179 163.256 27.6869L162.574 28.0103C162.466 28.0609 162.433 28.5056 162.551 28.509L163.38 28.5292L163.997 28.4584L163.96 28.9436L164.25 29.6342C164.18 29.7926 164.466 29.1423 164.564 28.9234C164.878 28.2192 163.471 27.2894 163.805 26.9053L164.621 25.9653L165.586 27.5522C165.889 27.313 166.503 27.0535 166.776 27.1277L167.67 27.3669L167.629 28.1316C167.548 28.2664 166.999 29.1828 167.343 28.61C166.719 28.2765 166.631 28.2293 166.766 28.3035L166.21 30.5371C166.368 30.5371 167.059 30.5877 167.37 30.6719C167.68 30.7561 167.599 31.6725 167.528 32.0229C167.569 32.0936 167.892 32.444 167.953 32.3699L168.317 31.9387L170.344 33.0673C169.872 33.9466 171.43 34.2498 171.065 33.1785L171.477 32.4002L171.888 33.9298C171.969 34.2296 171.595 34.5969 170.792 34.6171C170.89 34.3812 170.61 35.0483 170.593 35.0921C171.146 35.2437 171.79 35.4762 171.905 35.2572L172.522 34.0814C172.59 33.95 172.964 33.5962 172.991 33.7276L173.109 34.2802L173.433 35.7861L175.584 35.4425C175.925 35.3886 176.491 36.0759 176.697 36.3252C176.795 36.2005 177.317 35.5335 177.412 35.6952L178.012 36.7261L179.546 35.3852L182.399 35.5975C182.632 35.6345 182.972 35.6884 182.747 35.6547L182.821 34.89L184.79 34.9405L186.314 33.3671C187.012 32.6462 187.65 32.2318 188.766 31.6489L188.007 33.4312L187.687 34.1858C187.589 34.4149 188.368 34.9506 188.489 34.735L189.143 33.5794C189.312 33.3166 189.922 33.9399 189.956 34.324C189.997 34.7788 189.619 35.7154 189.228 35.621L188.483 35.4425C188.334 35.4054 188.628 36.0119 188.638 36.1668L188.685 36.8609C188.695 37.0158 188.445 36.9687 187.892 36.9619L187.923 38.9362C183.88 42.5883 180.72 44.8759 175.031 43.9999L172.863 43.6664C171.959 43.0128 169.956 42.2278 168.732 43.1947C168.084 44.7074 167.359 46.7693 167.069 48.3359L166.638 50.6572L166.27 52.3349L167.285 54.134C167.95 55.3132 168.59 56.2767 169.457 57.3077L168.975 57.6816C168.88 57.7558 168.863 58.0219 168.975 57.995L169.713 57.8164C169.845 57.7827 170.145 57.7086 170.189 57.8198L170.681 58.9922C170.556 59.1708 170.735 58.9147 171.082 58.406C171.008 58.3891 171.75 58.5475 171.986 58.598C172.249 58.6519 172.006 59.2348 171.831 59.6997L172.886 61.7616L172.907 61.7279ZM11.091 38.7745C11.1314 38.4544 11.1281 37.8581 10.9156 37.8514L9.84328 37.821L10.2412 37.1742C10.3761 37.0832 10.8414 36.6756 10.7066 36.6048L10.0625 36.2679C9.93096 36.2005 10.0085 36.241 9.69491 36.8844L8.17407 37.0293L8.48768 37.7537L11.091 38.7745ZM34.9523 45.6474C35.0197 45.4149 35.3165 44.549 35.4918 44.6198L36.3213 44.9601C36.0415 43.7775 34.5038 42.9117 33.5191 43.07C32.8716 43.4069 32.4029 43.8415 33.5191 43.7944L33.4179 45.3003L34.9556 45.644L34.9523 45.6474ZM26.0161 59.4302C26.3533 57.4424 24.0063 56.2835 22.7148 57.1325C23.986 57.749 25.0584 58.4397 26.0161 59.4302ZM29.8671 62.2366C30.0222 60.8418 29.1522 59.1842 27.8235 58.9417C27.8606 59.2954 27.9922 59.8244 27.8067 59.9524L26.9637 60.542C28.3327 60.606 28.8655 61.0136 29.8671 62.2366ZM91.5267 79.3952C91.9752 78.2127 91.8841 79.4626 92.2382 79.567L93.9479 80.0758C92.4406 78.7079 92.4271 77.8455 91.2266 76.7438C91.1288 76.6528 91.2097 76.6764 91.5469 76.171L89.4798 74.9076C88.7447 74.4595 88.3434 72.9098 87.9961 71.8957C87.5341 71.6329 86.7281 71.6026 85.8682 71.5723C85.1028 71.5419 84.6003 69.9147 84.57 69.1701C83.8348 69.7867 82.4893 69.7159 81.9127 68.9309L82.7591 68.1864L80.493 67.4519C80.3278 67.2666 80.0007 66.8084 79.7815 66.8253L78.871 66.8926C78.3989 66.6737 78.0584 66.7343 78.5338 67.1655C78.7699 67.6406 78.8272 67.681 78.7395 67.6608L77.8425 67.4283C77.8257 67.398 78.1831 68.1089 78.3248 68.3952C78.4462 68.6378 79.097 68.5266 79.3431 68.4862L79.4443 69.1499C79.4915 69.47 81.2518 69.4835 81.7374 71.3095L82.8131 72.6301C82.5635 71.2219 83.8989 71.7811 83.9326 72.3269C83.9529 72.6706 83.737 73.1355 83.3762 73.7487L84.0169 75.1064L85.7806 73.1288C86.0335 74.2877 86.1144 75.2075 86.0908 75.9588C88.249 75.8611 91.1928 76.7471 91.6548 78.4586C91.1254 78.4721 90.2891 78.4788 90.3667 78.6507L90.6769 79.3413C90.7545 79.5098 91.2906 79.4323 91.5301 79.402L91.5267 79.3952Z" fill="#C3080E"/>
</svg>
