<svg width="118" height="139" viewBox="0 0 118 139" fill="none" xmlns="http://www.w3.org/2000/svg">
<path d="M116.432 82.104C115.047 83.5572 112.812 85.2172 111.081 86.3358C110.53 86.6956 110.497 86.1589 110.1 86.3966C109.299 86.8839 108.868 87.5436 108.073 87.9846C107.811 88.1275 107.637 87.3841 107.372 87.5458C105.907 88.4471 104.865 89.601 103.503 90.6187C96.7908 95.6348 90.4947 100.858 83.8235 106.118C81.6306 107.849 78.6318 109.563 76.5664 111.602C76.3253 111.84 76.8549 112.169 76.836 112.247C76.5263 113.462 76.0319 112.329 75.4226 112.622C73.0059 113.787 70.711 115.554 68.8624 117.287C68.0808 118.021 69.6452 118.287 68.3925 118.429C68.3064 118.44 68.1358 117.779 67.8642 117.906C67.2491 118.194 66.3057 119.061 65.8667 119.333C65.0146 119.858 64.8966 119.955 64.135 120.52C63.0809 121.294 61.6901 121.937 60.64 122.875C60.4177 123.076 61.1142 123.364 60.793 123.731C60.4706 124.1 59.4217 124.784 58.9939 124.901C58.5653 125.019 58.4196 124.504 58.2926 124.452C57.2265 124.012 56.8062 125.95 56.671 126.082C54.1827 128.482 51.2874 129.446 48.507 131.094C46.4374 132.321 44.1654 133.844 41.9793 134.819C39.3084 135.992 36.9114 136.579 33.9636 137.262C33.6331 137.332 34.1708 137.997 33.757 138.084C33.1376 138.211 32.5208 138.306 31.9057 138.365C29.5777 138.646 26.4454 137.933 24.5162 135.766C22.6301 133.653 22.1972 131.506 22.0091 129.519C21.985 129.102 22.7304 129.498 22.7502 129.091C22.8105 126.431 24.2869 122.999 21.527 121.433C21.7689 119.752 22.1047 118.032 22.898 116.675C23.4066 115.831 23.9844 116.802 23.8468 115.713C23.8176 115.468 23.1433 115.671 23.1475 115.308C23.1662 113.778 23.6997 112.088 23.681 110.588C23.6776 110.274 23.1063 110.238 23.0246 110.132C22.3679 109.238 23.976 108.3 24.1334 108.059C25.2889 106.32 25.3734 104.754 25.8493 102.97C25.9605 102.556 25.0971 102.857 25.1782 102.451C25.612 100.336 26.2777 98.153 27.1785 96.2228C27.3821 95.7889 27.8861 96.385 28.0153 96.187C28.5769 95.3164 27.4689 94.7423 27.9862 93.9139C28.0938 93.7393 28.5949 94.0022 28.6635 93.9846C29.7395 93.7136 28.5795 92.8582 28.5925 92.7088C28.7263 90.8224 30.4403 90.0483 30.7667 88.3105C30.8054 88.0993 29.9925 88.3518 30.1427 87.77C31.1509 83.8584 32.6409 79.8809 34.4182 76.3039C34.6944 75.7453 35.0562 76.3295 35.1302 76.3131C36.2933 76.0329 35.1313 75.2149 35.1465 75.0072C35.2987 73.3836 36.8502 72.3519 35.6594 70.8119C38.3407 64.6325 39.6721 58.0311 43.2169 52.2324C43.2605 52.1579 43.8443 52.5206 43.9285 52.3711C44.9479 50.5769 43.8356 50.6053 43.0659 48.9322C42.8703 48.5188 44.6668 48.0287 44.8022 47.9817C45.3038 47.8017 46.1336 48.4541 46.2462 48.3746C47.1445 47.7074 43.9785 46.7733 44.3788 45.606C44.3966 45.5713 44.918 45.9218 45.0087 45.8436C45.2924 45.6012 45.1675 45.2223 45.4666 44.9944C46.1555 44.4763 47.7546 44.7537 47.2343 43.3921C47.165 43.2202 45.3267 42.8162 45.7677 41.7961C45.9471 41.3849 46.534 39.555 46.8221 39.0785C47.1142 38.5909 47.5637 39.1447 47.6011 39.1156C48.8325 37.9556 48.9648 38.598 50.3199 38.2686C51.6695 37.9399 48.9446 37.2465 48.7424 36.8637C48.5416 36.4799 49.5006 35.6787 49.7985 35.5055C50.0969 35.3314 50.3593 35.7583 50.5544 35.5802C51.8555 34.3343 49.4508 34.4819 49.1909 33.8476C48.5707 32.3565 50.836 32.1119 51.3605 31.1429C51.502 30.8813 50.9775 30.9665 51.0183 30.6933C51.187 29.6078 52.0007 29.1869 51.7849 27.8765C51.7531 27.6526 50.8262 26.4174 51.8983 26.0427C52.0513 25.9938 52.4723 26.3921 52.7169 25.9846C53.0839 25.3747 53.5363 24.2475 53.5627 23.5308C53.5836 22.9964 52.5946 23.3453 53.0358 22.7702C53.2348 22.505 53.5575 23.1943 53.8911 22.6843C54.2265 22.172 54.5857 20.7886 54.7005 20.2846C54.8174 19.7762 54.1177 19.8868 54.0865 19.8346C53.9025 19.5585 53.8778 18.4021 53.8959 18.3281C54.269 16.7308 54.7729 15.085 55.1842 13.67C55.5491 12.5007 55.6478 11.2742 55.32 10.8227C55.0736 10.2972 53.7596 10.0755 52.5117 10.3637C52.1945 10.4297 52.4943 11.0815 52.4468 11.0985C51.4316 11.5379 52.0139 9.6071 51.0749 9.15532C51.4453 10.4975 50.9388 10.3284 50.161 10.668C49.7904 10.833 50.1284 11.3042 50.1057 11.366C49.7306 12.2962 49.0808 11.3817 48.9152 11.2025C48.3207 10.5408 48.1494 11.5596 47.7427 11.1232C47.3357 10.6913 47.7383 9.76914 46.9477 10.0012C46.8604 10.5413 47.7977 11.6244 47.2556 11.9954C45.2182 13.2837 40.5771 14.1202 37.6746 12.6189C36.2374 11.7812 35.9838 10.5279 35.8899 9.83343C35.822 9.21356 35.829 8.70785 35.9498 8.08746C36.5147 5.90002 35.476 6.58694 35.4359 5.00713C35.528 3.40498 37.4922 4.99065 38.0309 4.98626C38.5654 5.02244 38.1578 4.64698 38.503 4.57373C38.8417 4.5178 38.9668 5.04419 39.2618 4.68875C39.5217 4.34257 39.4623 2.90929 39.3799 2.34753C39.2054 1.77056 38.8353 1.33017 38.7021 0.954459C38.6507 0.761144 38.6446 0.577176 38.9335 0.354995C39.1869 0.198295 39.8869 -0.299297 41.2827 0.256559C41.4279 0.327407 41.1971 0.408366 41.0897 0.548855C40.9738 0.693997 40.9985 0.843162 41.3599 1.07986C41.5316 1.19962 41.6539 1.31862 41.7704 1.45344C43.5265 3.99095 43.4958 6.62627 43.1138 8.95506C43.0479 9.29226 42.3619 8.97598 42.3152 9.16796C41.7849 11.0643 42.975 10.4392 44.1592 11.6914C42.4656 11.2587 41.3764 11.7355 41.1384 13.1601C40.9874 14.0196 41.7542 13.9934 42.1681 14.669C42.2923 14.8773 41.6584 15.397 41.9816 15.5778C43.0322 16.1932 44.4433 15.8618 43.5796 17.3194C43.5401 17.38 42.9723 17.0242 42.8811 17.2437C42.2767 18.6678 43.4047 19.1478 43.0868 20.8217C42.8442 22.111 41.4296 24.1338 40.8369 25.4707C39.0121 24.8148 38.9816 26.2537 40.0461 27.2366C39.6672 28.1233 39.3788 29.1064 38.8707 29.9064C38.6964 30.1816 38.2486 29.7825 38.1774 29.7981C37.0699 30.0194 38.1307 30.8738 38.1013 31.0859C37.7326 33.3473 36.1197 34.6248 36.143 36.9553C36.1443 37.0376 37.3264 37.6988 36.1943 37.8185C36.1175 37.8237 35.8455 36.9326 35.3923 37.8257C34.9388 38.7202 33.4971 40.1172 33.4613 41.6322C33.453 41.9981 34.0665 43.2441 32.9972 43.4806C32.853 43.5108 32.5498 43.2513 32.2991 43.2736C31.4983 43.3482 32.6164 44.1604 31.3587 44.0882C30.1003 44.0169 28.8752 44.5275 28.9473 46.122C28.9478 46.1713 29.7548 46.961 29.5366 47.34C29.1886 47.9438 28.5227 48.716 28.1843 49.3552C28.0223 49.6621 28.7174 49.7866 28.6995 49.8455C27.9142 52.0639 26.5928 53.2364 25.1229 55.2117C25.0995 55.2441 25.076 55.2756 25.0523 55.306C24.9656 55.413 24.9314 55.5638 24.7811 55.7968C24.6745 55.9915 24.3467 56.3127 23.8865 56.3043C22.9898 56.2434 22.5574 55.6095 22.5782 55.0434C22.7058 53.7369 26.0259 53.0237 24.5095 51.6841C23.9178 51.1354 19.5801 51.5358 21.0701 49.2511C19.522 46.459 19.7463 43.3079 17.98 40.5344C17.902 40.4128 16.6507 40.3675 16.5547 40.06C16.4094 39.5891 16.8205 39.1417 16.7239 38.804C16.6645 38.5894 16.5825 38.3668 16.4992 38.1785C15.9981 37.07 15.0913 36.1462 14.1932 35.8581C13.7847 35.7765 13.9412 35.1691 13.2153 35.295C12.4766 35.5232 12.5797 36.3689 11.729 36.676C11.0857 36.9216 9.44587 36.5136 8.72381 37.2183C9.9191 38.1207 9.52327 38.6047 9.29457 39.7309C9.25235 39.9466 9.81137 40.0301 9.81479 40.1455C9.84033 40.6186 9.28627 40.711 9.35525 41.1794C9.37129 41.293 9.81345 41.5487 9.85239 41.6548C9.9497 41.9071 9.9068 42.1119 9.78587 42.284C9.47569 42.7224 8.64267 42.936 8.45503 42.984C7.46334 43.2465 7.91115 43.8368 7.40871 44.1765C6.90646 44.519 6.92123 43.6423 6.4844 44.1195C5.57688 45.1159 4.95062 46.66 4.38638 47.8397C4.16381 48.312 4.93196 48.271 4.9145 48.3452C4.62442 49.3976 3.51499 50.0891 4.50181 51.1966C0.997527 50.4156 4.54408 51.931 3.25368 53.0383C3.14988 53.1259 1.58294 52.5576 1.55678 52.0375C1.53141 51.516 2.29581 51.0977 2.21811 50.3531C2.20067 50.1772 1.14677 48.7373 1.11025 48.5897C0.827092 47.4327 3.14161 48.337 3.28598 48.3487C4.85695 48.4462 3.7793 46.7734 3.7946 46.465C3.85851 45.0597 4.65029 44.2005 4.79809 43.0428C4.89956 42.2856 3.48195 41.4886 3.79374 40.9876C4.16738 40.3898 4.71941 40.0608 5.22457 39.7813C6.13403 39.2724 6.86224 38.9388 6.46795 37.2137C6.3545 36.631 4.59989 36.0085 6.70348 35.452C6.84463 35.4032 8.55548 35.2417 8.52227 34.1187C8.51923 33.974 8.14329 33.6176 8.21292 33.4841C8.74829 32.5814 9.48302 32.3656 10.899 31.4254C11.6385 30.9656 12.852 30.4149 14.4149 30.4642C15.9744 30.4952 17.4543 31.2332 18.2371 31.9978C19.2798 32.9818 19.0848 34.4862 19.0741 34.8948C19.0558 35.808 19.766 36.1436 19.9288 36.6658C19.9711 36.8146 19.9483 36.9768 19.8028 37.1651C19.2077 37.8968 17.7396 37.6137 17.6442 38.8183C18.9123 38.3682 20.2363 37.9648 21.5262 37.5511C22.3897 39.9835 22.631 42.2814 23.4042 44.4579C23.5003 44.726 24.0984 44.2264 24.219 44.5072C24.7235 45.6869 24.5799 46.8991 25.198 48.0302C25.6779 48.8998 26.766 49.6145 27.2797 50.3019C26.6721 50.8331 26.6426 51.3806 26.7482 51.7357C26.8028 51.9191 26.8918 52.0481 26.9087 52.0609C26.9072 52.0733 26.9099 51.9517 26.3089 51.5647C25.8823 51.301 25.2901 51.2047 24.8843 51.2525C24.4723 51.3046 24.0283 51.354 23.236 51.5907C22.539 51.8199 22.1426 52.1509 21.9582 52.301C21.7621 52.4652 21.6541 52.5616 21.5606 52.6164C21.3821 52.7235 21.2756 52.6585 21.1315 52.5942C20.8572 52.4536 20.5705 52.1732 20.3799 52.2629C20.324 52.2879 20.2781 52.3096 20.2406 52.3282C20.2809 51.0503 22.8358 52.3466 23.4904 51.052C23.5284 50.9805 22.5766 49.3283 22.5512 49.1628C22.3812 48.0999 23.1187 49.3186 23.4817 48.915C24.1428 48.1783 24.8158 47.7641 24.9282 46.5356C24.9601 46.1746 24.4286 44.9944 25.4255 44.7936C25.5565 44.7665 26.0157 45.0589 26.0755 45.013C27.1172 44.1567 25.6162 43.3439 25.4192 42.4597C25.2217 41.5763 26.7562 41.1335 27.1586 41.0833C28.2021 40.9513 27.2975 41.6484 27.3602 41.7144C28.1118 42.5028 28.3108 41.7096 28.6572 41.199C30.1966 41.8562 30.4844 41.0361 29.0099 40.6661C28.8485 40.6267 28.78 41.1224 28.6572 41.199C27.4223 39.994 27.6347 39.078 29.4617 38.7997C30.3174 38.6677 30.8814 39.4434 31.2307 37.9682C31.3874 37.2996 30.2339 37.0537 30.1932 36.3891C30.0994 34.8746 31.7841 33.7162 32.1687 32.3746C32.307 31.8906 31.5371 32.0938 31.6116 31.7541C31.8084 30.8472 32.5445 30.3014 32.662 29.3596C32.6716 29.2748 31.9851 29.2155 32.082 28.951C32.7972 26.9522 33.8468 25.3648 34.5769 23.2808C34.9288 22.2845 35.1654 20.3643 35.5377 19.3455C36.1917 17.5866 37.6829 15.5792 37.75 13.9935C37.7962 12.9585 37.0991 13.0727 36.7274 12.5882C36.0097 11.6525 37.7048 10.5212 37.9561 10.3462C37.9678 10.3343 38.0389 11.1668 38.4207 10.764C39.1487 10.5749 37.9584 10.3534 37.9561 10.3462C38.1364 10.2322 38.3649 8.6488 38.2152 8.37605C38.1435 8.22179 37.5205 8.32205 37.4946 8.24593C37.2548 7.50984 37.0098 6.91127 36.816 6.55876C36.6271 6.19868 36.5087 6.22061 36.7693 6.43358C37.229 6.89362 38.002 7.43586 38.9876 7.68991C39.9608 7.95021 40.9089 7.8527 41.506 7.67936C42.7025 7.30361 42.9481 6.92782 43.1288 6.75805C43.1475 6.72388 42.6442 6.23767 42.6747 6.18039C42.7507 5.99405 42.6834 6.04504 42.6822 6.13379C42.673 6.22764 42.6929 6.38076 42.7452 6.54289C42.8463 6.87374 43.0672 7.24542 43.234 7.57617C43.5721 8.25241 43.4036 8.40758 42.2042 8.70325C42.2472 8.79685 42.2452 8.88917 42.2156 8.97758C42.1759 8.89117 42.1055 8.7523 41.9919 8.58842C41.8738 8.40843 41.6937 8.1837 41.4802 8.00082C41.0236 7.5869 40.497 7.44901 40.2525 7.46898C39.9327 7.50634 40.0018 7.27909 40.0168 6.96797C40.0437 6.66458 40.0801 6.31968 40.0739 6.30522C39.9383 5.87427 40.4827 5.84819 41.0573 5.8365C41.6676 5.82936 42.4153 5.8849 43.4173 5.67812C44.3555 5.49153 46.3041 4.71562 47.4918 4.25696C48.4232 3.89399 49.1044 4.05674 50.0588 3.66453C50.1943 3.61132 49.9401 3.04279 49.979 3.01176C51.0589 2.08457 50.7247 3.6512 51.006 3.87163C52.0947 4.70906 52.4952 5.07731 54.4202 4.7183C54.634 4.6841 55.1729 4.16636 55.9305 3.75583C56.6747 3.33625 57.7842 3.10098 58.5572 3.42635C60.5675 4.44971 59.5002 4.51884 61.2702 6.14983C61.3862 6.30633 61.8191 5.93736 62.551 7.25646C64.2997 11.0982 63.5115 13.2762 63.2168 15.1097C63.0183 15.9334 62.8128 16.789 62.6368 17.6709C62.5731 17.9783 63.3915 17.7456 63.3096 18.1974C62.9711 20.1065 62.3737 22.2762 61.5375 23.9646C61.3251 24.395 60.9007 23.9687 60.7234 24.0252C59.6471 24.3801 60.7169 25.6016 60.7058 25.7322C60.3856 29.1759 58.4152 31.3195 57.9305 34.7369C57.908 34.9199 58.8556 36.7427 57.4564 36.9733C57.3645 36.9851 55.9352 37.2158 56.602 37.9982C56.6434 38.048 57.3936 37.8883 57.117 38.5085C56.8406 39.1286 56.9118 40.3127 55.9186 40.9852C55.6079 41.1908 54.1541 41.4905 54.8476 42.6303C54.8979 42.7051 56.6503 44.7357 54.9816 44.6878C54.7072 44.679 53.1376 44.0535 53.6127 45.3409C53.7056 45.5882 54.1817 45.359 54.2302 45.9442C54.3022 46.854 53.5313 47.7091 53.9173 48.8988C53.9867 49.1065 54.8282 50.1819 53.8106 50.4658C53.6513 50.5102 53.1767 50.1579 53.0139 50.4368C52.2312 51.779 52.0863 53.3511 51.219 54.6647C50.9132 55.1291 50.1427 54.5705 49.7279 55.0222C49.313 55.4746 48.7187 56.4729 48.923 57.1548C49.1256 57.8421 50.706 57.715 50.5295 58.5794C49.7555 62.355 47.7182 65.6385 46.3724 69.1884C46.1728 69.7149 46.8151 69.4415 46.5565 70.2292C45.6016 73.1377 44.387 78.276 42.5149 80.4423C41.0152 82.1729 41.2059 79.4366 40.36 80.8591C39.9549 81.5434 41.2957 82.8771 41.2881 83.0727C41.2301 84.9986 40.1332 85.9711 39.8529 87.616C39.7946 87.9584 40.5485 87.843 40.4919 88.1317C40.3045 89.1191 39.7025 90.0219 39.4784 90.9362C39.3795 91.3465 39.9017 91.4263 39.7497 91.7834C39.3958 92.627 38.9372 93.3803 38.2074 94.1071C38.1408 94.174 37.6796 93.4499 37.4573 94.106C37.0972 95.1771 36.2564 96.3182 36.3708 97.7229C36.4087 98.1339 37.5516 98.4778 36.5348 99.0379C36.3228 99.1546 35.0008 98.557 35.9365 99.8051C36.087 100.028 37.2877 101.945 36.0367 102.448C35.7087 102.575 34.4369 102.784 34.4978 103.273C34.5105 103.341 35.1937 103.267 35.1576 103.647C35.0202 104.983 34.6207 106.267 34.4877 107.659C34.4555 108.023 35.2273 107.659 35.1597 108.194C34.9791 109.648 34.4096 111.388 33.9172 112.735C33.7357 113.225 33.2701 112.764 33.2038 112.788C32.1272 113.188 33.3466 113.794 33.3841 113.999C33.5905 115.325 32.8106 116.176 32.795 117.288C32.7897 117.594 33.4422 117.481 33.4878 117.549C33.9302 118.245 32.893 117.6 32.7067 117.993C32.1782 119.126 32.0769 120.312 32.0508 121.433C32.0425 121.851 32.8081 121.455 32.7938 121.822C32.7311 123.904 32.6469 125.95 32.4762 127.329C32.4393 127.568 31.8646 127.524 31.7472 127.595C31.3392 127.854 31.4753 128.094 31.7165 128.189C31.9596 128.293 32.306 128.273 32.37 128.281C32.6628 128.317 32.6871 128.339 32.6464 128.361C32.6032 128.379 32.51 128.409 32.4822 128.293C32.4326 128.052 31.9774 127.558 31.501 127.347C31.0039 127.118 30.7814 127.163 30.9182 127.151C32.3008 127.063 34.7411 126.431 36.6609 125.709C40.9196 124.087 44.5262 122.514 48.4569 119.784C48.7064 119.61 48.0408 119.158 48.25 119C50.9686 116.986 53.8842 115.269 56.5244 113.042C56.7416 112.861 55.9941 112.537 56.3281 112.227C57.0126 111.584 57.9794 110.903 58.8614 110.514C59.2928 110.321 59.1691 111.177 59.5966 110.972C60.5941 110.496 61.5534 109.817 62.3566 109.046C62.6993 108.715 61.6922 108.587 62.1715 108.201C65.4333 105.555 68.5606 102.852 72.4455 100.832C72.7117 100.694 73.8488 101.654 74.1486 101.037C73.9237 100.695 73.6146 100.329 73.3512 99.9827C77.9287 95.8457 82.9012 92.2153 87.6255 88.1699C87.8229 88.0007 86.973 87.7135 87.352 87.3833C89.5906 85.431 91.5625 83.3981 94.3517 81.9559C94.6256 81.8138 95.42 82.9358 95.9381 82.1999C96.0227 82.0744 96.9032 81.0493 96.9693 80.594C96.9748 80.5293 96.3683 80.2147 96.6794 79.9137C98.4436 78.2187 100.561 76.5348 102.676 75.1936C103.014 74.9824 103.148 75.7686 103.392 75.6229C105.217 74.4997 106.503 72.6938 108.459 71.8438C109.736 71.3088 110.088 72.5488 111.399 72.9591C111.587 73.014 112.237 72.5111 112.69 73.0101C113.84 74.2537 114.724 75.9235 115.986 77.2194C116.264 77.4919 116.748 76.5609 116.897 77.6477C116.91 77.7176 116.547 78.4172 116.601 78.7867C116.641 79.0395 117.258 79.4159 117.233 79.8026C117.208 80.1892 116.602 79.9488 116.503 80.4647C116.392 80.9966 117.048 81.4591 116.432 82.104ZM41.3926 8.67374C42.1123 9.20809 41.714 6.84649 41.2329 7.51714C41.2114 7.5518 41.3581 8.64704 41.3926 8.67374ZM20.9142 42.8135C20.1985 44.0299 21.8708 44.1614 22.4448 43.2852C23.0158 42.4024 21.1298 42.441 20.9142 42.8135ZM14.1136 33.7263C15.1054 34.2332 15.7441 34.0309 16.1983 33.5049C16.6176 33.0491 16.493 31.8825 14.5379 31.885C14.2899 31.8929 13.9801 33.6703 14.1136 33.7263ZM109.142 75.304C109.171 75.3204 109.616 74.9796 109.606 74.9468C109.339 74.1742 108.445 74.8609 109.142 75.304ZM7.0235 41.9534C7.58704 41.8619 7.5981 40.7369 6.89128 40.8405C6.31602 40.9312 6.31504 42.0748 7.0235 41.9534ZM52.4818 31.4713C52.4446 31.4706 52.2904 31.8462 52.4846 31.9004C53.1113 32.0723 53.1088 31.4798 52.4818 31.4713ZM0.00481877 56.7047C1.2231 54.6948 4.39252 54.5323 2.90441 56.8121C2.63277 57.2187 2.58243 55.4733 2.07717 55.9106C1.16645 56.6852 2.35895 58.1964 0.948634 58.7427C0.703493 58.828 -0.0581212 56.8055 0.00340148 56.6992C0.00387397 56.701 0.0043464 56.7029 0.00481877 56.7047ZM42.2713 11.4354C42.2897 11.466 42.8683 11.3776 42.8696 11.3436C43.0041 10.5401 41.891 10.708 42.2713 11.4354ZM43.3295 53.9064C43.2533 53.9206 42.7613 55.1479 42.8056 55.21C43.7527 56.2709 44.7549 53.7787 43.3295 53.9064ZM40.7804 25.4759C41.2954 26.3296 41.1221 27.087 40.048 27.2342C40.3096 26.6608 40.5282 26.0648 40.7804 25.4759Z" fill="#C3080E"/>
</svg>
