<svg width="325" height="120" viewBox="0 0 325 120" fill="none" xmlns="http://www.w3.org/2000/svg">
<g clip-path="url(#clip0_522_159)">
<path d="M163.43 97.01C152.53 95.77 142.75 92.07 133.59 86.37C133.47 82.91 134.68 78.42 137.55 77.01L142.93 75.17L152.82 73.89L156.42 73.35C157.3 73.22 158.34 75.37 158.42 75.61C163.34 72.14 170.72 72.34 176.15 72.12C195.23 71.35 215.04 68.87 233.6 65.36C225.89 64.28 219.75 64.42 212.86 64.08L191.31 63.02L154.45 60.88L146.44 60.29L110.1 57.33L100.74 56.46L94.61 55.61L79.76 54.02L60.68 52.02L40.94 49.97C33.11 49.16 27.38 48.03 19.65 46.08L8.75 43.32L0 37.2L2.35 28.02C5.26 27.09 9.49 26.36 12.91 26.19L28.06 25.45L42.19 24.65L46.78 24.43L53.5 24.06L95.3 22.13L117.24 21.25C124.19 20.97 130.93 21.03 137.92 21.1L147.92 21.2L158.76 20.54L160.93 24.13C161.73 22.36 162.08 21.09 162.89 20.66C163.7 20.23 165.95 20 167.07 20.05L176.17 20.49L190.9 19.92L209.16 19.19L225.2 18.48L233.85 18.21L238.58 18.31C240.01 17.68 242.74 16.78 244.68 16.6L254.38 15.71C257.7 15.41 260.92 15.65 263.38 16.93C263.76 16.08 264.59 14.19 265.4 14.3L269.34 14.85C269.79 14.91 271.13 16.71 271.34 16.31L272.32 14.4L288.94 11.77L302.38 9.97002C303.06 9.88002 304.87 11.34 305.38 10.99L307.82 9.29002C308.2 9.03002 308.91 9.85002 309.26 10.15C309.61 10.45 310.29 9.45002 310.4 9.01002C310.55 8.43002 309.93 6.90002 309.34 6.89002L294.63 6.69002L270.73 6.30002L262.93 6.46002L252.22 6.73002C252.33 6.00002 253.05 3.63002 253.53 2.83002C254.09 1.89002 256.67 1.87002 258.06 1.98002C264.97 4.08002 272.26 4.46002 279.04 0.40002L280.04 3.26002C280.28 3.95002 283.16 2.41002 282.58 1.97002C282.32 1.77002 281.01 0.98002 280.99 0.90002C280.97 0.82002 281.59 0.21002 281.89 0.19002L283.96 0.0200195L283.85 4.17002L287.58 0.72002L286.72 3.16002C286.53 3.70002 288.97 3.85002 289.6 3.82002C291.98 3.71002 294.08 2.10002 295.22 0.29002L304.93 0.31002C307.27 0.31002 309.27 1.16002 310.3 2.82002C310.3 2.82002 311.22 2.57002 311.6 2.48002C312.06 2.37002 312.74 2.57002 313.56 2.70002L315.69 1.74002C316.17 1.52002 316.3 3.40002 316.28 4.02002C317.47 3.63002 319.58 3.08002 320.81 3.17002C322.04 3.26002 323.99 5.85002 324.08 7.07002L324.36 10.51C324.62 13.73 302.6 18.06 292.64 19.22L262.34 22.74L230.46 25.55L207.04 27.27L197.04 27.59L123.44 29.4L87.85 30.4L57.1 31.86L30.82 33.34C25.71 33.63 21.35 33.97 15.39 35.36C19.46 37.16 23.75 38.9 27.98 39.44L47.73 41.97L93.6 46.75L129.91 50.17C138.3 50.96 146.32 51.06 155.04 52.34C157.85 52.75 162 52.65 165.42 52.83L188.89 54.08L203.8 55.04L213.17 55.54C223.44 56.08 233.51 55.68 243.65 55.96L249.86 56.13L257.11 55.95L276.35 55.83L280.03 59.84L280.42 64.37L274.47 64.6C272.77 64.67 269.81 66.1 268.53 67.11L267.14 66.54C266.62 66.33 265.13 67.57 264.47 67.71L239.15 72.92C228.87 75.04 218.76 76.2 208.53 77.08L184.63 79.15L167.44 79.91L156.99 80.49L145.76 81.95C143.67 82.22 140.71 83.17 140.41 84.85L149.52 87.34L160.77 91.19C161.62 91.48 164.75 91.02 165.31 91.73L168.21 95.4L175.28 92.33L181.96 94.03C186.37 96.82 191.57 99.46 195.96 101.32C197.36 107.28 193.67 113.2 186.66 113.91L188.97 117.31L189.68 118.92C189.84 119.28 188.61 119.79 188.21 119.74C187.68 119.67 187.55 118.78 187.31 117.49L183.35 118.73C182.95 117.53 182.44 114.57 182.85 113.25C183.23 112.01 185.16 110.13 186.45 110.25L189.42 110.51C190.06 110.57 193.83 104.54 192.02 102.67C191.08 101.71 184.64 99.46 181.15 99.06L163.46 97.04L163.43 97.01Z" fill="#96B6CF"/>
<path d="M182.61 11.77L174.25 12.27C175.22 8.76996 178.84 7.41996 182.67 8.31996L187.7 7.73996C193.7 12.05 197.38 4.82996 198.47 5.73996L202.13 8.79996L203.96 5.84996C204.44 5.07996 206.59 6.20996 207.44 6.61996L210.39 8.02996C211 8.31996 211.99 6.51996 212.4 5.98996L213.94 4.00996C214.3 3.53996 215.72 4.99996 215.98 5.20996L219.06 2.76996C219.86 2.13996 221.28 4.08996 222.02 6.18996L231.47 2.63996L244.17 1.95996L243.69 3.70996C243.52 4.34996 246.18 4.94996 246.38 4.80996C248.14 4.02996 248.94 3.54996 249.41 4.01996C250 4.59996 250.64 6.75996 249.8 6.78996L241.09 7.01996L229.63 7.73996L211.3 9.05996L204.62 9.63996C202.3 9.83996 197.48 7.51996 195.54 9.19996C190.49 13.58 187.07 7.02996 182.6 11.79L182.61 11.77Z" fill="#96B6CF"/>
<path d="M149.27 13.84L136.14 13.91L138.53 10.6L139.78 12.56C140.07 13.01 141.06 11.58 141.48 10.93L142.99 12.53C144.93 14.59 146.66 7.49002 153.44 10.82C155.41 11.79 156.63 11.89 159.8 13.08C156.12 13.69 153.26 13.81 149.27 13.83V13.84Z" fill="#96B6CF"/>
</g>
<defs>
<clipPath id="clip0_522_159">
<rect width="324.34" height="119.71" fill="white"/>
</clipPath>
</defs>
</svg>
