<svg width="42" height="364" viewBox="0 0 42 364" fill="none" xmlns="http://www.w3.org/2000/svg">
<path d="M30.3202 360.03C30.216 358.102 30.3274 355.576 30.4803 353.656C30.5278 353.054 30.7398 353.359 30.7821 352.944C30.8645 352.131 30.7605 351.374 30.8587 350.572C30.8923 350.306 31.2282 350.637 31.2557 350.358C31.4041 348.829 31.3186 347.383 31.39 345.834C31.7422 338.206 31.8683 330.707 32.0213 322.986C32.0715 320.44 32.3763 317.345 32.243 314.715C32.2414 314.685 32.2371 314.659 32.2305 314.637C32.1712 314.447 31.9299 314.587 31.9081 314.536C31.5361 313.639 32.1312 313.937 32.2103 313.346C32.5225 310.952 32.5496 308.335 32.4354 306.039C32.386 305.077 31.8006 306.043 32.1291 305.071C32.1513 305.003 32.4644 305.249 32.4977 304.983C32.5727 304.382 32.5165 303.223 32.5411 302.744C32.5903 301.847 32.5871 301.707 32.5903 300.855C32.5975 299.699 32.7525 298.263 32.6809 297.042C32.6647 296.777 32.3439 297.129 32.2891 296.705C32.2343 296.282 32.2608 295.15 32.3362 294.765C32.4116 294.38 32.664 294.543 32.7218 294.475C33.2094 293.902 32.5325 292.621 32.5156 292.451C32.2283 289.381 32.6105 286.776 32.6053 283.874C32.6007 281.724 32.4697 279.337 32.4832 277.29C32.5005 274.807 32.6698 272.721 32.6339 270.309C32.6305 270.054 32.2539 270.354 32.2489 270.042C32.1968 266.755 32.2282 263.475 32.4716 260.203C32.4964 259.874 32.8291 260.297 32.8736 259.968C33.139 257.933 33.7807 254.782 32.3332 253.578C32.3839 252.209 32.4349 250.57 32.72 249.345C32.9034 248.557 33.2679 249.32 33.1094 248.353C33.074 248.135 32.7593 248.42 32.7302 248.093C32.6079 246.713 32.7032 245.223 32.5328 243.86C32.4973 243.584 32.2145 243.661 32.1631 243.583C31.7467 242.926 32.4234 241.819 32.4716 241.583C32.8315 239.766 32.6782 238.438 32.6768 236.738C32.6766 236.343 32.2991 236.812 32.2852 236.432C32.2186 234.473 32.2379 232.44 32.3932 230.512C32.4287 230.084 32.7555 230.475 32.789 230.27C32.9329 229.37 32.3194 229.174 32.4454 228.31C32.4711 228.127 32.7493 228.228 32.7795 228.194C33.2539 227.671 32.5729 227.224 32.557 227.09C32.3398 225.398 33.0388 224.311 32.9254 222.677C32.9111 222.482 32.5637 222.926 32.545 222.376C32.4181 218.712 32.4795 214.841 32.7238 211.21C32.7613 210.646 33.029 211.046 33.0612 211.01C33.5632 210.426 32.8789 210.059 32.8514 209.876C32.6521 208.429 33.2082 207.068 32.3869 206.09C32.6008 199.949 32.0681 193.842 32.7031 187.738C32.7104 187.661 33.0476 187.794 33.0606 187.64C33.2207 185.778 32.7054 186.152 32.0492 184.925C31.8844 184.616 32.6384 183.658 32.6934 183.574C32.8963 183.266 33.3999 183.574 33.4385 183.471C33.7408 182.623 32.0944 182.786 32.0752 181.652C32.0774 181.617 32.3833 181.761 32.4119 181.665C32.5017 181.368 32.3763 181.077 32.4759 180.787C32.7065 180.123 33.5037 179.873 33.0198 178.861C32.9571 178.734 32.0254 178.946 32.0518 177.928C32.0632 177.522 32.0151 175.735 32.0664 175.236C32.1177 174.737 32.4254 175.073 32.4378 175.038C32.8113 173.683 32.9858 174.187 33.563 173.497C34.1379 172.806 32.7396 173.022 32.5779 172.748C32.4166 172.474 32.7262 171.477 32.8357 171.232C32.9452 170.988 33.1427 171.286 33.2031 171.069C33.5976 169.632 32.4949 170.456 32.263 169.991C31.7142 168.903 32.7353 167.99 32.8157 166.971C32.8374 166.694 32.6054 166.925 32.5781 166.679C32.4728 165.709 32.7846 165.118 32.4629 164.028C32.4104 163.846 31.7652 162.958 32.2105 162.366C32.2748 162.283 32.5392 162.51 32.5877 162.093C32.6605 161.47 32.6911 160.354 32.5886 159.696C32.5128 159.21 32.0994 159.779 32.2173 159.163C32.2699 158.889 32.5318 159.388 32.6098 158.873C32.6876 158.35 32.6438 157.028 32.6224 156.529C32.601 156.031 32.2841 156.312 32.2613 156.272C32.1302 156.031 31.9495 155.081 31.9477 154.998C31.8759 152.971 31.9362 150.952 31.9859 149.029C32.0373 146.856 32.0776 144.832 31.9112 142.625C31.8867 142.298 31.5525 142.527 31.5453 142.478C31.3653 141.365 32.302 142.215 32.5798 141.426C31.8909 141.562 32.001 141.098 31.8984 140.323C31.8484 139.95 31.5872 140.163 31.5586 140.13C31.1324 139.596 31.6442 139.168 31.7483 139.066C32.1311 138.675 31.6488 138.284 31.9043 138.021C32.1579 137.757 32.5682 138.328 32.5361 137.572C32.2806 137.369 31.6529 137.952 31.5272 137.384C31.0543 135.264 31.4051 131.214 31.3833 129.454C31.3631 127.708 31.2944 127.191 31.3387 126.155C31.419 124.31 30.9684 125.005 30.6971 123.887C30.4253 122.773 31.6327 123.266 31.8794 123.092C32.126 122.921 31.8568 122.766 31.9868 122.555C32.1169 122.347 32.3103 122.775 32.3404 122.298C32.3705 121.82 31.8569 120.558 31.5831 120.408C31.0031 120.087 30.4405 120.686 30.5877 119.45C30.5965 119.379 30.9186 119.592 30.9367 119.321C31.0679 117.13 30.9663 114.907 31.0572 112.719C31.0703 112.422 31.4307 112.667 31.4423 112.494C31.5636 110.702 31.0159 111.363 30.3117 110.409C31.1861 110.584 31.6818 109.996 31.6064 108.638C31.5612 107.822 31.194 107.996 30.8961 107.47C30.8064 107.313 31.0289 106.711 30.8455 106.616C30.2457 106.304 29.6324 106.887 29.8027 105.469C29.8111 105.407 30.1399 105.583 30.1457 105.37C30.1858 104.01 29.5681 103.845 29.3976 102.369C29.2654 101.234 29.489 99.0886 29.4552 97.7798C30.425 97.7378 30.112 96.4826 29.4075 96.0274C29.3723 95.1747 29.2638 94.2348 29.2917 93.3924C29.3011 93.1032 29.5956 93.2701 29.6231 93.2316C30.0551 92.6406 29.3772 92.3211 29.3374 92.1396C28.9303 90.1261 29.2866 88.4449 28.6415 86.5727C28.6182 86.5049 27.9383 86.463 28.3827 85.8956C28.4136 85.8591 28.7752 86.4752 28.7188 85.5578C28.663 84.6453 28.8694 82.9097 28.4403 81.6836C28.3376 81.3927 27.7201 80.6735 28.0855 80.0109C28.1353 79.9229 28.3364 79.9945 28.432 79.8652C28.7359 79.448 28.0377 79.3055 28.5698 78.8035C29.1028 78.3114 29.4376 77.2918 28.9124 76.0888C28.8972 76.0543 28.3284 75.8005 28.2951 75.3991C28.2417 74.7498 28.2614 73.8698 28.1836 73.1852C28.1471 72.8651 27.836 73.1063 27.8239 73.0514C27.407 70.9592 27.5279 69.3735 27.386 67.0897C27.3585 66.6525 26.762 65.5311 27.0174 64.6606C27.2976 63.7163 29.0491 64.437 28.3976 62.4293C28.1357 61.6223 25.9291 60.8451 26.8026 59.2281C26.4253 57.5914 26.32 55.9765 26.146 54.3806C26.0157 53.1922 25.8503 52.0261 25.508 50.8346C25.4717 50.7064 24.8337 50.3835 24.796 50.0825C24.7415 49.6382 24.9707 49.3361 24.9393 49.0141C24.8131 47.6574 24.3861 46.4537 24.2093 45.1526C24.141 44.6566 24.4473 44.7824 24.366 44.1976C24.2807 43.5942 23.853 43.2868 23.8901 42.4479C23.9217 41.8295 24.5613 41.0875 24.5056 40.2798C23.7633 40.3782 23.6821 39.8332 23.306 38.8934C23.2335 38.7136 23.0151 38.9617 22.9676 38.8792C22.7688 38.5463 22.9183 38.1766 22.709 37.8606C22.6586 37.7843 22.4071 37.8286 22.3518 37.7693C21.8743 37.2748 22.2489 36.2133 22.3137 36.0307C22.5594 35.3279 22.1752 35.1101 22.2214 34.5988C22.2682 34.093 22.6002 34.7647 22.5725 34.1916C22.5129 32.9951 22.1431 31.5211 21.8777 30.3494C21.7704 29.8825 21.5141 30.2793 21.491 30.2144C21.1796 29.2749 21.2865 28.2099 20.4934 27.8509C22.0211 26.747 20.1834 27.3147 20.1575 25.8647C20.1559 25.7502 20.9195 25.3936 21.1498 25.7782C21.3792 26.1605 21.2951 26.8563 21.6276 27.3873C21.7064 27.5122 22.6593 28.1069 22.7319 28.2056C23.2986 28.9596 22.121 29.3768 22.0654 29.435C21.4729 30.1092 22.5126 30.875 22.6274 31.1192C23.1534 32.2255 23.1964 33.2464 23.5868 34.1842C23.8401 34.7978 24.6488 34.698 24.7268 35.2053C24.984 36.8994 23.9812 37.6932 25.241 39.0922C25.5087 39.3906 26.3217 38.8895 25.8552 40.2367C25.8248 40.3147 25.3586 41.3406 25.8451 41.7822C25.9066 41.8386 26.1613 41.7922 26.1977 41.8747C26.4372 42.4334 26.2991 42.8495 26.5029 43.4658C26.7072 44.0852 26.9777 44.8195 27.0069 45.5502C27.0246 45.9874 26.6398 46.6366 26.5546 46.8534C26.3102 47.4833 26.962 48.0436 26.6095 48.4594C26.2567 48.8872 25.5254 48.2689 25.4086 49.2681C26.0788 49.2017 26.7737 49.1794 27.4511 49.135C27.6859 50.7931 27.7902 52.4491 27.9855 54.1164C28.0371 54.5584 28.0959 55.0059 28.1665 55.4596C28.2082 55.724 28.5279 55.402 28.5819 55.685C28.8044 56.8532 28.6923 57.9249 28.9614 59.1535C29.168 60.0817 29.6879 61.0959 29.911 62.0732C29.2282 62.7933 29.6734 64.2272 29.7356 65.3169C29.7573 65.6938 29.5502 65.694 29.5162 65.9698C29.3929 67.0152 30.0105 66.4591 30.1505 66.7263C30.745 67.8549 29.2297 68.145 29.4288 69.5403C29.4387 69.6116 30.3569 70.4254 30.4219 70.548C30.8433 71.3152 30.1531 70.7121 30.1493 71.224C30.1384 72.1287 30.0144 72.7957 30.367 73.8346C30.4706 74.1333 31.0578 74.8231 30.7278 75.4772C30.6847 75.5631 30.4103 75.5466 30.4012 75.613C30.2569 76.7947 31.1064 76.7322 31.4608 77.3703C31.8161 78.0191 31.3292 79.083 31.1808 79.3097C30.797 79.896 30.9538 78.9112 30.908 78.8875C30.3647 78.5947 30.5249 79.3227 30.5369 79.9004C29.7132 80.0623 29.84 80.8629 30.5527 80.5005C30.6304 80.4592 30.51 80.0187 30.5369 79.9004C31.4019 80.3305 31.5894 81.1901 30.916 82.2276C30.6001 82.7139 30.1451 82.3274 30.4227 83.6912C30.5471 84.3016 31.0987 84.0112 31.3039 84.5463C31.7741 85.7909 31.3772 87.4421 31.571 88.7597C31.6403 89.2251 31.9165 88.7444 31.9745 89.0598C32.1291 89.8966 31.9545 90.6703 32.1441 91.5329C32.1617 91.6109 32.4751 91.3924 32.5007 91.6626C32.6964 93.6629 32.6186 95.4454 32.7652 97.5797C32.8346 98.5833 33.1438 100.422 33.177 101.473C33.2383 103.305 32.9025 105.588 33.1144 107.162C33.2517 108.197 33.566 107.934 33.8165 108.359C34.3011 109.168 33.6095 110.723 33.5005 110.936C33.4969 110.942 33.3682 110.057 33.2265 110.541C32.8902 110.837 33.4983 110.926 33.5005 110.936C33.4312 111.087 33.4533 112.816 33.5355 113.17C33.5803 113.358 33.8864 113.234 33.9038 113.333C34.3126 115.685 34.514 118.053 34.4823 120.414C34.478 120.456 34.126 120.41 34.1203 120.509C34.0319 121.898 34.501 122.779 34.806 123.89C35.1112 125.011 35.0667 125.929 34.4972 126.64C34.6096 127.481 34.3968 128.72 34.2656 129.441C34.1345 130.161 34.8181 130.235 34.8341 130.297C35.3433 132.223 34.9979 133.352 35.014 135.393C35.0196 136.338 35.1871 138.238 35.298 139.293C35.3866 140.117 35.2436 140.6 35.3709 141.354C35.3879 141.455 35.6871 141.342 35.6998 141.373C36.0902 142.204 35.3366 141.824 35.2103 142.003C34.7506 142.652 34.5076 143.051 34.7688 144.141C34.8285 144.388 35.9166 145.07 35.9929 145.522C36.0902 146.108 35.7014 145.897 35.8129 146.513C35.822 146.566 36.0573 146.547 36.0585 146.931C36.0616 147.57 36.0533 148.233 36.0448 148.911C36.0285 150.088 36.0117 151.305 36.0593 152.495C36.0685 152.749 36.4334 152.413 36.4529 152.78C36.5441 154.51 36.5773 156.339 36.4438 158.03C36.4097 158.444 36.1416 158.192 36.0661 158.283C35.6096 158.853 36.311 159.594 36.3271 159.723C36.7277 162.752 36.1611 165.1 36.52 168.205C36.5409 168.376 37.3 169.666 36.6832 170.252C36.6422 170.293 36.0109 170.877 36.4602 171.375C36.4883 171.406 36.8122 171.042 36.7907 171.667C36.7692 172.291 37.0095 173.294 36.6621 174.165C36.5527 174.445 35.9234 175.09 36.4491 175.889C36.4858 175.94 37.6639 177.168 36.8744 177.63C36.7444 177.705 35.8994 177.643 36.3489 178.606C36.436 178.79 36.6184 178.45 36.7443 178.937C36.9385 179.687 36.7291 180.672 37.1201 181.581C37.1893 181.739 37.7732 182.409 37.3473 182.963C37.2806 183.05 36.9963 182.891 36.9694 183.181C36.8403 184.558 37.0511 185.994 36.877 187.383C36.8159 187.877 36.3567 187.632 36.2423 188.147C36.128 188.663 36.0257 189.702 36.2415 190.239C36.4574 190.776 37.1749 190.176 37.2444 190.984C37.546 194.473 37.1651 197.957 37.1444 201.458C37.1412 201.978 37.3959 201.545 37.4098 202.31C37.4625 205.122 37.7578 209.993 37.2294 212.444C36.8065 214.41 36.446 211.945 36.2806 213.445C36.2018 214.169 37.053 214.942 37.0812 215.116C37.3669 216.818 37.0037 218.006 37.1316 219.539C37.1581 219.856 37.4975 219.542 37.5163 219.811C37.5835 220.732 37.4389 221.701 37.474 222.581C37.4906 222.976 37.7512 222.901 37.734 223.264C37.6957 224.133 37.5919 224.902 37.3536 225.752C37.3319 225.83 37.0029 225.311 36.9958 225.955C36.9851 226.997 36.7531 228.29 37.0111 229.484C37.0886 229.839 37.6858 229.848 37.2788 230.614C37.1938 230.775 36.4755 230.575 37.1011 231.462C37.2051 231.611 38.0507 233.102 37.5169 233.838C37.3764 234.033 36.7929 234.53 36.8878 234.956C36.9029 235.013 37.2221 234.78 37.2557 235.133C37.3682 236.373 37.3421 237.691 37.45 238.971C37.4795 239.313 37.8083 238.801 37.8416 239.311C37.9337 240.712 37.8589 242.461 37.7622 243.838C37.7259 244.345 37.4492 243.996 37.4195 244.033C36.936 244.628 37.5945 244.974 37.6338 245.17C37.8694 246.391 37.5653 247.312 37.6523 248.446C37.6755 248.758 37.9876 248.535 38.0158 248.597C38.2917 249.239 37.727 248.763 37.6669 249.17C37.4967 250.31 37.5275 251.576 37.5723 252.72C37.5892 253.141 37.9504 252.664 37.9614 253.045C38.0335 255.31 38.0075 257.609 37.815 259.82C37.7781 260.234 37.4976 259.975 37.434 260.061C36.9893 260.657 37.6016 261.522 37.6603 261.721C37.9284 262.627 37.6822 262.977 37.7309 263.775C37.973 267.72 37.8212 272.526 37.7272 276.243C37.6064 281.034 37.3458 284.826 37.4196 289.389C37.4239 289.685 37.7956 289.387 37.8041 289.641C37.897 292.91 37.7538 296.098 37.8627 299.357C37.8709 299.627 38.2234 299.238 38.2485 299.67C38.3026 300.557 38.2838 301.665 38.1714 302.538C38.1173 302.974 37.8145 302.385 37.7662 302.829C37.6531 303.866 37.6282 304.96 37.6849 305.991C37.7098 306.429 38.0704 305.768 38.0746 306.338C38.1003 309.14 38.1388 311.909 37.994 314.637C37.934 315.787 37.8426 316.942 37.7059 318.107C37.6738 318.379 36.9408 318.619 37.0814 319.198C37.2848 319.242 37.5241 319.24 37.7415 319.259C37.8587 324.988 37.6046 330.658 37.5653 336.404C37.5637 336.646 37.9521 336.227 37.951 336.696C37.9453 339.41 38.0529 342.046 37.6668 344.823C37.6291 345.098 36.9458 344.957 37.0492 345.768C37.068 345.912 37.1591 347.134 37.3075 347.45C37.3298 347.493 37.6487 347.27 37.658 347.664C37.7065 349.954 37.6337 352.353 37.4388 354.639C37.4067 355.008 37.0671 354.615 37.0413 354.878C36.8611 356.741 37.1192 358.768 36.8109 360.549C36.6032 361.741 36.0162 361.3 35.4383 361.933C35.3568 362.023 35.3439 362.761 35.0077 362.799C34.1622 362.897 33.2365 362.54 32.3353 362.686C32.1412 362.717 32.3503 363.706 31.8812 363.121C31.8498 363.08 31.6941 362.363 31.535 362.187C31.425 362.064 31.0831 362.285 30.9422 362.034C30.8015 361.784 31.0882 361.508 30.9227 361.092C30.7552 360.677 30.3662 360.86 30.3202 360.03ZM33.6759 132.66C33.3752 133.328 34.5744 133.379 34.2607 132.68C34.2441 132.647 33.6906 132.626 33.6759 132.66ZM26.9393 53.4649C26.7939 53.8026 26.8149 54.0828 26.9156 54.2701C27.0896 54.5863 27.507 54.6243 27.7093 54.2103C27.7189 54.1907 27.7273 54.1714 27.7346 54.1524C27.9674 53.5212 27.0564 53.1918 26.9393 53.4649ZM25.2014 44.7132C24.9544 45.7766 26.6551 45.6659 26.1405 44.6465C26.1112 44.5876 25.2157 44.6514 25.2014 44.7132ZM35.2738 358.996C35.2579 359.005 35.2424 359.535 35.2581 359.548C35.6381 359.831 35.6688 358.77 35.2738 358.996ZM23.215 36.0851C23.0506 36.4305 23.4856 37.2744 23.6901 36.8335C23.8544 36.475 23.4189 35.6494 23.215 36.0851ZM33.399 166.931C33.3814 166.942 33.3734 167.323 33.474 167.313C33.7979 167.281 33.6952 166.752 33.399 166.931ZM19.569 21.4963C20.1466 23.6487 19.1554 25.3144 18.6428 22.9665C18.5479 22.5405 19.3347 23.7414 19.3008 23.1741C19.2363 22.1323 18.2 21.7414 18.3467 20.6139C18.3743 20.4081 19.5396 21.3712 19.572 21.4995C19.571 21.4984 19.57 21.4973 19.569 21.4963ZM32.2548 133.094C32.2395 133.107 32.245 133.635 32.2611 133.647C32.6518 133.918 32.6409 132.854 32.2548 133.094ZM33.051 189.143C33.0178 189.172 33.004 190.398 33.0355 190.438C33.6658 191.068 33.6956 188.589 33.051 189.143ZM29.4795 97.7567C29.0569 97.2023 28.9621 96.5192 29.4072 96.03C29.4235 96.5983 29.4615 97.1743 29.4795 97.7567ZM0.0263202 47.198C-0.0590425 46.7019 0.0765781 46.0613 0.247917 45.5744C0.301223 45.419 0.510247 45.5031 0.55636 45.4021C0.646419 45.2007 0.549858 45.0007 0.655708 44.7986C0.691879 44.7302 1.02425 44.8296 1.0545 44.7573C1.2173 44.3767 1.14588 43.9975 1.23198 43.6053C1.49775 42.3828 1.67376 41.1986 1.82465 39.9743C1.83082 39.9246 1.83694 39.8749 1.84302 39.8252C1.92573 39.1585 2.00221 38.4564 2.08137 37.7747C2.15632 37.1143 2.49044 36.3423 2.38297 35.6607C2.37014 35.5805 2.07375 35.6167 2.05005 35.6007C1.68741 35.3484 2.27911 35.4501 2.36391 35.3013C2.69898 34.7074 2.75206 34.0334 2.66135 33.4368C2.6217 33.1881 2.02697 33.4131 2.36506 33.1768C2.38792 33.1604 2.6983 33.2354 2.73431 33.1687C2.81533 33.0178 2.77091 32.7211 2.80044 32.6008C2.85895 32.3685 2.85724 32.332 2.86937 32.1142C2.88863 31.8178 3.05846 31.4613 3.00023 31.1405C2.98688 31.0716 2.66262 31.1492 2.61239 31.0382C2.56223 30.9272 2.60098 30.6387 2.68051 30.5436C2.76006 30.4486 3.01043 30.5004 3.06889 30.4854C3.56224 30.3611 2.90035 30.0005 2.88538 29.957C2.63253 29.1594 3.04479 28.5015 3.07433 27.7633C3.09589 27.2042 2.99411 26.599 3.03421 26.067C3.08328 25.4321 3.28021 24.9023 3.27736 24.284C3.27743 24.2188 2.89713 24.2786 2.89645 24.1989C2.88966 23.3518 2.96831 22.5155 3.26147 21.6846C3.2912 21.6014 3.61715 21.7253 3.66663 21.6432C3.96217 21.1415 4.65392 20.3539 3.22772 19.9808C3.30068 19.6322 3.37927 19.2105 3.68486 18.9138C3.88168 18.7203 4.23252 18.9346 4.09089 18.6784C4.05937 18.6207 3.74011 18.6781 3.71672 18.5927C3.61859 18.2322 3.74009 17.8581 3.59484 17.4967C3.56452 17.4237 3.2807 17.4289 3.23078 17.4061C2.82688 17.2154 3.52309 16.9692 3.57577 16.9109C3.96909 16.4652 3.84185 16.1104 3.87373 15.6805C3.88132 15.5803 3.49511 15.6792 3.48882 15.5812C3.46162 15.0672 3.52225 14.5559 3.71878 14.0654C3.76334 13.9577 4.08121 14.0769 4.11906 14.0264C4.28201 13.8038 3.67379 13.7193 3.8184 13.5061C3.84817 13.4602 4.12359 13.5028 4.1545 13.4959C4.63969 13.388 3.96991 13.2325 3.95698 13.197C3.77819 12.7488 4.50051 12.5175 4.42612 12.0879C4.41649 12.0369 4.05927 12.1289 4.05362 11.9869C4.01414 11.0386 4.1742 10.0541 4.52066 9.1354C4.57388 8.99518 4.82964 9.11613 4.86271 9.10938C5.37966 8.99943 4.70773 8.85659 4.68576 8.80505C4.5296 8.40715 5.12344 8.12301 4.3361 7.79418C4.38136 7.61764 4.41748 7.44419 4.44712 7.2741C4.69517 5.86543 4.51234 4.42273 5.45937 3.04381C5.4723 3.02443 5.79109 3.13467 5.81529 3.09668C6.11577 2.65104 5.5796 2.64222 5.09719 2.05542C4.9793 1.89607 5.8185 1.86767 5.87937 1.87716C6.10826 1.87506 6.52206 2.16998 6.57125 2.15889C6.95368 2.10808 5.42633 1.40021 5.76653 0.916335C5.77856 0.905163 5.97684 1.14534 6.02745 1.12889C6.17774 1.08838 6.18584 0.898454 6.36687 0.875932C6.56878 0.857564 6.81856 1.00426 6.99013 1.10495C7.1708 1.20414 7.25942 1.24715 7.38972 0.980416C7.427 0.923049 7.15716 -0.0302471 7.75752 0.00121021C8.01887 -0.000404477 8.76411 0.186956 8.87214 0.312918C9.01355 0.435078 8.78563 0.668226 8.79363 0.685426C9.01974 1.21724 8.79481 1.30248 8.69799 1.91071C8.56814 2.50501 9.18271 1.24511 9.32656 1.14459C9.47741 1.04776 9.54649 1.46682 9.54324 1.59898C9.54105 1.73095 9.37258 1.85327 9.38876 1.93845C9.48102 2.4902 9.89252 1.4309 10.1189 1.30945C10.6668 1.03211 10.2927 2.03208 10.4472 2.25918C10.4907 2.32182 10.5752 2.09304 10.6406 2.11063C10.9054 2.18848 10.8335 2.53316 11.2459 2.45791C11.3126 2.44522 11.8559 2.06238 11.7176 2.52607C11.6972 2.59259 11.498 2.76924 11.5538 2.87945C11.6343 3.04259 11.8311 3.25084 12.026 3.28248C12.1635 3.3011 12.2942 2.87073 12.3449 3.06888C12.3676 3.1574 12.118 3.28696 12.1729 3.43641C12.2269 3.58517 12.5137 3.77392 12.6197 3.83775C12.7288 3.90364 12.858 3.5986 12.8789 3.58664C13.0011 3.51982 13.2938 3.53419 13.3122 3.54746C13.3123 3.54752 13.3124 3.54758 13.3125 3.54765C14.2214 4.13462 14.7465 5.15477 15.7292 5.60241C15.8061 5.6379 15.9515 5.32391 15.9652 5.32641C16.2829 5.36865 15.5863 5.99367 15.5832 6.35849C15.947 5.76785 15.9766 5.9394 16.1837 5.98748C16.2845 6.01061 16.391 5.75876 16.4137 5.74091C16.7602 5.48298 16.5494 5.97573 16.5108 6.07957C16.3689 6.46167 16.7173 6.13187 16.6241 6.38828C16.531 6.64239 16.1906 6.88308 16.3524 6.98583C16.5354 6.8099 16.779 6.19249 16.9583 6.18639C17.6381 6.16472 18.2156 7.16219 18.5558 7.45192C18.9002 7.74452 19.0402 7.78245 19.2077 8.00134C19.51 8.3964 19.6316 7.89985 19.9948 7.8764C20.3587 7.85341 19.5876 8.7622 19.482 8.99743C19.376 9.2322 19.558 9.03876 19.5236 9.18367C19.4892 9.32847 19.3013 9.41156 19.3728 9.52179C19.4452 9.63258 19.9675 9.43552 20.1496 9.23701C20.5353 8.81633 20.7379 8.24129 20.8882 8.58964C20.8967 8.61 20.6757 8.837 20.7168 8.90182C21.049 9.40822 21.5228 9.73816 21.8692 10.2196C21.9167 10.2863 21.6695 10.538 21.695 10.5801C21.9604 11.0196 22.1429 10.441 22.7104 10.038C22.1892 10.7281 22.0162 11.2462 22.3072 11.4433C22.482 11.562 22.6585 11.227 22.9183 11.0798C22.9965 11.0353 22.9793 11.3335 23.0992 11.2002C23.4915 10.7645 23.7295 10.1451 23.8904 10.5593C23.897 10.5783 23.6808 10.8159 23.7162 10.862C23.9439 11.1615 24.3115 10.6779 24.6723 10.8263C24.9547 10.9424 25.2001 11.5445 25.4532 11.7817C24.9161 12.5898 25.3085 12.5808 25.7843 12.0926C25.9555 12.2372 26.1761 12.3361 26.3054 12.5309C26.3502 12.5978 26.1559 12.8064 26.1471 12.8369C26.0068 13.3139 26.4434 12.8218 26.4975 12.8266C27.0667 12.902 27.1541 13.548 27.831 13.4139C27.8553 13.409 28.2475 12.8602 28.0901 13.345C28.0787 13.3781 27.7737 13.5452 27.9566 13.6928C28.1394 13.8404 28.3092 14.3823 28.7522 14.2983C28.859 14.2782 29.3231 13.9277 29.2222 14.3722C29.2084 14.4325 29.0833 14.5816 29.0504 14.6886C28.9468 15.0301 29.3642 14.4891 29.1459 15.0376C28.9283 15.5865 28.8909 16.0794 29.3844 15.9245C29.3995 15.9205 29.7596 15.5107 29.8411 15.5741C29.9717 15.676 30.1018 15.8951 30.2486 15.9866C30.3189 16.0302 30.4577 15.7205 30.473 15.7232C31.0384 15.8676 31.2054 16.3333 31.6258 16.7627C31.7046 16.8432 32.2163 16.6314 32.1914 17.0468C32.1661 17.503 31.0709 18.7534 31.7279 18.7144C31.9883 18.6972 33.3639 17.1019 33.0885 18.2148C33.6111 18.3395 33.9077 18.7694 34.2947 19.0546C34.488 19.1962 34.6907 19.2983 34.9596 19.3285C34.9975 19.3332 35.4085 18.9064 35.4698 18.9564C35.5602 19.0317 35.4623 19.2935 35.5202 19.3534C35.7726 19.6191 36.1655 19.6006 36.4247 19.8174C36.5205 19.8974 36.33 20.1087 36.4493 20.2075C36.5704 20.3075 36.8521 20.0498 36.9303 20.3185C36.9866 20.5212 36.6834 21.2312 36.8086 21.4232C37.238 20.8111 37.3374 20.8971 37.6647 20.8821C37.7267 20.8782 37.8307 20.634 37.8676 20.6211C38.0223 20.5646 37.9663 20.7879 38.1255 20.7204C38.1638 20.7043 38.3099 20.4948 38.3494 20.4698C38.6908 20.2486 38.5655 20.8617 38.5444 20.9691C38.4594 21.3736 38.7127 21.146 38.7301 21.3419C38.7446 21.5359 38.4854 21.5806 38.5498 21.7381C38.6869 22.0666 39.0194 22.2587 39.2519 22.4521C39.3463 22.5286 39.4887 22.2082 39.5071 22.2128C39.7636 22.3011 39.7252 22.7373 40.2734 22.3123C39.2627 23.7595 40.5026 22.2774 40.5493 22.8036C40.5524 22.8464 39.9937 23.4605 39.8396 23.4816C39.69 23.5069 39.7501 23.2114 39.519 23.2642C39.4628 23.2742 38.8245 23.7553 38.7772 23.7781C38.3987 23.9455 39.1425 22.9537 39.1749 22.8922C39.5281 22.2342 38.8177 22.7468 38.7346 22.7572C38.3435 22.7957 38.2413 22.5066 37.9312 22.518C37.7284 22.5239 37.2428 23.1759 37.158 23.0856C36.8614 22.7771 37.3855 21.7617 36.4943 22.3424C36.3034 22.466 35.8778 23.2505 36.0162 22.5C36.024 22.4519 36.1935 21.7949 35.8575 22.0557C35.8151 22.0886 35.6708 22.3034 35.6403 22.3091C35.4368 22.3415 35.4731 22.1173 35.2852 22.1101C35.0951 22.1015 34.8538 22.1172 34.7502 21.9426C34.6872 21.8375 34.8314 21.3541 34.8555 21.2283C34.9212 20.8635 34.4771 21.2381 34.625 20.842C34.7746 20.4445 35.2739 20.0212 35.2183 19.6635C34.8394 20.2192 34.4411 20.7833 34.0557 21.3393C33.7695 21.1313 33.5378 20.8608 33.2683 20.614C33.1331 20.4883 32.9878 20.3695 32.8217 20.2727C32.7618 20.2386 32.6222 20.5794 32.5528 20.5506C32.2731 20.4357 32.1818 20.0676 31.8661 19.9835C31.62 19.9189 31.1776 20.087 30.9155 20.0307C31.2075 19.3022 30.7405 19.3091 30.5512 19.1015C30.4835 19.0283 30.6013 18.8597 30.5801 18.7658C30.4966 18.4151 30.2273 19.0515 30.1086 19.1018C29.6028 19.317 30.4252 18.0158 30.1002 17.8492C30.0832 17.8398 29.438 18.3985 29.3843 18.4245C29.0324 18.5927 29.5122 18.167 29.4388 18.0467C29.3052 17.8273 29.2718 17.5716 28.9131 17.6247C28.8079 17.6411 28.3686 17.9652 28.454 17.5487C28.4651 17.4941 28.6227 17.2731 28.6176 17.2508C28.5107 16.8651 28.0405 17.5757 27.7409 17.7249C27.4416 17.8743 27.5419 17.2375 27.5893 17.066C27.7109 16.6217 27.782 16.9679 27.8118 16.9359C28.1663 16.5556 27.957 16.5244 27.8572 16.4077C28.2959 15.6964 28.098 15.6272 27.7536 16.2906C27.7162 16.3633 27.8536 16.3599 27.8572 16.4077C27.3028 17.0249 27.0579 16.9906 27.2673 16.2127C27.3659 15.8483 27.6856 15.557 27.3065 15.4927C27.135 15.4634 26.8725 15.979 26.6685 16.0332C26.2018 16.1562 26.143 15.4771 25.8176 15.3658C25.6992 15.3252 25.6261 15.6535 25.5393 15.6349C25.3076 15.5858 25.2757 15.2829 25.0249 15.2637C25.002 15.2623 24.8627 15.565 24.803 15.5311C24.3454 15.2781 24.0832 14.8547 23.6313 14.5523C23.4136 14.4068 22.9206 14.3016 22.7135 14.1224C22.3529 13.813 22.1304 13.0941 21.7302 12.9709C21.4698 12.8892 21.3369 13.1963 21.1195 13.3224C20.6987 13.5671 20.8057 12.7041 20.829 12.5749C20.8298 12.5707 21.0612 12.6296 21.0534 12.4221C21.1886 12.0889 20.832 12.575 20.829 12.5749C20.8434 12.491 20.5066 12.18 20.3973 12.1835C20.3377 12.1855 20.1887 12.4615 20.1609 12.4576C19.5029 12.3593 18.9533 12.0921 18.5219 11.632C18.5164 11.6208 18.7225 11.3382 18.7072 11.3155C18.4991 10.9917 18.0701 11.2204 17.687 11.271C17.305 11.3222 17.1546 11.1204 17.3427 10.5252C17.1172 10.4662 17.0005 10.0701 16.9368 9.83435C16.8739 9.59917 16.4759 10.1513 16.455 10.1535C15.8022 10.2356 15.7734 9.74817 15.3757 9.40875C15.1845 9.24462 14.7262 9.05558 14.4592 8.96526C14.2489 8.89579 14.2366 8.69521 14.0151 8.66849C13.9853 8.66479 13.8381 8.93082 13.8248 8.93591C13.4391 9.11251 13.9418 8.55871 13.9783 8.42376C14.1118 7.93346 14.1734 7.66591 13.8168 7.69721C13.7337 7.70335 12.9772 8.47812 12.8447 8.46329C12.6739 8.44256 12.9366 8.15922 12.7533 8.14621C12.7376 8.14468 12.6079 8.34159 12.5318 8.27698C12.1723 7.97673 11.8356 7.57885 11.4311 7.32706C11.3747 7.29077 11.2322 7.64697 11.1472 7.5996C10.9885 7.51099 10.8321 7.41236 10.6875 7.30223C10.4549 7.12606 10.2666 6.93616 10.1076 6.69532C10.0459 6.59763 10.2515 6.42228 10.2774 6.34542C10.432 5.87894 9.88132 6.32663 9.84565 6.31739C9.02278 6.13923 8.89355 5.28714 8.14032 5.14093C8.09468 5.13109 7.46986 5.5987 7.70957 5.00888C7.72716 4.97055 7.96195 4.35977 7.65281 4.6878C7.63481 4.70918 7.51899 5.0248 7.44341 4.94146C7.36699 4.85781 7.13936 4.98572 7.23347 4.62938C7.27617 4.52152 7.42996 3.89249 7.27499 4.38045C7.27039 4.39731 7.18756 4.68561 7.21319 4.89139C7.23742 5.09805 7.40008 5.21382 7.52762 4.82178C7.54669 4.75727 7.56463 4.51441 7.61018 4.34303C7.66641 4.16871 7.68711 4.0806 7.95112 4.26467C8.0654 4.32929 7.89216 4.55731 8.21645 4.60945C8.48033 4.64157 8.8048 4.49621 9.05931 4.33336C9.32015 4.17024 9.51052 4.01579 9.75744 4.00318C9.84496 4.00615 10.4693 4.09462 10.1173 3.81987C10.0608 3.78051 9.80331 3.66583 9.78455 3.63236C9.67783 3.49511 9.78428 3.73404 9.54967 3.90112C9.46459 3.967 9.02968 3.82366 8.88905 3.89788C8.74998 3.96347 8.59279 4.16576 8.77945 4.31396C8.96638 4.45971 9.70226 4.45629 9.73339 4.62916C9.86956 5.39202 9.36326 6.17737 9.22505 7.03332C9.20491 7.15721 9.47268 7.07533 9.46161 7.26164C9.45457 7.38433 9.4532 7.52628 9.45234 7.68265C9.45074 8.37153 9.46732 9.30487 8.98007 9.77436C8.50452 10.246 8.21226 9.58961 8.00635 9.96301C7.90839 10.1381 8.73734 10.3902 8.76092 10.4363C9.00133 10.8889 8.6094 11.159 8.69927 11.5571C8.71795 11.6395 9.0643 11.5816 9.07643 11.6515C9.12065 11.8946 8.95374 12.1217 8.96801 12.3478C8.97524 12.4488 9.23712 12.4461 9.21143 12.5374C9.15287 12.7577 9.03174 12.9454 8.77481 13.1442C8.75139 13.1624 8.43469 13.0117 8.4131 13.1737C8.37916 13.4345 8.11858 13.7585 8.35075 14.0713C8.4206 14.1655 9.01651 14.2022 8.59394 14.3734C8.50568 14.4094 7.79275 14.317 8.3986 14.5791C8.49916 14.6243 9.3125 15.0498 8.76468 15.2054C8.62048 15.2467 8.02784 15.3405 8.11402 15.4546C8.12792 15.4702 8.45135 15.4282 8.47772 15.5203C8.56492 15.8474 8.51336 16.1737 8.59655 16.5064C8.61941 16.5952 8.95761 16.4824 8.9811 16.6142C9.04601 16.98 8.93909 17.4152 8.81759 17.7619C8.77218 17.8893 8.50214 17.786 8.47178 17.7939C7.97816 17.9208 8.62959 18.0446 8.66538 18.0956C8.87893 18.4164 8.55906 18.6382 8.62646 18.9303C8.64424 19.0109 8.9598 18.9698 8.98691 18.9871C9.25139 19.1646 8.69564 19.0148 8.62863 19.1158C8.43917 19.3965 8.44873 19.7203 8.47463 20.0166C8.48461 20.1254 8.85312 20.0213 8.85789 20.1187C8.89311 20.6932 8.83043 21.2892 8.60482 21.8371C8.56167 21.9406 8.28539 21.8615 8.22058 21.8805C7.76728 22.0112 8.36596 22.2611 8.42164 22.3148C8.67586 22.5592 8.42478 22.6377 8.46164 22.8445C8.64596 23.8554 8.42824 25.0846 8.28686 26.0247C8.1042 27.2505 7.79859 28.1982 7.81976 29.3739C7.82074 29.4492 8.19549 29.3886 8.20111 29.4537C8.25677 30.2912 8.0789 31.1002 8.15325 31.9402C8.1587 32.009 8.51496 31.9242 8.53555 32.0351C8.58021 32.2637 8.55011 32.5414 8.42854 32.7685C8.36995 32.8782 8.07346 32.7164 8.02066 32.827C7.89706 33.0845 7.86112 33.362 7.90737 33.6282C7.92772 33.7439 8.29484 33.5845 8.2932 33.7342C8.2899 34.7433 8.31404 35.739 7.80903 36.7357C7.77431 36.8051 7.03948 36.8397 7.17433 36.9939C7.3772 37.0127 7.61634 37.0211 7.83344 37.0342C7.87585 38.0454 7.74394 39.039 7.62662 40.0407C7.62081 40.0904 7.61502 40.1401 7.6093 40.1899C7.56197 40.6101 7.51955 41.0058 7.49314 41.4199C7.48929 41.481 7.88134 41.3899 7.87587 41.5081C7.84403 42.2076 7.92651 42.8827 7.51416 43.5796C7.47376 43.6497 6.79228 43.5896 6.88782 43.8002C6.9054 43.8345 6.98462 44.1545 7.1298 44.2412C7.15175 44.253 7.47257 44.2082 7.4781 44.3088C7.50453 44.8979 7.40878 45.5087 7.19211 46.085C7.1564 46.1817 6.82093 46.065 6.79256 46.1333C6.59436 46.6058 6.83282 47.1337 6.50719 47.5793C6.28799 47.8766 5.70568 47.7416 5.12194 47.8817C5.03969 47.8992 5.01919 48.0902 4.68275 48.0877C3.83701 48.0778 2.91571 47.9495 2.01382 47.9492C1.91669 47.9491 1.9177 48.0171 1.8856 48.0485C1.87771 48.0545 1.86709 48.0671 1.85457 48.0406C1.85326 48.0289 1.84121 48.0532 1.86208 47.8633C1.86308 47.8558 1.86421 47.8477 1.86554 47.8387C1.86713 47.8441 1.86116 47.8036 1.92806 47.5664C1.94821 47.5017 1.9731 47.4198 2.03737 47.2807C2.11224 47.1418 2.18061 46.9347 2.56461 46.5826C2.75952 46.4137 3.07605 46.1994 3.53413 46.1063C3.98796 46.0064 4.53123 46.0994 4.88305 46.2824C5.5982 46.6719 5.71668 47.0347 5.83116 47.2172C6.01081 47.5967 5.99939 47.6875 6.02484 47.7825C6.04076 47.8675 6.04548 47.9116 6.04964 47.9472C6.06286 48.0802 6.0595 48.0754 6.06075 48.0807C6.06127 48.0864 6.06173 48.0914 6.06217 48.0959C6.06389 48.1136 6.06518 48.1239 6.06645 48.132C6.06896 48.1478 6.07125 48.1542 6.07365 48.1591C6.08313 48.1712 6.09386 48.1679 6.10621 48.168C6.11856 48.1673 6.1325 48.1682 6.1483 48.1683C6.1562 48.1681 6.16457 48.1677 6.17341 48.1632C6.17783 48.1609 6.18239 48.1576 6.18694 48.146C6.1892 48.1402 6.19148 48.1327 6.19357 48.1198C6.19461 48.1133 6.19561 48.1055 6.19644 48.0948C6.19686 48.0895 6.19724 48.0834 6.19754 48.0763C6.19574 48.063 6.20614 48.0987 6.18171 47.8779C6.17044 47.8106 6.17016 47.742 6.09764 47.4989C6.04867 47.3693 6.02141 47.198 5.73876 46.8081C5.58923 46.6189 5.34869 46.3372 4.8549 46.1141C4.37306 45.8807 3.61349 45.8679 3.12906 46.0788C2.15104 46.5324 2.07957 46.9628 1.9458 47.1467C1.84262 47.352 1.81512 47.4547 1.78932 47.5359C1.74459 47.6908 1.73723 47.7489 1.72761 47.7994C1.72104 47.8348 1.71881 47.8467 1.71561 47.8647C1.70986 47.897 1.70623 47.9181 1.7031 47.9351C1.69701 47.9685 1.69312 47.9856 1.68943 47.9991C1.68205 48.0278 1.67692 48.0266 1.67107 48.0317C1.65958 48.0396 1.64783 48.0434 1.63566 48.0438C1.6113 48.0447 1.58494 48.0378 1.55588 48.0313C1.52464 48.0306 1.37641 47.8437 1.21914 47.7922C1.11047 47.7559 0.766669 47.7969 0.628295 47.7316C0.490208 47.6621 0.779424 47.601 0.618025 47.4923C0.454891 47.3752 0.0641503 47.4139 0.0263202 47.198ZM16.6527 8.78038C16.6937 8.41488 16.008 9.39563 16.3193 9.25936C16.3351 9.25161 16.6511 8.79856 16.6527 8.78038ZM33.7896 19.7935C33.9004 19.2348 33.3474 19.7998 33.2526 20.2252C33.1816 20.541 33.4948 20.2416 33.6738 19.998C33.7064 19.9538 33.7345 19.9114 33.7549 19.8747C33.7733 19.842 33.7856 19.814 33.7896 19.7935ZM35.8971 20.7281C35.9197 20.2427 34.9447 21.6317 35.3581 21.4954C35.3817 21.4879 35.8958 20.7563 35.8971 20.7281ZM4.98639 47.1221C4.97036 47.1254 4.94986 47.2572 4.96548 47.2607C5.34248 47.3462 5.38329 47.0808 4.98639 47.1221ZM37.9946 21.65C38.0563 21.4128 37.7229 21.5038 37.6394 21.7933C37.5698 22.0244 37.9133 21.9415 37.9946 21.65ZM10.126 2.74695C10.1337 2.7306 10.0634 2.66388 10.0089 2.74874C9.83302 3.0215 9.99365 3.01943 10.126 2.74695ZM40.7254 24.0371C40.5653 23.6306 41.3029 22.3501 41.665 23.0773C41.7173 23.2006 41.1345 23.1044 41.1303 23.3143C41.0955 23.6559 41.9587 23.398 41.6738 23.8773C41.6171 23.9539 40.7295 24.0519 40.7233 24.0373C40.724 24.0372 40.7247 24.0372 40.7254 24.0371ZM17.3702 7.53154C17.3762 7.51649 17.2724 7.42905 17.261 7.44032C16.9891 7.71542 17.1982 7.89185 17.3702 7.53154ZM5.70283 3.4859C5.66764 3.48573 5.57839 3.8099 5.60899 3.82014C6.19322 4.08344 6.36786 3.46954 5.70283 3.4859ZM25.4435 11.8063C25.7754 11.5668 25.9481 11.6259 25.784 12.0918C25.6753 11.9904 25.5534 11.9063 25.4435 11.8063Z" fill="#043C08"/>
</svg>
